<?xml version="1.0" encoding="UTF-8" standalone="no"?>
<!-- Created with Inkscape (http://www.inkscape.org/) -->

<svg
   xmlns:dc="http://purl.org/dc/elements/1.1/"
   xmlns:cc="http://creativecommons.org/ns#"
   xmlns:rdf="http://www.w3.org/1999/02/22-rdf-syntax-ns#"
   xmlns:svg="http://www.w3.org/2000/svg"
   xmlns="http://www.w3.org/2000/svg"
   xmlns:sodipodi="http://sodipodi.sourceforge.net/DTD/sodipodi-0.dtd"
   xmlns:inkscape="http://www.inkscape.org/namespaces/inkscape"
   version="1.1"
   id="svg137"
   width="40.095299px"
   height="40.680077px"
   viewBox="0 0 66.095298 61.680076"
   sodipodi:docname="drawing9.svg"
   inkscape:version="0.92.4 (5da689c313, 2019-01-14)">
  <metadata
     id="metadata143">
    <rdf:RDF>
      <cc:Work
         rdf:about="">
        <dc:format>image/svg+xml</dc:format>
        <dc:type
           rdf:resource="http://purl.org/dc/dcmitype/StillImage" />
        <dc:title></dc:title>
      </cc:Work>
    </rdf:RDF>
  </metadata>
  <defs
     id="defs141" />
  <sodipodi:namedview
     pagecolor="#ffffff"
     bordercolor="#666666"
     borderopacity="1"
     objecttolerance="10"
     gridtolerance="10"
     guidetolerance="10"
     inkscape:pageopacity="0"
     inkscape:pageshadow="2"
     inkscape:window-width="1360"
     inkscape:window-height="705"
     id="namedview139"
     showgrid="false"
     fit-margin-top="0"
     fit-margin-left="0"
     fit-margin-right="0"
     fit-margin-bottom="0"
     inkscape:zoom="1.84375"
     inkscape:cx="111.83521"
     inkscape:cy="35.537701"
     inkscape:window-x="-8"
     inkscape:window-y="-8"
     inkscape:window-maximized="1"
     inkscape:current-layer="svg137" />
  <path
     style="font-variant-east_asian:normal;opacity:1;vector-effect:none;fill:#cca438;fill-opacity:1;stroke:#ddc480;stroke-width:1;stroke-linecap:butt;stroke-linejoin:miter;stroke-miterlimit:4;stroke-dasharray:none;stroke-dashoffset:0;stroke-opacity:0"
     d="M 18.511896,61.432542 C 16.258423,60.749273 15.987184,60.4465 11.663272,53.787803 9.1780352,49.960624 7.8298872,48.734287 6.0595243,48.690372 5.2745445,48.670902 5.0233115,48.756256 4.2917414,49.290443 3.3020797,50.013191 2.0508796,51.37855 0.84788533,53.048475 L 0,54.225479 V 50.17765 46.12982 L 0.73808657,45.184236 C 2.7633451,42.589593 4.1795231,41.708549 6.3227293,41.709888 c 2.7564522,0.0017 4.1295017,1.283901 7.7346617,7.222761 2.848288,4.692066 3.625929,5.441912 5.643622,5.441912 1.730658,0 2.847021,-0.978218 4.746606,-4.159264 2.263904,-3.791125 4.222685,-6.529362 5.225288,-7.304609 1.274367,-0.985384 2.455107,-1.373032 3.765834,-1.236347 2.675185,0.278958 4.056579,1.715158 8.0589,8.378698 2.189051,3.644601 3.167813,4.449029 5.209324,4.281554 1.804484,-0.148014 2.621558,-0.938148 4.860057,-4.699652 3.320317,-5.579376 4.648253,-7.107196 6.755087,-7.771908 2.492281,-0.786307 4.98207,0.481456 7.219131,3.675863 l 0.55406,0.79115 v 3.943644 3.943659 l -0.945152,-1.30566 c -2.742746,-3.788924 -4.503714,-4.885147 -6.355312,-3.956261 -1.426724,0.715738 -2.375678,1.836974 -5.28614,6.245847 -1.50224,2.275633 -3.019212,4.427029 -3.371057,4.780876 -1.449456,1.457707 -3.640594,1.971168 -5.422278,1.270623 -1.563547,-0.614767 -1.96742,-1.071075 -5.149441,-5.818028 -1.774164,-2.646686 -3.336408,-4.802382 -3.826229,-5.279705 -0.728545,-0.709946 -2.2141,-1.584095 -2.69204,-1.584095 -0.478592,0 -1.963713,0.874471 -2.692041,1.585146 -0.492367,0.480438 -2.04288,2.625313 -3.82624,5.292946 -3.35556,5.019444 -3.790806,5.47314 -5.746607,5.990314 -1.217877,0.322026 -1.186037,0.322126 -2.270867,-0.0067 z M 18.6745,40.231299 C 17.670881,39.983145 16.661886,39.411409 15.956418,38.691133 15.323221,38.04466 14.301525,36.581636 11.862031,32.828142 10.036614,30.019497 9.1223311,28.909677 7.9573753,28.088399 7.1334562,27.507549 6.8443908,27.401984 6.0670797,27.398079 c -0.7696875,-0.0041 -1.0548838,0.0946 -1.7688103,0.610708 -0.9842181,0.71151 -2.241193,2.08117 -3.45038407,3.759711 L 0,32.945504 0.00114123,28.909141 0.00228248,24.872782 0.73386398,23.920571 c 1.97017092,-2.564376 3.46567662,-3.495465 5.58786112,-3.47897 1.5065293,0.01168 2.5064744,0.435287 3.6982049,1.566562 1.201488,1.140526 1.90148,2.119458 3.970287,5.552436 2.215664,3.676673 2.885995,4.547267 3.966351,5.151384 0.622582,0.348121 0.949044,0.405787 1.923163,0.339654 1.929634,-0.13091 2.630551,-0.827375 5.311293,-5.277041 2.353845,-3.907045 3.424192,-5.344926 4.664459,-6.266117 2.21943,-1.648443 4.742064,-1.504759 6.824146,0.388684 1.135079,1.032238 1.870403,2.062633 4.137606,5.79792 2.939392,4.842737 3.678962,5.522707 5.829519,5.359789 0.935474,-0.07079 1.266526,-0.18832 1.913382,-0.678785 0.96929,-0.734925 1.433559,-1.374114 3.510641,-4.833298 3.434122,-5.719179 4.879548,-7.075282 7.570424,-7.102566 2.137626,-0.02165 3.753782,0.966707 5.606877,3.42895 l 0.846218,1.12439 v 3.975972 3.975969 L 65.24641,31.768498 c -1.202994,-1.669931 -2.454191,-3.035282 -3.443855,-3.758033 -0.725842,-0.530083 -0.991989,-0.621626 -1.788152,-0.615029 -0.833827,0.0069 -1.06057,0.09887 -2.088316,0.846922 -1.104047,0.803596 -1.282812,1.032949 -4.21651,5.409756 -1.684974,2.513827 -3.302547,4.810816 -3.594625,5.104423 -0.6788,0.682426 -1.747242,1.238344 -2.879205,1.498082 -1.134507,0.26033 -2.6093,-0.122781 -3.825041,-0.99346 -0.728353,-0.521658 -1.268559,-1.23694 -3.84578,-5.092094 -3.223391,-4.821722 -4.107213,-5.858423 -5.548258,-6.507952 -0.847886,-0.382162 -0.922078,-0.385968 -1.707195,-0.08749 -1.645135,0.625424 -2.344112,1.432381 -5.976649,6.899902 -3.124034,4.70216 -3.527132,5.116551 -5.530284,5.685306 -1.110703,0.315353 -1.142418,0.316437 -2.129033,0.07249 z M 18.55442,19.841091 C 16.57958,19.320697 15.403725,18.097259 12.713785,13.764112 11.783409,12.265392 10.70149,10.628299 10.30952,10.126137 8.5477738,7.8690954 6.9172136,6.7914887 5.652866,7.0486497 4.3913034,7.3052493 2.8164014,8.7235772 1.0038246,11.235508 L 0,12.62665 V 8.5740097 4.5213668 L 0.7548514,3.5470914 C 2.6982945,1.0386944 4.196368,0.1158662 6.3227293,0.11719903 c 2.7637674,0.001684 4.1670037,1.31487737 7.7830497,7.28340067 2.882024,4.7569793 3.719581,5.5235723 5.836229,5.3417413 1.655258,-0.14219 2.40187,-0.798318 4.203822,-3.6943199 0.807622,-1.297973 2.173311,-3.4116299 3.034869,-4.6970117 1.356446,-2.0237169 1.714932,-2.4453644 2.67378,-3.1448387 2.148774,-1.56751127 4.093863,-1.60598974 6.191578,-0.1224928 1.312805,0.9284147 2.371374,2.3206556 4.777283,6.2831053 2.780737,4.5797728 3.642489,5.4150978 5.586433,5.4150978 1.760114,0 2.924558,-1.023605 4.841582,-4.2559984 2.233477,-3.7659941 4.12787,-6.4193094 5.14515,-7.2064042 3.058379,-2.3663135 6.251467,-1.47280067 9.07956,2.5407031 L 66.0953,4.7389768 V 8.6828101 12.626645 L 65.091464,11.235503 C 63.245745,8.6776335 61.66231,7.2679318 60.382208,7.0429564 59.438265,6.8770581 58.155752,7.50968 57.005162,8.7087369 c -0.511674,0.5332373 -1.682246,2.1248751 -2.601265,3.5369681 -4.321243,6.639763 -4.655398,7.005375 -6.950869,7.605337 -0.82821,0.216471 -1.147199,0.212606 -2.085847,-0.02525 C 43.332393,19.310147 42.933507,18.902779 39.696284,14.034257 38.11886,11.661936 36.540066,9.4028415 36.187857,9.0140487 34.74002,7.4158334 33.484187,6.8103192 32.401582,7.1884576 c -1.614401,0.5638859 -2.45707,1.527192 -6.067764,6.9363744 -2.965984,4.443354 -3.41738,4.9501 -4.888702,5.488097 -1.211577,0.443027 -1.876224,0.495489 -2.890696,0.228167 z"
     id="path147"
     inkscape:connector-curvature="0" />
  <path
     style="opacity:1;vector-effect:none;fill:#cca438;fill-opacity:1;stroke:#ddc480;stroke-width:1;stroke-linecap:butt;stroke-linejoin:miter;stroke-miterlimit:4;stroke-dasharray:none;stroke-dashoffset:0;stroke-opacity:0"
     d="M 18.547072,39.962341 C 17.078749,39.43224 15.738519,37.969478 12.964741,33.869645 9.599276,28.895254 7.95792,27.330506 6.1288895,27.352845 4.5218799,27.372472 3.7019796,27.940796 1.5945877,30.495853 l -1.48819417,1.804326 v -3.775112 c 0,-3.716501 0.0337072,-3.805565 2.17105397,-5.736529 2.4338279,-2.198817 4.8462488,-2.575641 6.9692807,-1.088612 0.685357,0.480043 2.7170548,3.166375 4.5148838,5.969628 3.37207,5.257876 4.483016,6.097901 7.17201,5.423006 0.885979,-0.222366 2.438509,-2.050559 4.860428,-5.72343 3.744749,-5.678959 4.706252,-6.542009 7.288289,-6.542009 2.223289,0 4.168454,1.717153 7.008242,6.186734 3.229103,5.08233 4.396948,6.287842 6.091369,6.287842 2.107452,0 3.431735,-1.185948 5.916614,-5.298564 3.278322,-5.425809 5.158056,-7.176012 7.707095,-7.176012 1.679913,0 2.448461,0.380393 4.003438,1.981506 1.805332,1.858887 1.924415,2.200556 1.924415,5.521354 v 3.53985 l -1.940567,-2.267117 c -3.42964,-4.006761 -5.482543,-3.177023 -10.590169,4.280311 -3.606398,5.265482 -4.387912,5.927147 -7.000752,5.927147 -2.065148,0 -3.49304,-1.380188 -7.470709,-7.221122 -4.771334,-7.006377 -6.509297,-6.992491 -11.451317,0.09149 -4.569556,6.550086 -6.439898,8.109638 -8.732926,7.281797 z"
     id="path149"
     inkscape:connector-curvature="0" />
</svg>
