<?xml version="1.0" encoding="UTF-8" standalone="no"?>
<!-- Created with Inkscape (http://www.inkscape.org/) -->

<svg
   xmlns:dc="http://purl.org/dc/elements/1.1/"
   xmlns:cc="http://creativecommons.org/ns#"
   xmlns:rdf="http://www.w3.org/1999/02/22-rdf-syntax-ns#"
   xmlns:svg="http://www.w3.org/2000/svg"
   xmlns="http://www.w3.org/2000/svg"
   xmlns:sodipodi="http://sodipodi.sourceforge.net/DTD/sodipodi-0.dtd"
   xmlns:inkscape="http://www.inkscape.org/namespaces/inkscape"
   version="1.1"
   id="svg846"
   width="55"
   height="47"
   viewBox="0 0 55 47"
   sodipodi:docname="drawing3.svg"
   inkscape:version="0.92.4 (5da689c313, 2019-01-14)">
  <metadata
     id="metadata852">
    <rdf:RDF>
      <cc:Work
         rdf:about="">
        <dc:format>image/svg+xml</dc:format>
        <dc:type
           rdf:resource="http://purl.org/dc/dcmitype/StillImage" />
        <dc:title></dc:title>
      </cc:Work>
    </rdf:RDF>
  </metadata>
  <defs
     id="defs850" />
  <sodipodi:namedview
     pagecolor="#ffffff"
     bordercolor="#666666"
     borderopacity="1"
     objecttolerance="10"
     gridtolerance="10"
     guidetolerance="10"
     inkscape:pageopacity="0"
     inkscape:pageshadow="2"
     inkscape:window-width="1360"
     inkscape:window-height="705"
     id="namedview848"
     showgrid="false"
     inkscape:zoom="5.0212766"
     inkscape:cx="24.014831"
     inkscape:cy="23.5"
     inkscape:window-x="-8"
     inkscape:window-y="-8"
     inkscape:window-maximized="1"
     inkscape:current-layer="svg846" />
  <g
     id="g1418"
     transform="translate(4.0762712e-7,-0.19915291)">
    <path
       style="fill:#e6e6e6;fill-opacity:1"
       d="M 22,45 C 21.285022,43.664051 19.906177,43 17.847169,43 15.532997,43 13.814639,41.985423 10.952941,38.929412 5.6938258,33.313196 5.5083463,33.125315 2.5886364,30.456818 -1.8170943,26.430158 -0.13391621,16 4.921621,16 6.0685524,16 7.6220664,14.266224 9.1695601,11.25915 10.605886,8.4680978 13.370163,5.28071 15.890785,3.5091505 19.695301,0.83523576 20.978512,0.5 27.409171,0.5 c 6.23515,0 7.816871,0.38381518 11.426884,2.7728086 2.484991,1.644489 5.303735,4.7922796 6.926971,7.7355924 1.59702,2.895776 3.442235,4.968784 4.43027,4.977191 4.91985,0.04186 6.533292,10.37873 2.283335,14.628686 C 47.853091,35.237818 46.564007,33.704721 46,22.911673 45.55033,14.30662 45.209708,12.962943 42.616088,9.562901 37.265815,2.549094 26.807702,0.01596216 19.210162,3.8935903 11.558238,7.798975 9,12.962076 9,24.5 9,36.62593 11.605162,41 18.82727,41 c 1.707511,0 3.202172,-0.634342 3.534356,-1.5 0.797216,-2.077509 8.970762,-2.024755 11.066945,0.07143 1.952181,1.95218 1.953555,2.437997 0.01472,5.206065 C 31.302152,47.834405 23.597108,47.984223 22,45 Z M 32.269359,43.75 C 33.145843,41.237292 31.721363,40 27.952028,40 c -4.037059,0 -5.498339,1.133952 -4.572026,3.547887 0.701299,1.827556 8.262402,1.999469 8.889357,0.202113 z M 7,24.5 C 7,18.789122 6.7701821,18 5.1069888,18 2.891622,18 2,19.868297 2,24.510359 2,27.695052 4.0734369,31 6.0714286,31 6.5821429,31 7,28.075 7,24.5 Z m 44.428571,4.928571 C 53.28078,27.576363 53.522404,20.922404 51.8,19.2 49.039309,16.439309 48,17.888871 48,24.5 c 0,6.673611 0.69068,7.666463 3.428571,4.928571 z"
       id="path1422"
       inkscape:connector-curvature="0" />
    <path
       style="fill:#aaaaaa;fill-opacity:1"
       d="M 23,45 C 21.9,43.9 19.9875,42.998318 18.75,42.996262 15.143396,42.99027 10.000206,39.244742 8.4264044,35.478103 7.6271199,33.565147 6.3363418,32 5.5580086,32 2.7377943,32 1,28.949906 1,24 1,18.821044 2.7501125,16 5.9630205,16 7.0753848,16 8.0296423,15.018032 8.4169717,13.474789 9.5220915,9.0716405 15.68868,3.2641373 21.204191,1.4321785 25.559543,-0.01443708 27.061436,-0.08072064 31.743366,0.96704943 38.138297,2.3981721 44.269102,7.3367416 46.167248,12.58597 46.890622,14.586425 48.082524,16 49.045901,16 52.062664,16 54,19.374331 54,24.628741 54,30.098453 52.787551,32 49.3,32 47.123819,32 47,31.631193 47,25.149223 47,14.15106 44.072013,8.0948496 36.770838,3.9913601 31.543203,1.053265 23.693184,0.9282092 18.336364,3.6976871 15.993076,4.9091676 13.332429,7.5628943 11.5,10.516268 c -2.7981214,4.509807 -3,5.491931 -3,14.594777 0,9.426216 0.099921,9.863859 2.925161,12.811823 3.908189,4.077957 9.16262,5.110669 11.200394,2.201339 C 25.421994,36.131732 34,37.92343 34,42.5 34,46.975722 26.646885,48.646885 23,45 Z m 8.55887,-0.441431 C 34.607833,42.294491 32.305395,39.5 27.391014,39.5 c -3.340325,0 -3.938779,0.337815 -4.228506,2.38691 -0.558335,3.948819 4.506269,5.560338 8.396362,2.671659 z M 7,24 C 7,16.885316 6.0162292,15.383771 3.2,18.2 1.6441924,19.755808 1.6441924,28.244192 3.2,29.8 6.0162292,32.616229 7,31.114684 7,24 Z m 44.8,5.8 c 0.66,-0.66 1.2,-3.344167 1.2,-5.964816 0,-3.687379 -0.437382,-4.998896 -1.934259,-5.8 C 50.001899,17.465833 48.876899,17 48.565741,17 48.254584,17 48,20.15 48,24 c 0,7.114684 0.983771,8.616229 3.8,5.8 z"
       id="path1420"
       inkscape:connector-curvature="0" />
  </g>
  <path
     style="opacity:1;fill:#cca438;fill-opacity:1;stroke:#d4aa00;stroke-width:1"
     d="m 25.608051,46.321143 c -1.003058,-0.362235 -1.726225,-0.824412 -2.863812,-1.830264 -1.0805,-0.955376 -2.552641,-1.571385 -4.336217,-1.814465 -0.8383,-0.114252 -1.981273,-0.387897 -2.53994,-0.608102 -3.011955,-1.187202 -5.850758,-3.863129 -7.5644868,-7.130478 -1.134891,-2.16375 -2.1014136,-3.232749 -2.9228537,-3.232749 -1.4485105,0 -2.869224,-1.303241 -3.6106879,-3.312136 C 1.3769397,27.327859 1.2424741,26.514008 1.1627037,24.716971 0.91836084,19.212513 2.4232041,16.258205 5.6577701,15.892255 7.1733207,15.72079 7.8579723,15.041965 8.5902361,12.984746 10.049004,8.8864874 14.667472,4.2573885 19.517333,2.0324963 c 2.99301,-1.37305493 4.439715,-1.6948334 7.584362,-1.68692637 2.355124,0.005922 3.105125,0.0889925 4.829214,0.53488844 6.494233,1.67958323 11.895798,6.07884183 14.197443,11.56298363 0.35774,0.852389 0.99849,1.945207 1.423887,2.428485 0.641885,0.729219 0.933151,0.901917 1.7123,1.015257 1.235588,0.179737 1.816681,0.492854 2.672344,1.43997 0.816004,0.903219 1.43554,2.421412 1.76861,4.334043 0.265526,1.524765 0.139511,5.952524 -0.2015,7.080026 -0.587845,1.943613 -2.012751,2.963862 -4.139412,2.963862 -2.151817,0 -2.161538,-0.02944 -2.334542,-7.069916 C 46.848657,17.253699 45.937624,13.47976 43.419388,9.6780872 41.216247,6.3521054 37.532457,3.6468867 33.474576,2.3750458 28.612669,0.85120278 22.582623,1.2815552 18.41494,3.4498223 16.184109,4.6104284 13.67985,7.0145672 11.847673,9.7545318 10.128286,12.325823 9.6083437,13.340581 9.0536505,15.207559 8.6518134,16.560056 8.6128435,17.20041 8.531185,23.792704 c -0.093973,7.586412 0.044322,9.657716 0.751569,11.256562 0.6462494,1.460955 3.913355,4.556222 5.770212,5.46672 1.786973,0.876231 3.311985,1.23451 4.603558,1.081543 1.298812,-0.153825 2.032199,-0.573816 3.207983,-1.83712 1.413414,-1.518624 2.605342,-1.945701 5.133374,-1.839327 2.145821,0.09029 3.431215,0.544885 4.555039,1.610941 0.713797,0.677106 1.408648,1.968758 1.414053,2.62857 0.01223,1.491852 -1.029892,2.991112 -2.665147,3.834268 -1.306594,0.673695 -4.262687,0.843095 -5.693775,0.326282 z m 3.656399,-0.756589 c 0.512359,-0.154198 1.389457,-0.574188 1.949106,-0.933314 2.392606,-1.535331 2.325972,-3.466686 -0.16175,-4.688222 -1.108838,-0.544467 -1.287939,-0.57056 -3.916434,-0.57056 h -2.754459 l -0.567248,0.634609 c -0.62567,0.699968 -0.92413,2.006585 -0.695806,3.046138 0.185338,0.843841 1.208189,1.974378 2.189754,2.420295 0.965291,0.438522 2.671809,0.477793 3.956837,0.09105 z M 6.3463547,30.083194 C 7.0359644,28.672792 7.3150655,23.258219 6.8778795,19.771592 6.4749202,16.557931 5.549769,15.857254 3.7712825,17.418767 c -1.0056811,0.882989 -1.4200304,1.935517 -1.6873216,4.286124 -0.2742372,2.411691 0.011118,5.778887 0.6031593,7.117295 0.4888055,1.105026 1.8415207,2.130026 2.7000434,2.04592 0.4706767,-0.04611 0.6828502,-0.219735 0.9591911,-0.784912 z m 44.7840783,0.170533 c 1.036386,-0.790477 1.445981,-1.771305 1.778116,-4.257913 0.258322,-1.934003 0.138604,-5.137955 -0.233158,-6.239882 -0.12934,-0.383368 -0.505274,-0.983853 -0.835413,-1.334409 -0.731605,-0.776854 -3.04434,-1.818433 -3.352789,-1.509984 -0.354054,0.354054 -0.618478,4.566015 -0.50989,8.121936 0.101002,3.307541 0.3684,4.897658 0.939279,5.585523 0.400866,0.483015 1.295126,0.335467 2.213855,-0.365271 z"
     id="path1424"
     inkscape:connector-curvature="0" />
</svg>
