<?xml version="1.0" encoding="UTF-8" standalone="no"?>
<!-- Created with Inkscape (http://www.inkscape.org/) -->

<svg
   xmlns:dc="http://purl.org/dc/elements/1.1/"
   xmlns:cc="http://creativecommons.org/ns#"
   xmlns:rdf="http://www.w3.org/1999/02/22-rdf-syntax-ns#"
   xmlns:svg="http://www.w3.org/2000/svg"
   xmlns="http://www.w3.org/2000/svg"
   xmlns:sodipodi="http://sodipodi.sourceforge.net/DTD/sodipodi-0.dtd"
   xmlns:inkscape="http://www.inkscape.org/namespaces/inkscape"
   version="1.1"
   id="svg2"
   width="53"
   height="46"
   viewBox="0 0 53 46"
   sodipodi:docname="drawing4.svg"
   inkscape:version="0.92.4 (5da689c313, 2019-01-14)">
  <metadata
     id="metadata8">
    <rdf:RDF>
      <cc:Work
         rdf:about="">
        <dc:format>image/svg+xml</dc:format>
        <dc:type
           rdf:resource="http://purl.org/dc/dcmitype/StillImage" />
        <dc:title></dc:title>
      </cc:Work>
    </rdf:RDF>
  </metadata>
  <defs
     id="defs6" />
  <sodipodi:namedview
     pagecolor="#ffffff"
     bordercolor="#666666"
     borderopacity="1"
     objecttolerance="10"
     gridtolerance="10"
     guidetolerance="10"
     inkscape:pageopacity="0"
     inkscape:pageshadow="2"
     inkscape:window-width="1360"
     inkscape:window-height="705"
     id="namedview4"
     showgrid="false"
     inkscape:zoom="5.1304348"
     inkscape:cx="-5.9912454"
     inkscape:cy="27.440406"
     inkscape:window-x="-8"
     inkscape:window-y="-8"
     inkscape:window-maximized="1"
     inkscape:current-layer="svg2" />
  <g
     id="g100"
     transform="translate(0.19491571,0.19491525)">
    <path
       style="opacity:1;vector-effect:none;fill:#cca438;fill-opacity:1;stroke:#ddc480;stroke-width:1;stroke-linecap:butt;stroke-linejoin:miter;stroke-miterlimit:4;stroke-dasharray:none;stroke-dashoffset:0;stroke-opacity:0"
       d="M 9.6899844,45.356651 C 8.6064442,44.273111 8.8836949,41 10.059017,41 c 0.582459,0 0.831225,-0.368575 0.552813,-0.819056 -0.278413,-0.450481 0.877359,-0.615992 2.568382,-0.367802 2.301997,0.337861 2.958618,0.103931 2.61308,-0.930944 -0.2804,-0.839789 -1.605777,-1.285029 -3.3774,-1.134586 C 9.3364714,38.00911 5.9844714,36.071465 5.6457362,33.83408 5.534649,33.100336 5.0530061,31.873831 4.5754187,31.108513 c -0.4775875,-0.765319 -0.9980859,-3.465319 -1.1566633,-6 -0.2814032,-4.497917 -0.2574692,-4.539536 0.9973297,-1.734233 1.1820074,2.642567 1.3294245,2.706895 1.8286253,0.797948 0.2986354,-1.141983 0.028245,-2.257165 -0.6008685,-2.478181 -0.7453129,-0.261839 -0.4939506,-1.134294 0.7214499,-2.504084 1.6330647,-1.84051 2.0465796,-1.920949 3.3214286,-0.6461 1.9329086,1.932909 3.6813436,1.857679 2.9202686,-0.12565 C 12.273145,17.548229 12,15.271672 12,13.359196 c 0,-2.100716 -0.402322,-3.228581 -1.016312,-2.849115 -0.558971,0.345464 -0.732668,1.087061 -0.385993,1.647993 0.346676,0.560933 -0.9899712,2.548183 -2.9703263,4.416111 l -3.6006455,3.396233 -1.603408,-2.44711 C 1.5414409,16.177398 0.58318443,13.311298 0.29385646,11.154196 -0.34577775,6.3853674 2.3939849,3 6.8930112,3 8.542086,3 10.03352,2.3550303 10.361626,1.5 10.839155,0.25557989 13.588918,0 26.5,0 39.411082,0 42.160845,0.25557989 42.638374,1.5 42.96648,2.3550303 44.457914,3 46.106989,3 49.675596,3 53,6.1503506 53,9.5321186 c 0,3.4117144 -2.574579,9.3643244 -4.935992,11.4123674 -1.222571,1.060331 -1.623784,2.149777 -1.10239,2.99341 0.613802,0.993154 0.995746,0.771798 1.520365,-0.881129 0.385346,-1.214118 0.945112,-1.963005 1.243925,-1.664192 C 50.434985,22.101651 47.990081,28 46.987088,28 c -0.42365,0 -1.041953,-1.082462 -1.374007,-2.40547 -0.548269,-2.184478 -0.994615,-2.356635 -4.858408,-1.873904 -5.179889,0.647161 -10.360101,4.844952 -8.598374,6.967703 0.845642,1.018936 0.712451,1.799219 -0.544132,3.187728 -1.554006,1.717157 -1.545299,1.984953 0.131872,4.056172 l 1.795728,2.21763 2.596205,-2.042174 c 1.427912,-1.123197 2.829436,-1.808944 3.114496,-1.523884 0.285061,0.285061 0.996912,-0.854679 1.581892,-2.532754 1.277962,-3.665964 2.464011,-4.080064 1.578284,-0.551047 -0.727694,2.899362 0.167846,3.125943 3.61685,0.915102 2.086022,-1.337159 2.023796,-1.17213 -0.398086,1.055763 -1.874157,1.72404 -3.75302,2.534525 -5.412748,2.334898 -1.511139,-0.181755 -2.733253,0.262757 -3.013337,1.096023 -0.365829,1.088359 0.240652,1.259419 2.712459,0.765058 1.987255,-0.397451 2.954885,-0.266595 2.574912,0.348214 C 42.155893,40.556776 42.389822,41 43.010534,41 c 0.620712,0 0.98477,1.0125 0.809017,2.25 -0.314871,2.217051 -0.562056,2.254002 -16.879567,2.523318 -9.108008,0.150325 -16.870508,-0.03718 -17.2499996,-0.416667 z M 18.26375,44.296069 c -1.229938,-0.237362 -3.479938,-0.243505 -5,-0.01365 -1.520063,0.229854 -0.51375,0.424059 2.23625,0.431567 2.75,0.0075 3.993687,-0.180555 2.76375,-0.417917 z M 29.25,44.294267 c -1.2375,-0.238353 -3.2625,-0.238353 -4.5,0 -1.2375,0.238353 -0.225,0.433369 2.25,0.433369 2.475,0 3.4875,-0.195016 2.25,-0.433369 z m 11.01375,0.0018 c -1.229938,-0.237362 -3.479938,-0.243505 -5,-0.01365 -1.520063,0.229854 -0.51375,0.424059 2.23625,0.431567 2.75,0.0075 3.993687,-0.180555 2.76375,-0.417917 z M 27.729167,42.395833 c -0.332292,-0.332291 -1.194792,-0.367818 -1.916667,-0.07895 -0.797733,0.319226 -0.560776,0.556183 0.604167,0.604167 1.054166,0.04342 1.644791,-0.192928 1.3125,-0.52522 z m 15,0 c -0.332292,-0.332291 -1.194792,-0.367818 -1.916667,-0.07895 -0.797733,0.319226 -0.560776,0.556183 0.604167,0.604167 1.054166,0.04342 1.644791,-0.192928 1.3125,-0.52522 z M 21.387833,33.876057 c -1.256583,-1.388509 -1.389774,-2.168792 -0.544132,-3.187728 1.761727,-2.122751 -3.418485,-6.320542 -8.598374,-6.967703 -3.8879999,-0.485755 -4.3079947,-0.319119 -4.8733782,1.933548 -0.3889862,1.549845 -1.1298291,2.268978 -1.9953266,1.936855 -1.9939235,-0.76514 -1.6885248,0.816728 0.5485356,2.84124 1.8540066,1.677853 1.9408656,1.637382 2.3501679,-1.095013 0.3609521,-2.409622 0.447593,-2.276782 0.5748422,0.881359 C 8.9682177,33.148439 8.6818205,33.815133 7.5,33.361626 4.8226577,32.334234 5.9157934,33.905095 8.981345,35.490353 l 2.981345,1.541714 -1.009323,-2.654722 c -0.555128,-1.460097 -0.773762,-2.890283 -0.485854,-3.178191 0.287908,-0.287908 1.027527,0.922473 1.643598,2.689735 0.616071,1.767262 1.35336,2.979973 1.638421,2.694912 0.28506,-0.28506 1.686584,0.400687 3.114496,1.523884 l 2.596205,2.042174 1.795728,-2.21763 c 1.677171,-2.071219 1.685878,-2.339015 0.131872,-4.056172 z M 29.818046,37.5 C 29.110328,35.946727 27.853814,35 26.5,35 25.146186,35 23.889672,35.946727 23.181954,37.5 22.059686,39.963109 22.108649,40 26.5,40 c 4.391351,0 4.440314,-0.03689 3.318046,-2.5 z M 29.26375,33.296069 c -1.229938,-0.237362 -3.479938,-0.243505 -5,-0.01365 -1.520063,0.229854 -0.51375,0.424059 2.23625,0.431567 2.75,0.0075 3.993687,-0.180555 2.76375,-0.417917 z M 31,31.25 c 0,-0.4125 -2.025,-0.75 -4.5,-0.75 -2.475,0 -4.5,0.3375 -4.5,0.75 0,0.4125 2.025,0.75 4.5,0.75 2.475,0 4.5,-0.3375 4.5,-0.75 z m 2.733702,-6.5 C 38.116895,20.261315 40.304333,15.956653 39.399843,13.599591 38.891891,12.27589 39.848619,7.7857796 41.498538,3.75 42.161842,2.1275255 41.07667,2 26.606989,2 18.023145,2 11,2.3950442 11,2.877876 c 0,0.4828319 0.709605,2.5762006 1.576901,4.6519306 0.867295,2.0757299 1.346794,4.6539804 1.065554,5.7294454 C 12.852809,16.278863 14.720334,20.094627 19.266298,24.75 22.375377,27.933906 24.18992,29 26.5,29 c 2.31008,0 4.124623,-1.066094 7.233702,-4.25 z M 34.5,11.5 c 0,-2.475 0.3375,-4.5 0.75,-4.5 0.81084,0 0.95,0.6591768 0.95,4.5 0,3.840823 -0.13916,4.5 -0.95,4.5 -0.4125,0 -0.75,-2.025 -0.75,-4.5 z M 14.45,22.105353 C 13.278638,21.002242 7,19.609493 7,20.452769 c 0,0.839196 4.069886,2.406477 6.45,2.483845 1.186608,0.03857 1.578091,-0.286853 1,-0.831261 z M 45.46875,20.875897 C 46.206756,20.098278 45.504749,19.991389 43,20.5 c -1.925,0.390888 -3.95,1.172804 -4.5,1.73759 -0.681866,0.700197 0.103526,0.819783 2.46875,0.375897 1.907812,-0.358043 3.932812,-1.139958 4.5,-1.73759 z m -2.175893,-2.311611 c 1.111222,-1.111222 1.720069,-1.167725 2.693836,-0.25 1.005129,0.947282 1.038005,0.756926 0.163494,-0.946637 -0.602045,-1.172793 -1.828817,-2.414086 -2.726161,-2.758429 -0.918432,-0.352436 -1.386737,-1.264009 -1.071454,-2.085624 0.308044,-0.80275 0.129733,-1.725515 -0.396246,-2.050588 C 41.417925,10.140258 41,11.401553 41,13.359196 c 0,1.912476 -0.273145,4.189033 -0.606989,5.059017 -0.757538,1.974113 0.984076,2.061842 2.899846,0.146073 z M 3.717863,11.75 3.5,6.5 7.25,6.6140626 C 9.3125,6.6767971 11,6.3478705 11,5.8831146 11,4.5062404 5.8238588,3.6220173 4.0952233,4.7035944 2.3541516,5.7929527 1.506459,10.89744 2.4453733,14.638373 3.4214719,18.527459 3.9493857,17.329169 3.717863,11.75 Z m 46.836764,2.888373 C 51.493541,10.89744 50.645848,5.7929527 48.904777,4.7035944 47.128378,3.5921327 42,4.5224654 42,5.9561815 c 0,0.5049425 1.567026,0.6637841 3.482279,0.3529812 4.282916,-0.6950215 5.332864,1.184894 3.822383,6.8439193 C 48.739922,15.268887 48.656769,17 49.119879,17 c 0.463109,0 1.108746,-1.062732 1.434748,-2.361627 z M 7.5351635,11 C 7.86495,11 7.8145404,12.008971 7.4231421,13.242158 6.8205678,15.140701 6.9380539,15.2963 8.1897637,14.257473 10.092355,12.678463 9.8158525,8.9172077 7.6990239,7.5819465 5.1543944,5.9768354 3.6530079,8.1441347 4.5337202,12.151163 5.2206333,15.276453 5.3253659,15.349804 6.1026594,13.25 6.5607501,12.0125 7.2053769,11 7.5351635,11 Z m 40.9865445,0.901163 c 0.839279,-3.8212096 -0.749506,-5.877681 -3.299232,-4.2704182 -1.919261,1.2098391 -2.512649,5.0718842 -0.929598,6.0502632 0.635394,0.392696 0.803141,-0.20583 0.44332,-1.581787 -0.485791,-1.857667 -0.343035,-2.017814 0.887985,-0.996158 0.806759,0.669551 1.235479,1.820268 0.952711,2.557151 C 46.294125,14.397096 46.462892,15 46.95193,15 c 0.489037,0 1.195438,-1.394476 1.569778,-3.098837 z M 43.907329,30.25 c 0.354753,-2.630512 0.614101,-3.078307 0.868751,-1.5 0.453047,2.80797 1.365867,2.853607 3.052661,0.152621 0.720409,-1.153558 1.583349,-1.823864 1.917645,-1.489569 C 50.357651,28.024318 45.156965,34 44.01371,34 43.67705,34 43.629179,32.3125 43.907329,30.25 Z"
       id="path104"
       inkscape:connector-curvature="0" />
    <path
       style="fill:#8c8c8c;fill-opacity:1"
       d="m 9.0789474,43.416667 c 0.047984,-1.164943 0.2849403,-1.4019 0.6041666,-0.604167 0.2888706,0.721875 0.2533443,1.584375 -0.078947,1.916667 -0.3322917,0.332291 -0.5686404,-0.258334 -0.5252196,-1.3125 z M 21,44 C 21,43.45 20.325,43 19.5,43 18.675,43 18,42.55 18,42 18,41.45 16.3125,40.927983 14.25,40.839963 l -3.75,-0.160037 3.31579,-0.408228 c 2.934238,-0.361253 3.166363,-0.601748 2.017233,-2.089963 -1.206674,-1.562739 -1.158261,-1.567142 0.68421,-0.06222 1.090522,0.890732 2.616551,1.814493 3.391176,2.052803 C 21.191241,40.566973 22.646959,45 21.493725,45 21.222176,45 21,44.55 21,44 Z m 22.078947,-0.583333 c 0.04798,-1.164943 0.284941,-1.4019 0.604167,-0.604167 0.288871,0.721875 0.253344,1.584375 -0.07895,1.916667 -0.332292,0.332291 -0.568641,-0.258334 -0.52522,-1.3125 z M 23,42 c 0,-0.55 0.476558,-1 1.059017,-1 0.582459,0 0.780902,0.45 0.440983,1 -0.339919,0.55 -0.816476,1 -1.059017,1 C 23.198442,43 23,42.55 23,42 Z m 5.5,0 C 28.160081,41.45 28.358524,41 28.940983,41 29.523442,41 30,41.45 30,42 30,42.55 29.801558,43 29.559017,43 29.316476,43 28.839919,42.55 28.5,42 Z m 4.166667,0.333333 C 31.607973,41.274639 31.891425,40 33.185549,40 c 0.652052,0 2.336332,-1.0125 3.742846,-2.25 2.47537,-2.177918 2.498532,-2.180167 0.722976,-0.07018 -1.822292,2.165525 -1.812409,2.182509 1.507154,2.589963 L 42.5,40.679926 39.25,40.839963 C 37.4625,40.927983 36,41.45 36,42 c 0,1.124722 -2.310859,1.355808 -3.333333,0.333333 z M 7.860784,35.940649 5.5,33.881299 8.2060239,35.526845 c 1.4883132,0.905051 3.1758131,1.355201 3.7500001,1.000334 C 12.530211,36.172312 13,36.358524 13,36.940983 13,38.661104 10.399073,38.154841 7.860784,35.940649 Z M 40,36.940983 c 0,-0.582459 0.45,-0.780902 1,-0.440983 0.55,0.339919 1,0.816476 1,1.059017 C 42,37.801558 41.55,38 41,38 40.45,38 40,37.523442 40,36.940983 Z m 3,-0.405799 c 0,-0.255649 1.0125,-1.004323 2.25,-1.66372 2.040222,-1.087124 2.122041,-1.043787 0.877555,0.464816 C 44.84973,36.885299 43,37.594367 43,36.535184 Z M 5.4370912,30.753634 C 2.8122567,27.852405 2.78362,27.756405 5.167734,29.850663 l 2.667734,2.343395 0.4460839,-2.347029 C 8.626701,28.03106 8.7584496,28.235374 8.8638179,30.75 8.9387181,32.5375 8.859191,34 8.6870912,34 c -0.1720998,0 -1.6345998,-1.460865 -3.25,-3.246366 z m 15.0358358,2.202561 c -0.354809,-0.574093 -0.09426,-1.707533 0.578995,-2.518757 0.985598,-1.187573 0.856242,-1.909689 -0.66391,-3.706196 L 18.5,24.5 l 2.285267,1.936904 c 1.431798,1.213537 2.04088,2.520666 1.630891,3.5 -0.359907,0.859703 -0.675778,2.125596 -0.701934,2.813096 -0.05797,1.523638 -0.392707,1.579243 -1.241297,0.206195 z m 10.801749,-0.08434 c 0.312969,-0.89548 0.04491,-2.24548 -0.595678,-3 -0.640592,-0.75452 -0.287212,-0.587569 0.785288,0.371002 1.628562,1.455565 1.726753,1.950085 0.595678,3 -1.104943,1.025659 -1.249542,0.957344 -0.785288,-0.371002 z M 44.136182,30.25 c 0.122701,-2.477768 0.18015,-2.519119 0.580334,-0.417714 0.435241,2.285496 0.48768,2.295527 2.613818,0.5 L 49.5,28.5 47.595012,30.75 c -2.535899,2.995176 -3.624124,2.837865 -3.45883,-0.5 z M 4.1360041,25.399151 C 3.4700172,23.937469 3.1258794,22.540787 3.3712533,22.295413 3.6166272,22.050039 4.132671,22.842649 4.5180173,24.056767 5.0655131,25.781774 5.4099716,25.96217 6.0940107,24.882128 6.5754608,24.121958 6.9693745,23.95 6.9693745,24.5 c 0,0.55 -0.3650592,1.57527 -0.8112426,2.278378 C 5.5731231,27.70025 5.0092062,27.315621 4.1360041,25.399151 Z M 31,27.622445 c 0,-0.207656 0.7875,-0.995156 1.75,-1.75 C 34.336056,24.628574 34.371426,24.663944 33.127555,26.25 31.821186,27.915748 31,28.445479 31,27.622445 Z M 45.325668,24.475124 C 43.847587,22.792569 43.585848,22 44.50828,22 c 0.74632,0 1.667291,0.977815 2.046603,2.172922 l 0.689659,2.172923 1.342294,-2.422923 c 0.738261,-1.332607 1.358239,-1.94643 1.377729,-1.364052 0.01949,0.582379 -0.527065,1.808685 -1.214565,2.725125 -1.141473,1.521587 -1.438779,1.45136 -3.424332,-0.808871 z M 4.3374927,20.168804 C 3.225391,18.388046 3.4373939,18.044992 7.513043,15.030261 8.8966102,14.006845 8.7487695,14.402434 7.026205,16.332931 5.093124,18.499356 4.843239,19.285082 5.8829677,19.92767 6.6147745,20.379952 6.8055504,21.002142 6.3069141,21.310317 5.8082779,21.618491 4.9220382,21.10481 4.3374927,20.168804 Z M 11.75,20.337719 c 0.6875,-0.277412 1.8125,-0.277412 2.5,0 0.6875,0.277413 0.125,0.504386 -1.25,0.504386 -1.375,0 -1.9375,-0.226973 -1.25,-0.504386 z m 27,0 c 0.6875,-0.277412 1.8125,-0.277412 2.5,0 0.6875,0.277413 0.125,0.504386 -1.25,0.504386 -1.375,0 -1.9375,-0.226973 -1.25,-0.504386 z m 8.03387,-0.182981 C 47.520891,19.687085 47.800164,18.522279 47.439537,17.42005 46.92219,15.838817 47.004444,15.764694 47.905668,17 c 0.97274,1.333333 1.203742,1.333333 2.079019,0 0.541578,-0.825 0.991578,-1.007244 1,-0.404988 0.018,1.286838 -3.230688,4.411827 -4.563428,4.389675 -0.506692,-0.0084 -0.343518,-0.381899 0.362611,-0.829949 z M 1.3450766,15.456872 C 1.019392,14.608151 0.97636359,13.690303 1.2494579,13.417209 c 0.2730943,-0.273095 0.7365578,0.421313 1.029919,1.543128 0.62315,2.382929 -0.069223,2.750891 -0.9343003,0.496535 z M 43.872445,14.25 C 42.628574,12.663944 42.663944,12.628574 44.25,13.872445 45.915748,15.178814 46.445479,16 45.622445,16 c -0.207656,0 -0.995156,-0.7875 -1.75,-1.75 z M 3.1578947,10 c 0,-1.375 0.2269737,-1.9375 0.504386,-1.25 0.2774123,0.6875 0.2774123,1.8125 0,2.5 -0.2774123,0.6875 -0.504386,0.125 -0.504386,-1.25 z m 46.0000003,0 c 0,-1.375 0.226973,-1.9375 0.504386,-1.25 0.277412,0.6875 0.277412,1.8125 0,2.5 -0.277413,0.6875 -0.504386,0.125 -0.504386,-1.25 z M 40.979944,9.475834 c -0.69572,-0.8382913 -1.012279,-1.7768321 -0.703465,-2.0856463 0.308814,-0.3088143 1.063772,0.3770604 1.677684,1.5241659 1.309846,2.4474694 0.823595,2.7277144 -0.974219,0.5614804 z M 11.5,8 C 11.839919,7.45 12.316476,7 12.559017,7 12.801558,7 13,7.45 13,8 13,8.55 12.523442,9 11.940983,9 11.358524,9 11.160081,8.55 11.5,8 Z M 6.5,7 C 4.8695921,6.2993897 4.812487,6.1275821 6.190983,6.0702853 7.1210237,6.0316284 8.1600813,6.45 8.5,7 9.2106644,8.1498792 9.1759129,8.1498792 6.5,7 Z M 44.76845,6.8315504 c 0.581102,-0.5811027 1.646819,-0.859794 2.36826,-0.6193139 0.748946,0.2496487 0.295653,0.7029411 -1.056551,1.0565504 C 44.416814,7.7037615 44.026382,7.5736176 44.76845,6.8315504 Z M 1,6.0984436 C 1,5.060003 2.9022132,3.5567159 3.4656719,4.1498645 3.6486072,4.342439 3.1686682,5.080242 2.3991408,5.7894266 1.6296133,6.4986112 1,6.6376688 1,6.0984436 Z M 50.210573,5.3991408 C 49.501389,4.6296133 49.362331,4 49.901556,4 50.939997,4 52.443284,5.9022132 51.850136,6.4656719 51.657561,6.6486072 50.919758,6.1686682 50.210573,5.3991408 Z M 41.5,3.5 C 41.5,2.2300407 41.8375,1.3995695 42.25,1.6545085 42.6625,1.9094475 43,2.7399187 43,3.5 43,4.2600813 42.6625,5.0905525 42.25,5.3454915 41.8375,5.6004305 41.5,4.7699593 41.5,3.5 Z"
       id="path102"
       inkscape:connector-curvature="0" />
  </g>
  <path
     style="fill:#000000"
     d=""
     id="path84"
     inkscape:connector-curvature="0" />
  <path
     style="fill:#000000"
     d=""
     id="path82"
     inkscape:connector-curvature="0" />
  <path
     style="opacity:1;vector-effect:none;fill:#cca438;fill-opacity:1;stroke:#ddc480;stroke-width:1;stroke-linecap:butt;stroke-linejoin:miter;stroke-miterlimit:4;stroke-dasharray:none;stroke-dashoffset:0;stroke-opacity:0"
     d="m 14.707627,45.835871 c -2.251271,-0.06621 -4.290572,-0.185079 -4.531779,-0.264145 -0.4651373,-0.15247 -0.5839073,-0.589398 -0.2211583,-0.81359 0.3178623,-0.196449 0.08376,-1.862793 -0.301248,-2.144321 -0.261989,-0.191571 -0.278736,-0.319682 -0.09461,-0.723791 0.349506,-0.767083 1.5112123,-0.997784 4.1928183,-0.83265 2.729603,0.168091 4.121757,0.535732 4.355366,1.150169 0.237519,0.624723 0.649861,0.910167 1.504831,1.041715 1.112157,0.171118 1.400287,0.383703 1.541694,1.137467 0.151685,0.808552 0.380512,0.997569 0.793114,0.65514 0.225634,-0.187259 0.271067,-0.451446 0.17887,-1.040086 C 21.9447,42.847283 20.960279,40.85918 20.381749,40.480113 l -0.501314,-0.328475 1.128974,-1.393192 c 2.049259,-2.528856 2.103034,-2.689607 1.296713,-3.876217 -0.402812,-0.592788 -0.470303,-0.870913 -0.377557,-1.555839 0.233472,-1.724158 0.244839,-1.747186 0.726652,-1.471786 0.614221,0.351083 7.46886,0.34891 8.084192,-0.0026 1.122041,-0.640903 0.104937,-1.024533 -3.069915,-1.157908 -1.367286,-0.05744 -3.031024,-0.0091 -3.791402,0.110213 -0.745229,0.116912 -1.374601,0.192927 -1.398605,0.168923 -0.02401,-0.024 0.05542,-0.414795 0.176502,-0.868423 0.193373,-0.724477 0.16821,-0.931682 -0.206912,-1.703797 -0.234883,-0.483468 -0.388739,-0.879025 -0.341907,-0.879025 0.04683,0 0.462327,0.248378 0.923315,0.551953 1.35838,0.894532 2.084091,1.105629 3.76189,1.094264 1.312152,-0.0089 1.729251,-0.09738 2.631356,-0.558237 0.589619,-0.301222 1.214383,-0.67275 1.388364,-0.825621 0.278639,-0.244825 0.329177,-0.228826 0.424126,0.134262 0.09176,0.350883 0.168299,0.379824 0.514512,0.194537 0.560607,-0.300029 2.60718,-2.812251 2.358513,-2.895139 -0.110739,-0.03691 0.355155,-0.705193 1.03532,-1.485067 3.392325,-3.889623 5.097706,-7.437372 4.602206,-9.574088 -0.26018,-1.121965 -0.227955,-2.111168 0.132812,-4.076766 0.314786,-1.7150785 0.327159,-1.7398665 0.633872,-1.2698782 0.17205,0.2636398 0.543858,0.7404731 0.826242,1.0596297 0.473137,0.5347495 0.490816,0.6147885 0.225306,1.0200085 -0.193003,0.29456 -0.344259,1.336558 -0.458177,3.156359 -0.09353,1.494149 -0.312467,3.342751 -0.48652,4.108004 -0.382027,1.679639 -0.304121,1.958999 0.54631,1.958999 0.697496,0 1.142281,-0.25283 2.464641,-1.400983 1.035978,-0.899499 1.491612,-0.926111 2.475063,-0.144563 0.414228,0.329187 0.784725,0.503773 0.823326,0.387968 0.0386,-0.115804 -0.242736,-0.779842 -0.625195,-1.47564 -0.513543,-0.934277 -0.61989,-1.265087 -0.406694,-1.265087 0.519277,0 0.303683,-0.630838 -0.46574,-1.362773 -0.639658,-0.608493 -0.708044,-0.746925 -0.449531,-0.90999 0.271066,-0.170985 0.27559,-0.347628 0.04076,-1.592163 -0.145272,-0.769912 -0.205203,-1.458768 -0.133182,-1.53079 0.174641,-0.174638 1.257744,0.869495 1.618421,1.560188 0.208062,0.398437 0.250885,0.841046 0.155353,1.605664 -0.112963,0.904128 -0.08235,1.07461 0.21336,1.188084 0.877419,0.336697 2.038055,-2.422719 2.038055,-4.845481 0,-1.5388141 -0.356164,-2.5008033 -1.066673,-2.8810569 -0.394441,-0.2110983 -0.429769,-0.304448 -0.234827,-0.6204959 0.264463,-0.4287541 0.966542,-0.3419999 1.572047,0.1942543 0.41975,0.3717455 0.901812,1.4123423 0.893017,1.927706 -0.0055,0.3231716 -0.02067,0.3219789 -0.217687,-0.017125 -0.170983,-0.2943011 -0.244334,-0.3130678 -0.380919,-0.097458 -0.251286,0.3966769 -0.210555,2.5900755 0.05299,2.8536225 0.174216,0.174215 0.141019,0.609463 -0.140481,1.841949 -0.202729,0.887607 -0.371165,2.05239 -0.374306,2.588407 -0.005,0.846535 0.04551,0.974577 0.384126,0.974577 0.627017,0 1.42223,-1.825583 1.686301,-3.871269 C 51.620041,9.1077278 50.361469,5.0827806 48.370642,4.5298626 47.045201,4.1617435 44.899782,4.3624653 43.227409,5.0110551 42.936529,5.1238657 42.923018,5.0622631 43.107092,4.4624973 43.372607,3.597365 43.172512,2.5331051 42.656549,2.0661644 42.261953,1.7090585 42.246941,1.7090782 41.985187,2.0670415 41.83793,2.268427 41.692307,2.5086216 41.661579,2.6008078 41.630849,2.6929938 41.298767,2.6654788 40.923616,2.5396628 39.947098,2.2121676 21.291387,2.0808243 16.461865,2.367447 c -3.443019,0.2043363 -5.040932,0.4059229 -5.304162,0.6691527 -0.05941,0.059413 0.20202,1.005253 0.580961,2.101867 l 0.688984,1.9938439 -0.484136,0.6347345 c -0.266274,0.3491042 -0.454078,0.7923956 -0.417341,0.9850924 0.07849,0.4116896 0.846007,0.573498 1.225679,0.2583976 0.314169,-0.260737 0.376056,-0.1763358 0.710572,0.9690784 0.159371,0.5457025 0.258894,1.9818405 0.263395,3.8008475 l 0.0072,2.923729 0.720782,1.50945 c 0.903461,1.892012 1.594444,2.916933 3.417394,5.06894 0.794599,0.93803 1.346505,1.705508 1.226458,1.705508 -0.120046,0 0.321155,0.635911 0.980445,1.413136 1.574814,1.856511 1.868912,2.463661 1.600052,3.303209 -0.166659,0.520406 -0.209996,0.558267 -0.22608,0.1975 -0.08785,-1.970579 -3.668711,-4.757304 -7.3095,-5.688461 -2.004645,-0.512703 -4.6204013,-0.709466 -5.3598403,-0.403181 -0.602795,0.249687 -1.009261,0.922833 -1.363576,2.258207 -0.115,0.433421 -0.397517,0.99029 -0.627817,1.237487 -0.371246,0.398487 -0.534552,0.434979 -1.440182,0.321829 -0.87155,-0.108893 -1.044383,-0.07596 -1.177687,0.224377 -0.18532,0.417537 -0.43841,-1.014513 -0.454508,-2.57173 l -0.01008,-0.974576 0.642061,1.364407 c 1.045914,2.222611 1.567176,2.362612 2.370678,0.636729 0.547891,-1.176843 0.62019,-1.903678 0.18936,-1.903678 -0.215234,0 -0.292373,-0.22448 -0.292373,-0.850833 0,-0.553421 -0.135184,-1.022691 -0.386732,-1.342484 -0.385209,-0.489713 -0.385213,-0.492048 -9.75e-4,-0.592527 0.62833,-0.164312 0.713592,-0.732985 0.177289,-1.182459 l -0.471785,-0.395396 1.089657,-1.034253 c 0.599311,-0.568838 1.266729,-1.034252 1.483151,-1.034252 0.216422,0 0.778619,0.334388 1.249326,0.743085 1.3223593,1.148153 1.7671453,1.400983 2.4646413,1.400983 0.850431,0 0.928336,-0.27936 0.546311,-1.958999 -0.174053,-0.765253 -0.392104,-2.59975 -0.484558,-4.076661 -0.09245,-1.476911 -0.26803,-2.872018 -0.39017,-3.10024 -0.519683,-0.971037 -1.474825,-0.01801 -1.269408,1.266596 0.105913,0.662345 0.02335,0.901541 -0.6644813,1.925099 -0.811083,1.206967 -3.837089,4.344862 -4.016716,4.165235 -0.05577,-0.05577 0.557238,-0.883807 1.362251,-1.840072 0.805012,-0.956265 1.372997,-1.768884 1.26219,-1.80582 -0.110808,-0.03694 0.01573,-0.325278 0.281187,-0.640759 C 10.044537,12.6297 9.9800437,9.8135825 8.7221067,8.47457 L 8.3048887,8.030461 h 0.423807 c 0.504003,0 0.516535,-0.067109 0.124315,-0.665713 C 8.5539497,6.9083242 8.5550417,6.9074757 9.6108737,6.7755582 10.863921,6.6190003 11.37272,6.3116352 11.185681,5.8242195 10.908415,5.1016761 8.5604727,4.3259009 6.6577387,4.3281582 c -1.309944,0.00156 -2.224029,0.3040359 -2.829928,0.9364581 -1.106851,1.155304 -1.831295,4.5437082 -1.59137,7.4432377 l 0.137045,1.656206 -0.407379,-0.486714 c -0.341255,-0.407713 -0.437959,-0.440145 -0.595769,-0.199805 -0.165864,0.252604 -0.200146,0.252604 -0.28671,0 C 0.45126571,11.83222 0.34794071,9.2808817 0.83790971,7.6101836 1.1085667,6.687299 1.2224467,6.5237096 1.5369827,6.6059626 2.0753167,6.74674 3.7721767,5.0335524 3.6306077,4.4921921 3.4914497,3.9600528 4.4120037,3.589775 6.4821737,3.3451965 8.9646547,3.0519058 9.6741297,2.8050784 10.379264,1.9893939 c 0.838853,-0.9703668 1.143671,-1.10494031 3.172453,-1.40059735 2.469069,-0.35982061 23.817248,-0.35982061 26.286318,0 2.028781,0.29565704 2.333599,0.43023055 3.172452,1.40059735 0.691489,0.7999006 1.365876,1.0408967 3.794246,1.355896 1.950544,0.2530175 2.760746,0.6455961 3.064181,1.4847285 0.265841,0.7351697 1.480246,1.8360358 2.025399,1.8360358 0.59469,0 1.178195,1.6100156 1.165587,3.2161013 -0.01768,2.2519665 -1.33483,6.5296615 -2.01056,6.5296615 -0.195032,0 -0.601503,0.348079 -0.903265,0.77351 -0.805988,1.1363 -1.011826,1.143444 -1.979089,0.0687 l -0.845689,-0.939663 0.127325,0.682203 c 0.07003,0.375212 0.176764,0.965818 0.237192,1.312458 0.142881,0.819616 -0.210072,1.644268 -0.932287,2.178223 -0.558,0.412548 -0.608968,0.797455 -0.105596,0.797455 0.133983,0 0.742789,-0.300593 1.352903,-0.667983 0.610112,-0.367392 1.109296,-0.620322 1.109296,-0.562069 0,0.05825 -0.482415,0.62698 -1.072034,1.263838 -0.911504,0.984533 -1.072034,1.269777 -1.072034,1.904884 0,0.83818 0.570459,1.722105 0.957157,1.483112 0.132347,-0.08179 0.536266,-0.797445 0.897596,-1.590335 0.361332,-0.792888 0.743569,-1.441617 0.849416,-1.441617 0.374258,0 0.321134,0.874076 -0.07262,1.194877 -0.214512,0.174767 -0.77617,1.043538 -1.24813,1.930603 l -0.858111,1.612844 -0.530006,-1.501579 c -0.291505,-0.825867 -0.738617,-1.725873 -0.993586,-2.000012 -1.03206,-1.109656 -2.232115,-0.961228 -1.628899,0.201473 0.158511,0.305529 0.2875,0.56741 0.286641,0.581956 -7.8e-4,0.01454 -0.770654,0.03521 -1.71066,0.04592 -2.3231,0.02646 -4.415133,0.529119 -6.437632,1.546782 -2.956362,1.487554 -4.69553,3.414176 -4.449664,4.929266 l 0.110583,0.681447 -0.635576,-0.616024 c -0.8745,-0.847598 -0.981815,-0.772866 -0.416617,0.290126 0.532089,1.00072 0.585172,1.539963 0.265092,2.692879 -0.146553,0.527875 -0.150574,0.794079 -0.01269,0.84004 0.111679,0.03723 -0.0097,0.378979 -0.271663,0.765034 -0.796221,1.1733 -0.730883,1.365296 1.329993,3.908186 0.908336,1.120786 1.068281,1.413135 0.773127,1.413135 -0.477225,0 -1.017305,0.595215 -1.017305,1.121157 0,1.033212 1.735369,2.146668 2.911852,1.868315 0.603508,-0.142789 1.181368,-0.616312 1.181368,-0.968066 0,-0.515555 1.251557,-0.90913 3.536872,-1.112239 2.823413,-0.250932 3.721351,-0.05643 4.046577,0.876514 0.31557,0.905241 0.283984,1.30879 -0.06529,0.8342 -0.348031,-0.472897 -0.465711,-0.219156 -0.544178,1.173363 -0.05437,0.964947 -0.05633,0.967507 -0.931607,1.221906 -1.705593,0.495724 -18.833377,0.886463 -27.580509,0.629196 z m 4.174435,-1.089582 c 0.266065,-0.234935 -0.454338,-0.372064 -2.265622,-0.431263 -2.19673,-0.0718 -3.760508,0.07898 -3.760508,0.362587 0,0.282469 5.71031,0.347543 6.02613,0.06868 z m 11.109192,0.01049 c 0.234335,-0.234335 -0.372456,-0.365067 -2.031183,-0.437612 -1.967957,-0.08608 -3.604139,0.07585 -3.604139,0.356675 0,0.09476 0.416632,0.210296 0.925848,0.256744 1.003334,0.09152 4.575495,-0.04184 4.709474,-0.175815 z m 10.916233,-0.01148 c 0.406071,-0.353594 -3.205446,-0.614357 -5.147732,-0.371686 -2.573031,0.32148 -0.287455,0.680607 3.312279,0.520453 0.964831,-0.04293 1.790784,-0.109871 1.835453,-0.148767 z M 24.642583,42.292793 c 0.409365,-0.693001 0.269228,-1.126692 -0.364069,-1.126692 -0.630709,0 -1.092073,0.483484 -1.092073,1.144432 0,1.141443 0.776987,1.13198 1.456142,-0.01774 z m 5.560807,0.03285 c 0,-0.674755 -0.456581,-1.159547 -1.092073,-1.159547 -0.637199,0 -0.785093,0.464737 -0.357139,1.122268 0.744305,1.143589 1.449212,1.161722 1.449212,0.03728 z m -2.241525,0.399775 c 0,-0.366551 -1.45984,-0.508945 -2.039163,-0.198901 -0.743816,0.39808 -0.428835,0.608837 0.820942,0.549305 0.927128,-0.04416 1.218221,-0.127892 1.218221,-0.350404 z m 15.008474,0 c 0,-0.366551 -1.459839,-0.508945 -2.039162,-0.198901 -0.743816,0.39808 -0.428835,0.608837 0.820942,0.549305 0.927128,-0.04416 1.21822,-0.127892 1.21822,-0.350404 z m -12.754135,-2.73567 c 0.475264,-0.254355 0.479889,-0.890324 0.01436,-1.97633 -0.718512,-1.67624 -2.203224,-2.889694 -3.535653,-2.889694 -1.332429,0 -2.817142,1.213454 -3.535662,2.889694 -0.454143,1.059472 -0.46128,1.71145 -0.02154,1.967574 0.453648,0.264225 6.586966,0.271811 7.078492,0.0088 z m -0.425619,-6.212107 c 0.487658,-0.308855 -0.546008,-0.477476 -2.900754,-0.473198 -2.290547,0.0042 -3.211176,0.147463 -3.012513,0.468908 0.141809,0.229452 5.551557,0.233378 5.913267,0.0043 z M 14.700152,22.971094 c 0.199998,-0.146243 0.297106,-0.363603 0.218944,-0.490074 -0.157859,-0.255421 -1.515283,-0.982152 -2.258079,-1.208919 -0.367658,-0.112242 -0.224102,-0.15361 0.584746,-0.168502 1.310259,-0.02413 1.802885,-0.259532 1.208638,-0.577563 -0.606137,-0.324396 -2.295159,-0.270993 -2.649936,0.08378 -0.269593,0.269593 -0.455163,0.268143 -1.8498833,-0.01446 -1.792313,-0.363169 -2.624646,-0.323702 -2.710301,0.128511 -0.140493,0.741734 4.2271333,2.442859 6.4027873,2.493793 0.381523,0.0089 0.855411,-0.102023 1.053084,-0.246566 z M 41.76237,22.722957 c 2.396141,-0.539777 4.48077,-1.653063 4.136974,-2.209335 -0.173515,-0.280752 -0.843924,-0.255055 -2.552395,0.09784 -1.31577,0.271781 -1.488163,0.271781 -1.759943,0 -0.356377,-0.356377 -2.043723,-0.410739 -2.651576,-0.08543 -0.596511,0.319242 -0.0982,0.554844 1.208638,0.571439 l 1.072034,0.0136 -0.974576,0.393536 c -0.952128,0.384468 -1.851695,1.051686 -1.851695,1.373419 0,0.267518 1.8804,0.181047 3.372539,-0.155086 z"
     id="path106"
     inkscape:connector-curvature="0" />
  <path
     style="opacity:1;vector-effect:none;fill:#cca438;fill-opacity:1;stroke:#ddc480;stroke-width:1;stroke-linecap:butt;stroke-linejoin:miter;stroke-miterlimit:4;stroke-dasharray:none;stroke-dashoffset:0;stroke-opacity:0"
     d="M 3.1830807,18.418486 C 2.6761347,17.602981 2.6042277,17.33297 2.7023797,16.613463 l 0.115417,-0.846069 0.260145,0.722808 c 0.321873,0.894317 0.669343,0.815883 0.849709,-0.191804 0.169442,-0.946648 0.156531,-6.122204 -0.01998,-8.008583 l -0.130762,-1.3974733 0.995786,-0.064391 c 0.547682,-0.035415 1.209,0.043956 1.469595,0.1763794 l 0.473809,0.2407707 -0.451373,0.00287 c -1.868329,0.011894 -2.318082,2.6117267 -1.189091,6.8736362 0.106494,0.402013 0.301807,0.730932 0.434029,0.730932 0.132221,0 0.612148,-0.789407 1.066503,-1.754237 0.454354,-0.964831 0.912919,-1.754237 1.019033,-1.754237 0.291104,0 0.235545,0.917377 -0.146532,2.419492 -0.270454,1.063275 -0.290239,1.365106 -0.09381,1.43114 0.139461,0.04688 -0.289116,0.494308 -0.974576,1.017439 -1.566585,1.19559 -2.277739,1.956262 -2.457576,2.628694 l -0.14351,0.536606 z"
     id="path108"
     inkscape:connector-curvature="0" />
  <path
     style="opacity:1;vector-effect:none;fill:#cca438;fill-opacity:1;stroke:#ddc480;stroke-width:1;stroke-linecap:butt;stroke-linejoin:miter;stroke-miterlimit:4;stroke-dasharray:none;stroke-dashoffset:0;stroke-opacity:0"
     d="M 43.518796,14.667328 C 42.571131,14.089496 42.460908,13.738257 42.681429,11.998962 42.864179,10.557576 42.847702,10.419439 42.378688,9.4608084 42.105883,8.9032151 41.581211,8.1823099 41.21275,7.8587971 L 40.542822,7.2705922 41.068321,5.7799167 c 0.467584,-1.3263896 0.540787,-1.4335114 0.664217,-0.9719872 0.0763,0.2852787 0.231756,0.6307909 0.345467,0.767805 0.113712,0.1370142 0.151155,0.3047106 0.08321,0.3726587 -0.06795,0.067948 -0.01259,0.2572296 0.123015,0.4206253 0.178128,0.2146317 0.62699,0.2970832 1.617307,0.2970832 h 1.37075 l -0.371311,0.4146039 c -0.343978,0.3840834 -0.347231,0.429993 -0.04419,0.6236614 0.295102,0.1885924 0.27176,0.2721151 -0.238451,0.8532136 -0.988142,1.1254309 -1.376312,3.2441274 -0.847054,4.6233524 0.08765,0.228415 0.03572,0.279442 -0.194494,0.191101 -0.334164,-0.12823 -0.441574,0.209211 -0.128235,0.402865 0.297886,0.184104 1.026011,1.272631 0.850738,1.27183 -0.0877,-4.1e-4 -0.438925,-0.171131 -0.780494,-0.379401 z"
     id="path110"
     inkscape:connector-curvature="0" />
  <path
     style="opacity:1;vector-effect:none;fill:#cca438;fill-opacity:1;stroke:#ddc480;stroke-width:1;stroke-linecap:butt;stroke-linejoin:miter;stroke-miterlimit:4;stroke-dasharray:none;stroke-dashoffset:0;stroke-opacity:0"
     d="m 35.102636,15.291101 c -0.448824,-1.787046 -0.395738,-6.4610535 0.08769,-7.7208506 0.184601,-0.4810622 0.650775,-0.383784 0.865344,0.1805742 0.256539,0.6747491 0.24657,7.4116444 -0.01168,7.8941924 -0.322301,0.602225 -0.740725,0.444912 -0.941354,-0.353916 z"
     id="path112"
     inkscape:connector-curvature="0" />
  <path
     style="opacity:1;vector-effect:none;fill:#cca438;fill-opacity:1;stroke:#ddc480;stroke-width:1;stroke-linecap:butt;stroke-linejoin:miter;stroke-miterlimit:4;stroke-dasharray:none;stroke-dashoffset:0;stroke-opacity:0"
     d="m 37.615883,38.291101 c 0.01516,-0.387968 1.201318,-1.413135 1.635046,-1.413135 0.620438,0 1.121195,-0.713597 1.866024,-2.659148 0.655136,-1.711265 1.260479,-2.798479 1.558149,-2.798479 0.275982,0 0.250133,0.438327 -0.135607,2.299472 -0.377241,1.820141 -0.27223,2.217642 0.628347,2.378494 0.475554,0.08494 0.506759,0.129675 0.242922,0.348268 -0.16661,0.138039 -0.258769,0.418893 -0.204966,0.624636 0.07187,0.274812 -0.02769,0.40531 -0.375875,0.492699 -0.359563,0.09024 -0.630088,-0.02728 -1.12326,-0.487969 -0.855333,-0.799001 -1.465878,-0.73928 -1.463253,0.143129 0.0017,0.563868 -0.05791,0.633474 -0.542277,0.633474 -0.299289,0 -0.859048,0.131568 -1.243909,0.292373 -0.804535,0.336156 -0.849068,0.343894 -0.841341,0.146186 z"
     id="path114"
     inkscape:connector-curvature="0" />
  <path
     style="opacity:1;vector-effect:none;fill:#cca438;fill-opacity:1;stroke:#ddc480;stroke-width:1;stroke-linecap:butt;stroke-linejoin:miter;stroke-miterlimit:4;stroke-dasharray:none;stroke-dashoffset:0;stroke-opacity:0"
     d="m 21.51604,45.110311 c -0.14344,-0.10047 -0.26014,-0.420596 -0.3076,-0.843797 -0.05061,-0.451311 -0.195092,-0.649463 -0.639213,-0.876672 -0.262631,-0.13436 -0.39398,-0.166959 -0.824081,-0.204527 -0.970371,-0.08476 -1.438451,-0.377108 -1.533079,-0.957515 -0.02023,-0.124069 -0.08287,-0.248961 -0.16352,-0.326007 -0.335478,-0.320488 -1.393628,-0.647957 -2.546623,-0.78811 -0.359713,-0.04373 -1.542107,-0.116849 -2.627541,-0.162496 l -1.973517,-0.083 1.876059,-0.23449 c 2.848527,-0.35604 3.445895,-0.476992 3.747551,-0.758781 0.299149,-0.279447 0.179949,-0.610928 -0.58855,-1.636682 -0.605307,-0.807932 -0.696436,-0.94385 -0.658358,-0.981928 0.03592,-0.03592 0.306957,0.162948 1.202747,0.882476 1.24424,0.999414 2.609161,1.861031 3.453104,2.179796 0.512606,0.193616 0.767058,0.431204 1.139306,1.063795 0.363052,0.616966 0.643168,1.265309 0.829576,1.920099 0.128549,0.451551 0.153923,0.625652 0.155536,1.067207 l 0.0019,0.527632 -0.159138,0.14239 c -0.180401,0.161415 -0.239458,0.172257 -0.384586,0.07061 z"
     id="path116"
     inkscape:connector-curvature="0" />
  <path
     style="opacity:1;vector-effect:none;fill:#cca438;fill-opacity:1;stroke:#ddc480;stroke-width:1;stroke-linecap:butt;stroke-linejoin:miter;stroke-miterlimit:4;stroke-dasharray:none;stroke-dashoffset:0;stroke-opacity:0"
     d="m 23.406183,43.010701 c -0.05398,-0.06863 -0.123773,-0.248192 -0.155086,-0.399024 -0.161529,-0.778083 0.275522,-1.383578 0.998678,-1.383578 0.318487,0 0.472151,0.0796 0.559159,0.289658 0.121146,0.292471 -0.176378,0.877915 -0.692121,1.361901 -0.325129,0.305108 -0.54222,0.345141 -0.71063,0.131043 z"
     id="path118"
     inkscape:connector-curvature="0" />
  <path
     style="opacity:1;vector-effect:none;fill:#cca438;fill-opacity:1;stroke:#ddc480;stroke-width:1;stroke-linecap:butt;stroke-linejoin:miter;stroke-miterlimit:4;stroke-dasharray:none;stroke-dashoffset:0;stroke-opacity:0"
     d="m 29.515273,43.059127 c -0.212756,-0.110253 -0.438898,-0.342775 -0.688832,-0.708267 -0.331475,-0.484733 -0.35387,-0.894083 -0.05731,-1.047443 0.344132,-0.177957 0.936285,-0.03681 1.171071,0.279136 0.241361,0.324798 0.292956,0.699557 0.158598,1.15199 -0.118809,0.400072 -0.27269,0.485667 -0.583531,0.324584 z"
     id="path120"
     inkscape:connector-curvature="0" />
  <path
     style="opacity:1;vector-effect:none;fill:#cca438;fill-opacity:1;stroke:#ddc480;stroke-width:1;stroke-linecap:butt;stroke-linejoin:miter;stroke-miterlimit:4;stroke-dasharray:none;stroke-dashoffset:0;stroke-opacity:0"
     d="m 34.221356,43.131816 c -0.726714,-0.0952 -1.532779,-0.662161 -1.830679,-1.287646 -0.201444,-0.422962 -0.202969,-0.852725 -0.004,-1.139834 0.245698,-0.354616 0.398652,-0.424897 1.16348,-0.534615 0.233899,-0.03355 0.463368,-0.115027 0.779661,-0.27682 1.010474,-0.516887 1.799747,-1.07998 3.17942,-2.268298 1.269842,-1.09372 1.435337,-1.229705 1.462952,-1.20209 0.02471,0.02471 -0.435692,0.619257 -0.87777,1.133522 -1.264191,1.470619 -1.602152,2.01294 -1.423925,2.28495 0.187169,0.285655 0.651887,0.382965 3.520514,0.737181 1.203793,0.148643 2.210641,0.278774 2.237442,0.289179 0.0268,0.01041 -0.06091,0.02073 -0.194915,0.02294 -0.802445,0.01325 -3.252832,0.161382 -3.716283,0.224665 -0.695317,0.09494 -1.299747,0.265629 -1.76428,0.498219 -0.40503,0.202796 -0.586174,0.41078 -0.586174,0.673027 0,0.19633 -0.159957,0.396623 -0.475231,0.595071 -0.392457,0.247029 -0.872511,0.32884 -1.470169,0.250548 z"
     id="path122"
     inkscape:connector-curvature="0" />
  <path
     style="opacity:1;vector-effect:none;fill:#cca438;fill-opacity:1;stroke:#ddc480;stroke-width:1;stroke-linecap:butt;stroke-linejoin:miter;stroke-miterlimit:4;stroke-dasharray:none;stroke-dashoffset:0;stroke-opacity:0"
     d="m 31.30362,34.062179 c -0.08529,-0.08529 -0.07452,-0.169789 0.08961,-0.703003 0.20447,-0.664251 0.251131,-1.04226 0.189414,-1.534465 -0.07309,-0.582898 -0.265958,-1.1185 -0.566107,-1.572097 -0.414276,-0.62607 -0.3482,-0.653239 0.277333,-0.114032 0.675685,0.582437 1.348081,1.274163 1.502221,1.545405 0.331576,0.58348 0.22876,0.95572 -0.451591,1.634959 -0.341372,0.340815 -0.893287,0.801707 -0.960036,0.801707 -0.01231,0 -0.04869,-0.02631 -0.08085,-0.05847 z"
     id="path124"
     inkscape:connector-curvature="0" />
  <path
     style="opacity:1;vector-effect:none;fill:#cca438;fill-opacity:1;stroke:#ddc480;stroke-width:1;stroke-linecap:butt;stroke-linejoin:miter;stroke-miterlimit:4;stroke-dasharray:none;stroke-dashoffset:0;stroke-opacity:0"
     d="m 21.386143,34.029989 c -0.159485,-0.10597 -0.509054,-0.559054 -0.695638,-0.901633 -0.339302,-0.622977 -0.110365,-1.604982 0.586601,-2.516177 1.003744,-1.31227 0.850624,-1.880491 -1.140758,-4.233298 -0.822754,-0.972079 -1.00799,-1.210827 -0.967714,-1.247272 0.04219,-0.03817 2.304182,1.954417 2.572308,2.265948 0.492803,0.572577 0.758629,1.035452 0.908652,1.582206 0.11866,0.432456 0.08718,0.721116 -0.154097,1.413136 -0.29623,0.849622 -0.495409,1.647586 -0.55914,2.240065 -0.109757,1.020363 -0.134823,1.186009 -0.20006,1.322123 -0.08317,0.173531 -0.172846,0.192714 -0.350154,0.0749 z"
     id="path126"
     inkscape:connector-curvature="0" />
  <path
     style="opacity:1;vector-effect:none;fill:#cca438;fill-opacity:1;stroke:#ddc480;stroke-width:1;stroke-linecap:butt;stroke-linejoin:miter;stroke-miterlimit:4;stroke-dasharray:none;stroke-dashoffset:0;stroke-opacity:0"
     d="m 11.729256,38.111667 c -0.857224,-0.124948 -2.1148923,-0.748123 -3.1476013,-1.55964 -0.405271,-0.318467 -2.571467,-2.209466 -2.552919,-2.228592 0.0088,-0.0091 0.675025,0.381101 1.480499,0.867054 1.456487,0.878718 2.194636,1.248269 2.9051643,1.454458 0.892239,0.258918 1.331326,0.273273 1.785587,0.05837 0.568017,-0.268716 0.90844,-0.151387 0.9546,0.329011 0.03315,0.345043 -0.01738,0.56653 -0.170893,0.748967 -0.242289,0.287945 -0.706589,0.410223 -1.254437,0.33037 z"
     id="path128"
     inkscape:connector-curvature="0" />
  <path
     style="opacity:1;vector-effect:none;fill:#cca438;fill-opacity:1;stroke:#ddc480;stroke-width:1;stroke-linecap:butt;stroke-linejoin:miter;stroke-miterlimit:4;stroke-dasharray:none;stroke-dashoffset:0;stroke-opacity:0"
     d="m 10.92523,40.723176 c 0,-0.06579 -0.03662,-0.211134 -0.08137,-0.322986 -0.07946,-0.198592 -0.07888,-0.205389 0.02492,-0.289442 0.264001,-0.213774 1.23394,-0.250489 2.419795,-0.0916 1.103199,0.147818 1.935021,0.176146 2.274489,0.07746 0.347203,-0.100934 0.527418,-0.295348 0.527418,-0.568971 0,-0.22991 -0.157912,-0.658726 -0.30583,-0.830497 -0.416737,-0.483939 -1.270761,-0.77107 -2.318035,-0.779344 l -0.535191,-0.0042 0.114407,-0.168588 c 0.150368,-0.221579 0.20446,-0.642913 0.113659,-0.885308 -0.04805,-0.128281 -0.121501,-0.207165 -0.252982,-0.271709 -0.182705,-0.08969 -0.189435,-0.0895 -0.486348,0.01392 -0.165593,0.05768 -0.33079,0.109568 -0.367104,0.115314 -0.06728,0.01065 -0.703876,-1.585987 -1.054698,-2.645272 -0.311245,-0.939784 -0.494149,-1.919124 -0.434148,-2.324604 0.139938,-0.945684 0.879213,0.0687 1.747414,2.397697 0.463744,1.244015 0.898592,2.114758 1.22377,2.450486 0.200925,0.207443 0.278144,0.258226 0.346917,0.228149 0.283413,-0.123943 0.552165,-0.08119 1.13549,0.180653 0.226091,0.101486 0.296912,0.15374 0.248726,0.18352 -0.03705,0.0229 -0.05554,0.07247 -0.04108,0.110149 0.01446,0.03768 0.257619,0.378244 0.540353,0.756804 0.835214,1.118288 0.958402,1.362897 0.834626,1.657275 -0.158703,0.377442 -0.776674,0.52188 -3.799145,0.887973 -0.884428,0.107125 -1.668353,0.205571 -1.742055,0.21877 -0.116311,0.02083 -0.134005,0.0082 -0.134005,-0.09562 z"
     id="path130"
     inkscape:connector-curvature="0" />
  <path
     style="opacity:1;vector-effect:none;fill:#cca438;fill-opacity:1;stroke:#ddc480;stroke-width:1;stroke-linecap:butt;stroke-linejoin:miter;stroke-miterlimit:4;stroke-dasharray:none;stroke-dashoffset:0;stroke-opacity:0"
     d="m 9.6706127,37.555788 c -1.739707,-0.57842 -3.197533,-1.751235 -3.650224,-2.93659 -0.04376,-0.11459 -0.06653,-0.221377 -0.05061,-0.237306 0.01593,-0.01593 0.52892,0.407829 1.13998,0.941685 1.594194,1.392776 1.862865,1.598785 2.767018,2.121659 0.2675793,0.154742 0.4430033,0.280273 0.3898303,0.278958 -0.05317,-0.0013 -0.3213723,-0.0771 -0.5959983,-0.168406 z"
     id="path132"
     inkscape:connector-curvature="0" />
  <path
     style="opacity:1;vector-effect:none;fill:#cca438;fill-opacity:1;stroke:#ddc480;stroke-width:1;stroke-linecap:butt;stroke-linejoin:miter;stroke-miterlimit:4;stroke-dasharray:none;stroke-dashoffset:0;stroke-opacity:0"
     d="M 10.657222,36.681927 C 9.7217087,36.438706 9.0744777,36.116518 7.0458027,34.884187 l -1.174978,-0.713748 -0.03081,-0.224808 c -0.06189,-0.451544 -0.440708,-1.462009 -0.846098,-2.256902 -0.395438,-0.775378 -0.686052,-1.570771 -0.76723,-2.099855 l -0.03364,-0.21928 0.283998,0.316033 c 1.247898,1.388663 1.911383,2.108105 2.730678,2.96098 0.691471,0.719812 0.920849,0.986758 0.847885,0.986758 -0.05501,0 -0.274435,-0.06365 -0.487606,-0.14145 -1.41272,-0.515579 -1.819406,-0.274775 -0.928677,0.549883 0.626564,0.580088 1.424972,1.078575 3.245572,2.026376 0.7731943,0.402523 1.3619503,0.73094 1.3083493,0.729816 -0.0536,-0.0011 -0.29481,-0.05335 -0.536017,-0.116063 z"
     id="path134"
     inkscape:connector-curvature="0" />
  <path
     style="opacity:1;vector-effect:none;fill:#cca438;fill-opacity:1;stroke:#ddc480;stroke-width:1;stroke-linecap:butt;stroke-linejoin:miter;stroke-miterlimit:4;stroke-dasharray:none;stroke-dashoffset:0;stroke-opacity:0"
     d="m 8.4525517,33.835738 c -0.9691,-0.855478 -4.810337,-5.020347 -4.716648,-5.114035 0.01193,-0.01193 0.115902,0.05211 0.231041,0.142312 0.195597,0.153238 3.606981,3.123433 3.900044,3.395657 0.07342,0.0682 0.14524,0.11226 0.159594,0.09791 0.01435,-0.01435 0.156682,-0.703487 0.316284,-1.531406 0.297363,-1.542534 0.344181,-1.749598 0.430437,-1.903727 0.04562,-0.08152 0.0537,-0.07844 0.09766,0.03718 0.138577,0.364478 0.247347,3.331575 0.159723,4.357003 -0.05806,0.679451 -0.09006,0.852754 -0.157439,0.852754 -0.02351,0 -0.212817,-0.15014 -0.420694,-0.333644 z"
     id="path136"
     inkscape:connector-curvature="0" />
  <path
     style="opacity:1;vector-effect:none;fill:#cca438;fill-opacity:1;stroke:#ddc480;stroke-width:1;stroke-linecap:butt;stroke-linejoin:miter;stroke-miterlimit:4;stroke-dasharray:none;stroke-dashoffset:0;stroke-opacity:0"
     d="m 9.4361057,44.817215 c -0.169092,-0.404696 -0.198461,-1.296597 -0.06333,-1.923382 0.08778,-0.40717 0.218033,-0.424283 0.406002,-0.05334 0.2404913,0.474585 0.3424293,1.234639 0.2219373,1.654769 -0.1340513,0.467409 -0.4326803,0.637697 -0.5646053,0.321957 z"
     id="path138"
     inkscape:connector-curvature="0" />
  <path
     style="opacity:1;vector-effect:none;fill:#cca438;fill-opacity:1;stroke:#ddc480;stroke-width:1;stroke-linecap:butt;stroke-linejoin:miter;stroke-miterlimit:4;stroke-dasharray:none;stroke-dashoffset:0;stroke-opacity:0"
     d="m 5.5406957,27.38794 c -0.29414,-0.162683 -0.600405,-0.591298 -1.002232,-1.402616 -0.704487,-1.422407 -1.158396,-2.996081 -0.990436,-3.433778 0.01627,-0.04239 0.07325,-0.07708 0.126636,-0.07708 0.253586,0 0.649495,0.700081 1.060949,1.876059 0.387184,1.106614 0.560198,1.388771 0.851572,1.388771 0.213807,0 0.363162,-0.12742 0.637555,-0.543922 0.126351,-0.191788 0.317468,-0.443892 0.424705,-0.56023 0.627412,-0.680662 0.636088,0.406046 0.01375,1.721947 -0.430234,0.909705 -0.772771,1.224275 -1.122497,1.030848 z"
     id="path140"
     inkscape:connector-curvature="0" />
  <path
     style="opacity:1;vector-effect:none;fill:#cca438;fill-opacity:1;stroke:#ddc480;stroke-width:1;stroke-linecap:butt;stroke-linejoin:miter;stroke-miterlimit:4;stroke-dasharray:none;stroke-dashoffset:0;stroke-opacity:0"
     d="m 5.8283697,21.508321 c -0.571576,-0.197579 -1.251272,-0.96063 -1.689098,-1.896244 -0.210125,-0.449026 -0.217892,-0.860762 -0.02251,-1.193146 0.375592,-0.638946 1.129828,-1.329746 2.885795,-2.64308 1.184153,-0.88566 1.471746,-1.079991 1.522777,-1.02896 0.08006,0.08006 -0.424681,0.762351 -1.300761,1.758296 -1.218986,1.385767 -1.756974,2.218415 -1.756974,2.719279 0,0.355496 0.106455,0.521396 0.616959,0.961472 0.520451,0.448651 0.649544,0.624235 0.649808,0.883827 2.19e-4,0.217559 -0.205962,0.449427 -0.44154,0.496542 -0.19775,0.03955 -0.173561,0.04257 -0.46446,-0.05799 z"
     id="path142"
     inkscape:connector-curvature="0" />
  <path
     style="opacity:1;vector-effect:none;fill:#cca438;fill-opacity:1;stroke:#ddc480;stroke-width:1;stroke-linecap:butt;stroke-linejoin:miter;stroke-miterlimit:4;stroke-dasharray:none;stroke-dashoffset:0;stroke-opacity:0"
     d="m 12.173093,20.963983 c -0.280136,-0.05022 -0.51693,-0.141326 -0.51693,-0.198882 0,-0.07179 0.405419,-0.275463 0.682203,-0.342723 0.348747,-0.08475 1.360943,-0.08406 1.705508,0.0012 0.625178,0.154616 0.819335,0.377865 0.426377,0.490264 -0.25341,0.07248 -1.964293,0.109861 -2.297158,0.05018 z"
     id="path144"
     inkscape:connector-curvature="0" />
  <path
     style="opacity:1;vector-effect:none;fill:#cca438;fill-opacity:1;stroke:#ddc480;stroke-width:1;stroke-linecap:butt;stroke-linejoin:miter;stroke-miterlimit:4;stroke-dasharray:none;stroke-dashoffset:0;stroke-opacity:0"
     d="m 31.292668,28.050744 c -0.02614,-0.06875 -0.04752,-0.177248 -0.04752,-0.241114 0,-0.258957 0.868079,-1.095843 2.150574,-2.073295 0.561044,-0.427599 0.724426,-0.531061 0.724426,-0.458744 0,0.151923 -1.035089,1.487596 -1.648901,2.127731 -0.694143,0.723912 -1.070396,0.929959 -1.178577,0.645422 z"
     id="path146"
     inkscape:connector-curvature="0" />
  <path
     style="opacity:1;vector-effect:none;fill:#cca438;fill-opacity:1;stroke:#ddc480;stroke-width:1;stroke-linecap:butt;stroke-linejoin:miter;stroke-miterlimit:4;stroke-dasharray:none;stroke-dashoffset:0;stroke-opacity:0"
     d="m 47.605844,26.484141 c -0.0469,-0.01158 -0.08527,-0.03201 -0.08527,-0.04539 0,-0.06129 1.500396,-2.71616 1.730938,-3.0628 0.636286,-0.956709 1.041173,-1.074012 0.835897,-0.242174 -0.230192,0.932801 -0.909898,2.140984 -1.639996,2.915105 -0.339214,0.359667 -0.600476,0.494793 -0.841563,0.43526 z"
     id="path148"
     inkscape:connector-curvature="0" />
  <path
     style="opacity:1;vector-effect:none;fill:#cca438;fill-opacity:1;stroke:#ddc480;stroke-width:1;stroke-linecap:butt;stroke-linejoin:miter;stroke-miterlimit:4;stroke-dasharray:none;stroke-dashoffset:0;stroke-opacity:0"
     d="M 47.045636,26.203749 C 46.718683,25.957974 46.11686,25.340451 45.470634,24.58766 44.569094,23.537452 44.20701,22.96621 44.20701,22.594104 c 0,-0.276065 0.117294,-0.363281 0.488563,-0.363281 0.377957,0 0.720861,0.181187 1.132861,0.598592 0.450611,0.456523 0.795177,1.169165 1.22757,2.538899 0.176711,0.559783 0.312691,1.026388 0.302179,1.0369 -0.01051,0.01051 -0.151158,-0.08015 -0.312547,-0.201465 z"
     id="path150"
     inkscape:connector-curvature="0" />
  <path
     style="opacity:1;vector-effect:none;fill:#cca438;fill-opacity:1;stroke:#ddc480;stroke-width:1;stroke-linecap:butt;stroke-linejoin:miter;stroke-miterlimit:4;stroke-dasharray:none;stroke-dashoffset:0;stroke-opacity:0"
     d="m 46.405393,21.117448 c -0.165062,-0.111635 0.06155,-0.407346 0.591699,-0.772128 0.738724,-0.508296 0.994841,-1.648337 0.629547,-2.802278 -0.149832,-0.473308 -0.276352,-1.054367 -0.237941,-1.092777 0.02498,-0.02498 0.551534,0.564786 0.919152,1.029498 0.420589,0.531674 0.636422,0.706568 0.87196,0.706568 0.170216,0 0.228726,-0.03163 0.429037,-0.231942 0.127569,-0.127569 0.346467,-0.40166 0.486441,-0.609092 0.32406,-0.480237 0.506663,-0.68731 0.725182,-0.822362 l 0.174443,-0.107812 0.09016,0.111342 c 0.11037,0.136301 0.112765,0.249443 0.01251,0.59117 -0.171969,0.586177 -0.806459,1.461181 -1.658571,2.287278 -0.725487,0.703338 -1.31593,1.148162 -1.951028,1.469851 -0.50366,0.255114 -0.924666,0.349491 -1.082591,0.242684 z"
     id="path152"
     inkscape:connector-curvature="0" />
  <path
     style="opacity:1;vector-effect:none;fill:#cca438;fill-opacity:1;stroke:#ddc480;stroke-width:1;stroke-linecap:butt;stroke-linejoin:miter;stroke-miterlimit:4;stroke-dasharray:none;stroke-dashoffset:0;stroke-opacity:0"
     d="m 45.667535,16.108415 c -0.198658,-0.131965 -0.812283,-0.7451 -1.187866,-1.186914 -0.485823,-0.571496 -1.149778,-1.441032 -1.149778,-1.505786 0,-0.13752 0.232896,-0.01713 0.770132,0.398096 1.416834,1.095066 2.056139,1.764844 2.056139,2.154145 0,0.08982 -0.0355,0.138944 -0.124994,0.172971 -0.170991,0.06501 -0.223954,0.06028 -0.363633,-0.03251 z"
     id="path154"
     inkscape:connector-curvature="0" />
  <path
     style="opacity:1;vector-effect:none;fill:#cca438;fill-opacity:1;stroke:#ddc480;stroke-width:1;stroke-linecap:butt;stroke-linejoin:miter;stroke-miterlimit:4;stroke-dasharray:none;stroke-dashoffset:0;stroke-opacity:0"
     d="m 39.148038,20.961099 c -0.457822,-0.08146 -0.535765,-0.172045 -0.298125,-0.34646 0.213059,-0.156375 0.713472,-0.254449 1.312605,-0.257253 0.617673,-0.0029 1.058497,0.07432 1.346403,0.235813 0.459957,0.258006 0.115982,0.376937 -1.151487,0.398131 -0.522617,0.0087 -1.066845,-0.0049 -1.209396,-0.03023 z"
     id="path156"
     inkscape:connector-curvature="0" />
  <path
     style="opacity:1;vector-effect:none;fill:#cca438;fill-opacity:1;stroke:#ddc480;stroke-width:1;stroke-linecap:butt;stroke-linejoin:miter;stroke-miterlimit:4;stroke-dasharray:none;stroke-dashoffset:0;stroke-opacity:0"
     d="m 46.968033,28.083886 c -0.324831,-0.214165 -0.741976,-0.983984 -1.006422,-1.8573 -0.08521,-0.281409 -0.227183,-0.741897 -0.315489,-1.023306 -0.08831,-0.281408 -0.156452,-0.516543 -0.151432,-0.52252 0.005,-0.006 0.248059,0.25432 0.540087,0.578439 0.481818,0.534766 0.967608,0.974291 1.290877,1.167938 0.209099,0.125257 0.511913,0.115208 0.751029,-0.02492 0.218614,-0.128117 0.555786,-0.474572 0.820257,-0.84284 0.08284,-0.11536 0.159611,-0.200762 0.17059,-0.189782 0.03528,0.03528 -0.511404,1.141955 -0.820173,1.660298 -0.433153,0.727152 -0.82793,1.146793 -1.077652,1.145527 -0.03483,-1.75e-4 -0.125584,-0.04137 -0.201672,-0.09153 z"
     id="path158"
     inkscape:connector-curvature="0" />
  <path
     style="opacity:1;vector-effect:none;fill:#cca438;fill-opacity:1;stroke:#ddc480;stroke-width:1;stroke-linecap:butt;stroke-linejoin:miter;stroke-miterlimit:4;stroke-dasharray:none;stroke-dashoffset:0;stroke-opacity:0"
     d="m 44.793744,32.920993 c -0.338368,-0.284719 -0.440083,-0.733129 -0.440817,-1.943348 -5.11e-4,-0.84117 0.06501,-2.034767 0.128232,-2.336146 l 0.03007,-0.143349 0.06363,0.121448 c 0.035,0.0668 0.164484,0.624683 0.287746,1.239748 0.253179,1.263343 0.369776,1.662833 0.538433,1.844818 0.288763,0.31158 0.573839,0.140302 2.593082,-1.557961 0.71408,-0.600569 1.308239,-1.082032 1.320353,-1.069917 0.0234,0.0234 -0.603853,0.779064 -1.578264,1.901359 -1.539747,1.773428 -2.438768,2.367185 -2.94247,1.943348 z"
     id="path160"
     inkscape:connector-curvature="0" />
  <path
     style="opacity:1;vector-effect:none;fill:#cca438;fill-opacity:1;stroke:#ddc480;stroke-width:1;stroke-linecap:butt;stroke-linejoin:miter;stroke-miterlimit:4;stroke-dasharray:none;stroke-dashoffset:0;stroke-opacity:0"
     d="m 44.118009,34.106478 c -0.107152,-0.129109 -0.157792,-0.55708 -0.157346,-1.329749 5.25e-4,-0.911259 0.05255,-1.547972 0.223367,-2.733864 0.173962,-1.207713 0.217704,-1.337144 0.17813,-0.527085 -0.05524,1.130793 -0.04018,2.356856 0.03301,2.686445 0.134111,0.603964 0.437966,0.927529 0.822666,0.876027 0.392699,-0.05257 0.904438,-0.382045 1.510894,-0.972754 0.167505,-0.163157 0.304555,-0.272221 0.304555,-0.242366 0,0.08688 -1.475838,1.493084 -1.914609,1.824278 -0.570658,0.430744 -0.882565,0.561368 -1.000663,0.419068 z"
     id="path162"
     inkscape:connector-curvature="0" />
  <path
     style="opacity:1;vector-effect:none;fill:#cca438;fill-opacity:1;stroke:#ddc480;stroke-width:1;stroke-linecap:butt;stroke-linejoin:miter;stroke-miterlimit:4;stroke-dasharray:none;stroke-dashoffset:0;stroke-opacity:0"
     d="m 45.385387,31.647666 c -0.13924,-0.195977 -0.268378,-0.654931 -0.469804,-1.669671 -0.235278,-1.185279 -0.314957,-1.473035 -0.398953,-1.440802 -0.03629,0.01392 -0.06549,-0.0014 -0.06491,-0.03407 0.0015,-0.08156 0.182184,-0.473576 0.218314,-0.473576 0.06848,0 0.184807,0.398516 0.319002,1.09282 0.264562,1.368808 0.536625,1.898824 1.007077,1.961925 0.493432,0.06618 1.003602,-0.420916 2.00007,-1.909618 0.686701,-1.025918 1.325316,-1.632416 1.718861,-1.632416 0.301258,0 0.317736,0.26872 0.04873,0.794727 -0.106276,0.207811 -0.221398,0.41752 -0.255826,0.466019 -0.06097,0.08589 -1.839864,1.599261 -2.66959,2.271121 -0.893079,0.72316 -1.247323,0.862992 -1.452978,0.573536 z"
     id="path164"
     inkscape:connector-curvature="0" />
  <path
     style="opacity:1;vector-effect:none;fill:#cca438;fill-opacity:1;stroke:#ddc480;stroke-width:1;stroke-linecap:butt;stroke-linejoin:miter;stroke-miterlimit:4;stroke-dasharray:none;stroke-dashoffset:0;stroke-opacity:0"
     d="m 43.549171,37.203857 c -0.151901,-0.03588 -0.316737,-0.213308 -0.316737,-0.34094 0,-0.280909 0.282639,-0.580985 0.987405,-1.04832 0.76916,-0.510036 2.419264,-1.387262 2.776895,-1.47625 0.101401,-0.02523 0.134005,-0.01558 0.134005,0.03967 0,0.156445 -0.919158,1.300077 -1.409829,1.754134 -0.561468,0.519571 -1.303541,0.961171 -1.739104,1.034924 -0.103945,0.0176 -0.221883,0.03826 -0.262084,0.0459 -0.0402,0.0076 -0.116949,0.0035 -0.170551,-0.0091 z"
     id="path166"
     inkscape:connector-curvature="0" />
  <path
     style="opacity:1;vector-effect:none;fill:#cca438;fill-opacity:1;stroke:#ddc480;stroke-width:1;stroke-linecap:butt;stroke-linejoin:miter;stroke-miterlimit:4;stroke-dasharray:none;stroke-dashoffset:0;stroke-opacity:0"
     d="m 40.753176,38.059454 c -0.138213,-0.06841 -0.263883,-0.184254 -0.356786,-0.328881 -0.129134,-0.201027 -0.141708,-0.255876 -0.12623,-0.550629 0.02292,-0.436539 0.133683,-0.593036 0.433279,-0.612194 0.290323,-0.01857 0.730398,0.244397 1.145766,0.684643 0.445597,0.472285 0.41881,0.685055 -0.106137,0.843041 -0.344067,0.103549 -0.736849,0.08927 -0.989892,-0.03598 z"
     id="path168"
     inkscape:connector-curvature="0" />
  <path
     style="opacity:1;vector-effect:none;fill:#cca438;fill-opacity:1;stroke:#ddc480;stroke-width:1;stroke-linecap:butt;stroke-linejoin:miter;stroke-miterlimit:4;stroke-dasharray:none;stroke-dashoffset:0;stroke-opacity:0"
     d="m 43.459667,44.870657 c -0.238341,-0.363755 -0.21744,-2.102298 0.02709,-2.253426 0.09671,-0.05977 0.361191,0.305782 0.455013,0.628915 0.122242,0.421012 0.12288,1.166261 0.0012,1.399931 -0.1876,0.360254 -0.346135,0.433922 -0.483303,0.22458 z"
     id="path170"
     inkscape:connector-curvature="0" />
  <path
     style="opacity:1;vector-effect:none;fill:#cca438;fill-opacity:1;stroke:#ddc480;stroke-width:1;stroke-linecap:butt;stroke-linejoin:miter;stroke-miterlimit:4;stroke-dasharray:none;stroke-dashoffset:0;stroke-opacity:0"
     d="m 40.343844,40.576303 c -2.827098,-0.358325 -3.285327,-0.443293 -3.561276,-0.660355 -0.245689,-0.193259 -0.120462,-0.555325 0.434526,-1.256344 0.306553,-0.387214 0.325578,-0.402255 0.390881,-0.309022 0.04814,0.06873 0.101495,0.08944 0.178648,0.06935 0.09015,-0.02348 0.07023,0.01562 -0.110311,0.216621 -0.140728,0.156671 -0.250748,0.341814 -0.304555,0.512511 -0.306278,0.971627 0.226412,1.166788 2.23038,0.817143 1.460817,-0.254878 1.733363,-0.289765 2.26589,-0.290045 0.553232,-2.92e-4 0.836474,0.08449 0.869292,0.260211 0.0093,0.04954 -0.04218,0.221559 -0.114297,0.382255 -0.07413,0.165183 -0.121382,0.343122 -0.108714,0.40939 0.01642,0.0859 0.0014,0.115761 -0.05611,0.11177 -0.04318,-0.003 -0.994645,-0.121561 -2.114354,-0.263481 z"
     id="path172"
     inkscape:connector-curvature="0" />
  <path
     style="opacity:1;vector-effect:none;fill:#cca438;fill-opacity:1;stroke:#ddc480;stroke-width:1;stroke-linecap:butt;stroke-linejoin:miter;stroke-miterlimit:4;stroke-dasharray:none;stroke-dashoffset:0;stroke-opacity:0"
     d="m 51.794286,6.630278 c -0.258383,-0.057008 -0.704541,-0.3727871 -1.148341,-0.8127651 -0.789617,-0.7828174 -1.081399,-1.4830151 -0.66187,-1.58831 0.698685,-0.175359 2.165731,1.2243281 2.165731,2.0662928 0,0.3005688 -0.09692,0.3918376 -0.35552,0.3347823 z"
     id="path174"
     inkscape:connector-curvature="0" />
  <path
     style="opacity:1;vector-effect:none;fill:#cca438;fill-opacity:1;stroke:#ddc480;stroke-width:1;stroke-linecap:butt;stroke-linejoin:miter;stroke-miterlimit:4;stroke-dasharray:none;stroke-dashoffset:0;stroke-opacity:0"
     d="M 44.747789,7.5929971 44.63073,7.4682799 44.772154,7.2635033 c 0.396622,-0.5742935 1.349499,-0.9720688 2.164858,-0.903712 0.352421,0.029546 0.671382,0.1472797 0.716329,0.26441 0.04352,0.1134003 -0.09241,0.306606 -0.301536,0.4285899 -0.356664,0.2080486 -1.590942,0.5605417 -2.218948,0.6337014 -0.244976,0.028539 -0.278068,0.020504 -0.385068,-0.093496 z"
     id="path176"
     inkscape:connector-curvature="0" />
  <path
     style="opacity:1;vector-effect:none;fill:#cca438;fill-opacity:1;stroke:#ddc480;stroke-width:1;stroke-linecap:butt;stroke-linejoin:miter;stroke-miterlimit:4;stroke-dasharray:none;stroke-dashoffset:0;stroke-opacity:0"
     d="M 42.420602,10.934094 C 42.034341,10.628541 41.195267,9.7119695 40.911225,9.2853082 40.765552,9.0664933 40.589474,8.7485378 40.519939,8.5787404 40.276778,7.9849638 40.372131,7.4664956 40.711995,7.5344684 c 0.189932,0.037986 0.624659,0.4244154 0.939916,0.8354914 0.450115,0.5869235 1.053039,1.7965452 1.109531,2.2260102 0.03227,0.24532 -0.0033,0.524683 -0.06674,0.524683 -0.02104,0 -0.144389,-0.08395 -0.2741,-0.186559 z"
     id="path178"
     inkscape:connector-curvature="0" />
  <path
     style="opacity:1;vector-effect:none;fill:#cca438;fill-opacity:1;stroke:#ddc480;stroke-width:1;stroke-linecap:butt;stroke-linejoin:miter;stroke-miterlimit:4;stroke-dasharray:none;stroke-dashoffset:0;stroke-opacity:0"
     d="m 42.125857,5.4920544 c -0.134994,-0.094553 -0.27968,-0.4842156 -0.35613,-0.9591093 -0.07871,-0.4889515 -0.03833,-1.6646545 0.07081,-2.0616559 0.08136,-0.2959378 0.295652,-0.6218025 0.425812,-0.6475044 0.03908,-0.00772 0.17019,0.073237 0.291362,0.1798961 0.398762,0.3510046 0.660163,1.1538092 0.608018,1.8673241 -0.04643,0.63539 -0.334655,1.3483259 -0.643211,1.5910362 -0.155689,0.1224652 -0.25404,0.1299069 -0.396658,0.030013 z"
     id="path180"
     inkscape:connector-curvature="0" />
  <path
     style="opacity:1;vector-effect:none;fill:#cca438;fill-opacity:1;stroke:#ddc480;stroke-width:1;stroke-linecap:butt;stroke-linejoin:miter;stroke-miterlimit:4;stroke-dasharray:none;stroke-dashoffset:0;stroke-opacity:0"
     d="m 49.516318,11.577967 c -0.15496,-0.407573 -0.186075,-2.1467936 -0.04681,-2.6162571 0.108112,-0.364436 0.290299,-0.2837943 0.437809,0.1937876 0.200791,0.650085 0.173927,1.6584395 -0.05988,2.2476975 -0.126331,0.318388 -0.251416,0.38441 -0.331119,0.174772 z"
     id="path182"
     inkscape:connector-curvature="0" />
  <path
     style="opacity:1;vector-effect:none;fill:#cca438;fill-opacity:1;stroke:#ddc480;stroke-width:1;stroke-linecap:butt;stroke-linejoin:miter;stroke-miterlimit:4;stroke-dasharray:none;stroke-dashoffset:0;stroke-opacity:0"
     d="m 11.933128,9.1009022 c -0.27486,-0.098027 -0.374423,-0.2082934 -0.374423,-0.414674 0,-0.2720412 0.223482,-0.6615048 0.604876,-1.0541205 0.48159,-0.4957603 0.670921,-0.5300723 0.86249,-0.1563071 0.162558,0.3171612 0.18447,0.8435501 0.04694,1.1276467 -0.115749,0.2391063 -0.325182,0.4225823 -0.583549,0.5112247 -0.20972,0.071952 -0.323903,0.069126 -0.556335,-0.01377 z"
     id="path184"
     inkscape:connector-curvature="0" />
  <path
     style="opacity:1;vector-effect:none;fill:#cca438;fill-opacity:1;stroke:#ddc480;stroke-width:1;stroke-linecap:butt;stroke-linejoin:miter;stroke-miterlimit:4;stroke-dasharray:none;stroke-dashoffset:0;stroke-opacity:0"
     d="M 8.2938737,7.8499506 C 7.4456547,7.508741 6.3900667,7.050955 6.0038947,6.8568353 5.1567797,6.4310105 5.2431787,6.3196401 6.4178147,6.3232842 c 0.715385,0.00222 0.809127,0.012983 1.137083,0.1305643 0.382716,0.137214 0.831666,0.388537 0.984308,0.5510163 0.119636,0.1273472 0.534329,0.8530423 0.534329,0.9350537 0,0.1101717 -0.395616,0.06452 -0.779661,-0.089968 z"
     id="path186"
     inkscape:connector-curvature="0" />
  <path
     style="opacity:1;vector-effect:none;fill:#cca438;fill-opacity:1;stroke:#ddc480;stroke-width:1;stroke-linecap:butt;stroke-linejoin:miter;stroke-miterlimit:4;stroke-dasharray:none;stroke-dashoffset:0;stroke-opacity:0"
     d="M 1.2632047,6.4898539 C 1.0041607,6.0058265 1.8411227,4.8343911 2.7625637,4.3913076 3.0054787,4.2744994 3.1190607,4.2477901 3.3229447,4.2595304 l 0.255715,0.014725 0.0151,0.2374623 c 0.01304,0.2051855 -0.009,0.2738077 -0.162444,0.5048581 -0.257681,0.3880953 -0.907275,1.0460981 -1.292743,1.3094766 -0.255403,0.1745095 -0.390135,0.2333592 -0.574904,0.2511131 -0.213339,0.020499 -0.248181,0.010374 -0.300461,-0.087312 z"
     id="path188"
     inkscape:connector-curvature="0" />
  <path
     style="opacity:1;vector-effect:none;fill:#cca438;fill-opacity:1;stroke:#ddc480;stroke-width:1;stroke-linecap:butt;stroke-linejoin:miter;stroke-miterlimit:4;stroke-dasharray:none;stroke-dashoffset:0;stroke-opacity:0"
     d="m 3.5073497,11.54703 c -0.111517,-0.3127 -0.168219,-1.31245 -0.110547,-1.9491518 0.08292,-0.915453 0.200641,-1.1167444 0.413302,-0.7067098 0.131271,0.2531051 0.192965,0.8197611 0.173763,1.5960106 -0.01466,0.592666 -0.02924,0.685598 -0.147133,0.938029 -0.147879,0.316628 -0.246857,0.353235 -0.329385,0.121822 z"
     id="path190"
     inkscape:connector-curvature="0" />
  <path
     style="opacity:1;vector-effect:none;fill:#cca438;fill-opacity:1;stroke:#ddc480;stroke-width:1;stroke-linecap:butt;stroke-linejoin:miter;stroke-miterlimit:4;stroke-dasharray:none;stroke-dashoffset:0;stroke-opacity:0"
     d="m 2.3953517,17.099405 c -0.251885,-0.113607 -0.828181,-1.282264 -1.014248,-2.056769 -0.160207,-0.666863 -0.09971,-1.308319 0.137279,-1.455498 0.114675,-0.07122 0.39071,0.196126 0.572734,0.554702 0.294651,0.580442 0.586548,1.774853 0.585394,2.395366 -0.001,0.558262 -0.0542,0.664564 -0.281159,0.562199 z"
     id="path192"
     inkscape:connector-curvature="0" />
  <path
     style="opacity:1;vector-effect:none;fill:#cca438;fill-opacity:1;stroke:#ddc480;stroke-width:1;stroke-linecap:butt;stroke-linejoin:miter;stroke-miterlimit:4;stroke-dasharray:none;stroke-dashoffset:0;stroke-opacity:0"
     d="M 5.0892527,29.799291 C 4.7408417,29.4896 4.3700667,29.164886 4.2653077,29.077702 l -0.190469,-0.158515 -0.112013,-0.67628 c -0.141277,-0.852956 -0.150254,-1.116978 -0.02134,-0.62755 0.02824,0.107203 0.07344,0.227807 0.100441,0.268008 0.042,0.06253 0.06137,0.05729 0.134017,-0.03627 0.08356,-0.107618 0.08492,-0.104883 0.08492,0.171576 0,0.478013 0.382261,1.113777 1.178736,1.960434 0.20149,0.214186 0.347622,0.38804 0.324737,0.386343 -0.02289,-0.0017 -0.326672,-0.256468 -0.675083,-0.566158 z"
     id="path194"
     inkscape:connector-curvature="0" />
  <path
     style="opacity:1;vector-effect:none;fill:#cca438;fill-opacity:1;stroke:#ddc480;stroke-width:1;stroke-linecap:butt;stroke-linejoin:miter;stroke-miterlimit:4;stroke-dasharray:none;stroke-dashoffset:0;stroke-opacity:0"
     d="m 5.3806487,25.632366 c -0.166091,-0.130647 -0.378799,-0.583723 -0.681719,-1.452085 -0.436827,-1.252221 -0.87017,-1.913379 -1.118827,-1.707012 -0.06585,0.05465 -0.07454,0.01606 -0.07454,-0.331061 0,-0.245895 0.02119,-0.406016 0.05662,-0.427915 0.123892,-0.07657 0.310665,0.264006 1.098322,2.002759 0.503912,1.112384 0.791923,1.657293 0.982839,1.8595 0.08487,0.08989 0.08845,0.10946 0.02449,0.134004 -0.114734,0.04403 -0.14085,0.03692 -0.287185,-0.07819 z"
     id="path196"
     inkscape:connector-curvature="0" />
  <path
     style="opacity:1;vector-effect:none;fill:#cca438;fill-opacity:1;stroke:#ddc480;stroke-width:1;stroke-linecap:butt;stroke-linejoin:miter;stroke-miterlimit:4;stroke-dasharray:none;stroke-dashoffset:0;stroke-opacity:0"
     d=""
     id="path230"
     inkscape:connector-curvature="0" />
</svg>
