<?xml version="1.0" encoding="UTF-8" standalone="no"?>
<!-- Created with Inkscape (http://www.inkscape.org/) -->

<svg
   xmlns:dc="http://purl.org/dc/elements/1.1/"
   xmlns:cc="http://creativecommons.org/ns#"
   xmlns:rdf="http://www.w3.org/1999/02/22-rdf-syntax-ns#"
   xmlns:svg="http://www.w3.org/2000/svg"
   xmlns="http://www.w3.org/2000/svg"
   xmlns:sodipodi="http://sodipodi.sourceforge.net/DTD/sodipodi-0.dtd"
   xmlns:inkscape="http://www.inkscape.org/namespaces/inkscape"
   version="1.1"
   id="svg111"
   width="34.40081px"
   height="56.065369px"
   viewBox="0 0 148.91645 234.57777"
   sodipodi:docname="drawing7.svg"
   inkscape:version="0.92.4 (5da689c313, 2019-01-14)">
  <metadata
     id="metadata117">
    <rdf:RDF>
      <cc:Work
         rdf:about="">
        <dc:format>image/svg+xml</dc:format>
        <dc:type
           rdf:resource="http://purl.org/dc/dcmitype/StillImage" />
        <dc:title></dc:title>
      </cc:Work>
    </rdf:RDF>
  </metadata>
  <defs
     id="defs115" />
  <sodipodi:namedview
     pagecolor="#ffffff"
     bordercolor="#666666"
     borderopacity="1"
     objecttolerance="10"
     gridtolerance="10"
     guidetolerance="10"
     inkscape:pageopacity="0"
     inkscape:pageshadow="2"
     inkscape:window-width="1360"
     inkscape:window-height="705"
     id="namedview113"
     showgrid="false"
     units="mm"
     width="45mm"
     fit-margin-top="0"
     fit-margin-left="0"
     fit-margin-right="0"
     fit-margin-bottom="0"
     inkscape:zoom="0.51868132"
     inkscape:cx="524.15702"
     inkscape:cy="-122.16371"
     inkscape:window-x="-8"
     inkscape:window-y="-8"
     inkscape:window-maximized="1"
     inkscape:current-layer="svg111" />
  <path
     style="opacity:1;vector-effect:none;fill:#cca438;fill-opacity:1;stroke:#ddc480;stroke-width:1;stroke-linecap:butt;stroke-linejoin:miter;stroke-miterlimit:4;stroke-dasharray:none;stroke-dashoffset:0;stroke-opacity:0"
     d="m 13.951829,231.94994 c 0.01002,-4.78612 1.455778,-8.34367 4.729337,-11.63737 2.194142,-2.20763 4.333209,-3.51563 7.178912,-4.38977 1.468613,-0.45112 3.626681,-0.47216 48.419347,-0.47216 45.011725,0 46.943555,0.019 48.419355,0.47814 5.40735,1.68202 9.69987,5.95246 11.25765,11.19977 0.59909,2.01801 0.84802,6.36611 0.3731,6.51706 -0.19719,0.0627 -27.36384,0.18526 -60.370337,0.27239 l -60.011811,0.15844 0.0045,-2.1265 z m 46.365402,-38.55078 v -12.68348 l -2.497822,-0.55981 C 51.949565,178.84029 43.525177,175.58802 38.413242,172.66402 31.926282,168.9535 27.330796,165.40769 21.889178,159.91425 11.501616,149.4278 4.7473579,136.75097 1.9080014,122.4123 0.5937671,115.77544 0.50304616,114.22074 0.50019992,98.286496 0.49763749,83.987776 0.51349601,83.501582 1.0099378,82.657223 c 0.841208,-1.430768 1.7523216,-1.951762 3.4132641,-1.951762 1.1124947,0 1.6508819,0.140483 2.2907626,0.597714 1.7880576,1.277688 1.7088831,0.523532 1.8772975,17.881631 0.1655329,17.061274 0.2207903,17.807244 1.793163,24.207694 6.077811,24.7401 25.307893,43.57583 50.0609,49.03432 5.097536,1.12411 7.992769,1.41819 13.962189,1.41819 5.952934,0 8.795111,-0.28729 13.962199,-1.41129 12.269437,-2.669 23.695937,-8.94175 32.579817,-17.88518 10.07822,-10.14579 16.34688,-22.56253 18.6861,-37.01274 0.36187,-2.23546 0.46214,-5.36397 0.58815,-18.350994 0.146,-15.047623 0.17181,-15.689977 0.66427,-16.527583 0.849,-1.444014 1.74873,-1.951762 3.45852,-1.951762 1.70981,0 2.60953,0.507748 3.45853,1.951762 0.4896,0.832736 0.51603,1.413415 0.59465,13.062707 0.0883,13.07582 -0.16494,19.19986 -0.99624,24.09669 -1.81657,10.70035 -5.50475,20.08902 -11.43408,29.10658 -5.15871,7.84559 -12.83825,15.50073 -20.95627,20.88967 -7.06691,4.6912 -16.038304,8.55467 -24.017537,10.343 l -2.497827,0.55981 v 12.68348 12.68348 H 74.407514 60.317231 Z m 8.838457,-34.28021 c -18.794041,-2.00724 -34.756146,-13.6 -42.060076,-30.54687 -3.083014,-7.15334 -3.913045,-11.97587 -3.920497,-22.77836 l -0.0049,-7.250567 17.869045,-0.0056 c 16.824907,-0.0056 17.928922,-0.0333 18.893792,-0.479457 1.795771,-0.830324 2.689964,-2.204779 2.689964,-4.134738 0,-1.929958 -0.894193,-3.304418 -2.689964,-4.134737 C 58.968182,89.34248 57.864167,89.31447 41.03926,89.309157 l -17.869045,-0.0054 v -4.74788 -4.748165 h 17.916413 c 12.035874,0 18.153125,-0.0896 18.637606,-0.272985 0.981427,-0.371495 2.119488,-1.47906 2.546053,-2.47784 0.716342,-1.677279 0.215744,-4.065688 -1.102462,-5.259932 -1.367911,-1.23929 -1.197532,-1.228918 -20.184383,-1.228918 H 23.170115 V 65.819189 61.071027 H 41.272838 59.37556 l 1.086696,-0.638018 c 1.972377,-1.15801 2.728891,-3.913019 1.654085,-6.023686 -0.621307,-1.220098 -1.621239,-1.962269 -3.105651,-2.305086 -0.70148,-0.161918 -7.696146,-0.262611 -18.519228,-0.266516 l -17.391994,-0.0063 0.140772,-3.657369 C 23.531804,40.599003 25.641158,33.164362 29.338811,26.679017 38.690257,10.277485 55.522738,0.5 74.407514,0.5 c 17.641931,0 33.661496,8.6070382 43.311536,23.270562 4.94056,7.507326 7.92587,17.113212 7.92587,25.503183 v 2.557751 l -17.35667,0.0063 c -10.799196,0.0039 -17.78255,0.104627 -18.48391,0.266604 -1.484405,0.342818 -2.484337,1.084988 -3.105648,2.305087 -1.074807,2.110666 -0.318292,4.865677 1.654088,6.023687 l 1.08669,0.638017 h 18.10273 18.10272 v 4.748159 4.748167 l -17.86904,0.0057 c -16.898514,0.005 -17.926324,0.03167 -18.923535,0.48538 -2.740381,1.246739 -3.535821,4.872815 -1.562795,7.124092 1.481687,1.690652 0.651117,1.624556 20.41406,1.624556 l 17.94131,-2.2e-5 v 4.748165 4.748157 l -17.86904,0.0054 c -16.824909,0.0054 -17.928929,0.0333 -18.893797,0.479463 -1.795774,0.830327 -2.689964,2.204787 -2.689964,4.134742 0,1.92995 0.89419,3.304414 2.689964,4.134738 0.964868,0.446146 2.068888,0.474151 18.893797,0.479466 l 17.86904,0.0056 -0.006,7.250576 c -0.006,7.90072 -0.27607,10.87955 -1.38726,15.26987 -4.97951,19.67394 -21.42647,34.50596 -41.77525,37.67328 -3.05862,0.47608 -10.455256,0.68822 -13.321728,0.38208 z"
     id="path121"
     inkscape:connector-curvature="0" />
  <path
     style="opacity:1;vector-effect:none;fill:#cca438;fill-opacity:1;stroke:#ddc480;stroke-width:1;stroke-linecap:butt;stroke-linejoin:miter;stroke-miterlimit:4;stroke-dasharray:none;stroke-dashoffset:0;stroke-opacity:0"
     d="m 68.573993,158.93437 c -7.195427,-0.82961 -15.461691,-3.72202 -21.663402,-7.58019 -12.002418,-7.46686 -20.548179,-19.97331 -22.948087,-33.58382 -0.285965,-1.62178 -0.426012,-4.52641 -0.51549,-10.69148 l -0.122855,-8.464744 18.158568,-0.07106 18.158565,-0.07106 1.070655,-0.748545 c 1.363537,-0.953319 1.934134,-2.083667 1.934629,-3.83246 5.13e-4,-1.790657 -0.606702,-2.895614 -2.105242,-3.831051 l -1.189057,-0.742197 -17.985974,-0.07385 -17.985975,-0.07385 v -4.528158 -4.528143 l 18.080226,-0.181403 c 19.792332,-0.198574 18.727124,-0.107091 20.149722,-1.730322 1.744817,-1.990881 1.210555,-5.634047 -1.01977,-6.95395 -1.162656,-0.688061 -4.825103,-0.831391 -21.589963,-0.84491 L 23.380328,70.390557 V 65.81341 61.236261 h 17.979725 17.979725 l 1.173133,-0.745342 c 2.620064,-1.664644 2.882943,-5.901474 0.472658,-7.617797 -1.409578,-1.003733 -2.034288,-1.035758 -20.232996,-1.037189 l -17.572588,-0.0013 0.117726,-2.535989 c 0.125378,-2.700808 0.723653,-8.04907 0.973307,-8.700852 0.136129,-0.355394 4.768938,-0.391593 50.118382,-0.391593 27.68607,0 50.02703,0.09504 50.09987,0.213124 0.29985,0.486052 0.86874,4.933529 1.03034,8.055069 l 0.17333,3.347774 -18.12541,0.06809 -18.125417,0.06809 -1.09398,0.618534 c -2.994453,1.693059 -2.944682,6.262831 0.08759,8.043127 L 89.4855,61.23635 h 18.06813 18.06812 v 4.577145 4.577149 l -15.37326,0.02019 c -8.4553,0.0111 -16.719628,0.09775 -18.365184,0.192575 -2.778771,0.16013 -3.057781,0.222738 -3.916497,0.878914 -1.721377,1.315373 -2.308137,3.723357 -1.391896,5.712221 0.600646,1.303799 1.491445,2.094965 2.658108,2.360793 0.522486,0.119051 8.923689,0.294746 18.669349,0.390443 l 17.71938,0.173979 v 4.537175 4.537167 l -17.10198,0.01806 c -9.40609,0.0099 -17.675363,0.100018 -18.376183,0.20019 -0.700803,0.100163 -1.674866,0.453877 -2.16456,0.786029 -2.619223,1.776541 -2.419979,6.112505 0.351769,7.655187 l 1.111317,0.618536 18.089817,0.06948 18.08982,0.06948 -0.007,4.383917 c -0.0177,10.568 -0.62789,15.80972 -2.49799,21.45545 -5.72549,17.28488 -20.96066,30.5139 -39.023024,33.88448 -4.049668,0.7557 -11.625722,1.04828 -15.519417,0.59935 z"
     id="path123"
     inkscape:connector-curvature="0" />
</svg>
