<?xml version="1.0" encoding="UTF-8" standalone="no"?>
<!-- Created with Inkscape (http://www.inkscape.org/) -->

<svg
   xmlns:dc="http://purl.org/dc/elements/1.1/"
   xmlns:cc="http://creativecommons.org/ns#"
   xmlns:rdf="http://www.w3.org/1999/02/22-rdf-syntax-ns#"
   xmlns:svg="http://www.w3.org/2000/svg"
   xmlns="http://www.w3.org/2000/svg"
   xmlns:sodipodi="http://sodipodi.sourceforge.net/DTD/sodipodi-0.dtd"
   xmlns:inkscape="http://www.inkscape.org/namespaces/inkscape"
   width="15.224859mm"
   height="10.114228mm"
   viewBox="0 0 37.858005 36.676953"
   version="1.1"
   id="svg8"
   inkscape:version="0.92.4 (5da689c313, 2019-01-14)"
   sodipodi:docname="drawing1.svg">
  <defs
     id="defs2" />
  <sodipodi:namedview
     id="base"
     pagecolor="#ffffff"
     bordercolor="#666666"
     borderopacity="1.0"
     inkscape:pageopacity="0.0"
     inkscape:pageshadow="2"
     inkscape:zoom="11.2"
     inkscape:cx="46.461733"
     inkscape:cy="16.038682"
     inkscape:document-units="mm"
     inkscape:current-layer="layer1"
     showgrid="false"
     inkscape:window-width="1920"
     inkscape:window-height="1017"
     inkscape:window-x="-8"
     inkscape:window-y="-8"
     inkscape:window-maximized="1"
     fit-margin-top="0"
     fit-margin-left="0"
     fit-margin-right="0"
     fit-margin-bottom="0" />
  <metadata
     id="metadata5">
    <rdf:RDF>
      <cc:Work
         rdf:about="">
        <dc:format>image/svg+xml</dc:format>
        <dc:type
           rdf:resource="http://purl.org/dc/dcmitype/StillImage" />
        <dc:title></dc:title>
      </cc:Work>
    </rdf:RDF>
  </metadata>
  <g
     inkscape:label="Layer 1"
     inkscape:groupmode="layer"
     id="layer1"
     transform="translate(-52.479306,-59.109629)">
    <path
       style="fill:#000000;stroke-width:1"
       d="m 45.464094,94.594669 c -0.27472,-0.66965 -0.3761,-8.78648 -0.2253,-18.03739 l 0.27418,-16.81983 h 26.02172 26.021716 v 17.78749 17.78749 l -25.796416,0.2499 c -20.44104,0.19802 -25.90011,-0.003 -26.2959,-0.96766 z M 96.83119,79.631349 97.10682,64.886459 H 71.560104 46.013394 v 14.35482 c 0,7.89515 0.30794,14.64286 0.6843,14.99492 0.37637,0.35205 11.74836,0.52759 25.27109,0.39007 l 24.586786,-0.25002 z m -43.447456,8.19787 c -0.34665,-0.84501 -0.15038,-1.98529 0.43617,-2.53395 1.52488,-1.42638 4.4141,-0.12273 4.01578,1.81197 -0.44367,2.15499 -3.65072,2.67508 -4.45195,0.72198 z m 3.63885,-0.94244 c 0,-0.77235 -0.67557,-1.40428 -1.50126,-1.40428 -0.82569,0 -1.50125,0.63193 -1.50125,1.40428 0,0.77235 0.67556,1.40427 1.50125,1.40427 0.82569,0 1.50126,-0.63192 1.50126,-1.40427 z m 17.39451,0.98101 c -0.76371,-1.86164 0.36767,-3.32147 2.57418,-3.32147 2.23922,0 3.30885,2.19243 1.77131,3.63065 -1.56262,1.46168 -3.68084,1.31097 -4.34549,-0.30918 z m 3.62303,-0.98101 c 0,-0.77235 -0.67556,-1.40428 -1.50125,-1.40428 -1.56289,0 -1.98563,1.10723 -0.83404,2.18443 1.1516,1.0772 2.33529,0.68177 2.33529,-0.78015 z m -16.74495,0.75551 c 0.97378,-0.23737 2.32491,-0.22176 3.00251,0.0347 0.6776,0.25645 -0.11913,0.45065 -1.77051,0.43157 -1.65138,-0.0191 -2.20578,-0.22889 -1.232,-0.46625 z m 21.01755,0 c 0.97378,-0.23737 2.3249,-0.22176 3.0025,0.0347 0.6776,0.25645 -0.11913,0.45065 -1.77051,0.43157 -1.65138,-0.0191 -2.20577,-0.22889 -1.23199,-0.46625 z m -20.53618,-1.8843 c 1.23854,-0.22314 3.26523,-0.22314 4.50376,0 1.23854,0.22314 0.22519,0.40571 -2.25188,0.40571 -2.47706,0 -3.49041,-0.18257 -2.25188,-0.40571 z m 21.53173,-0.0111 c 1.52133,-0.21519 3.77321,-0.20944 5.00417,0.0128 1.23097,0.22221 -0.0138,0.39827 -2.76606,0.39124 -2.75229,-0.007 -3.75945,-0.18884 -2.23811,-0.40402 z m -29.92454,-5.40715 c -0.34665,-0.84501 -0.15038,-1.98529 0.43617,-2.53395 1.52488,-1.42638 4.4141,-0.12273 4.01578,1.81197 -0.44367,2.15499 -3.65072,2.67508 -4.45195,0.72198 z m 3.63885,-0.94244 c 0,-0.77235 -0.67557,-1.40428 -1.50126,-1.40428 -0.82569,0 -1.50125,0.63193 -1.50125,1.40428 0,0.77235 0.67556,1.40427 1.50125,1.40427 0.82569,0 1.50126,-0.63192 1.50126,-1.40427 z m 17.68142,1.71633 c -1.18038,-1.10412 -0.71201,-3.16329 0.84677,-3.72282 1.97586,-0.70922 4.52637,1.2991 3.82403,3.01112 -0.56395,1.3747 -3.48602,1.81995 -4.6708,0.7117 z m 3.33612,-1.79435 c 0,-0.81526 -0.53482,-1.31553 -1.18849,-1.11171 -1.85578,0.57863 -2.16357,2.594 -0.39617,2.594 0.87156,0 1.58466,-0.66703 1.58466,-1.48229 z m -16.74495,0.83353 c 0.97378,-0.23737 2.32491,-0.22176 3.00251,0.0347 0.6776,0.25645 -0.11913,0.45066 -1.77051,0.43158 -1.65138,-0.0191 -2.20578,-0.2289 -1.232,-0.46626 z m 21.01755,0 c 0.97378,-0.23737 2.3249,-0.22176 3.0025,0.0347 0.6776,0.25645 -0.11913,0.45066 -1.77051,0.43158 -1.65138,-0.0191 -2.20577,-0.2289 -1.23199,-0.46626 z m -20.53618,-1.8843 c 1.23854,-0.22314 3.26523,-0.22314 4.50376,0 1.23854,0.22314 0.22519,0.40571 -2.25188,0.40571 -2.47706,0 -3.49041,-0.18257 -2.25188,-0.40571 z m 21.53173,-0.0111 c 1.52133,-0.21519 3.77321,-0.20944 5.00417,0.0128 1.23097,0.22221 -0.0138,0.39827 -2.76606,0.39124 -2.75229,-0.007 -3.75945,-0.18884 -2.23811,-0.40402 z m -15.52672,-6.55873 c 1.789,-0.20767 4.71644,-0.20767 6.50543,0 1.789,0.20767 0.32527,0.37758 -3.25271,0.37758 -3.57799,0 -5.04171,-0.16991 -3.25272,-0.37758 z m -1.50125,-1.88327 c 2.61468,-0.19285 6.89325,-0.19285 9.50794,0 2.61468,0.19285 0.4754,0.35064 -4.75397,0.35064 -5.22937,0 -7.36865,-0.15779 -4.75397,-0.35064 z m 30.275266,-7.73752 c 0,-1.20307 -3.50343,-1.44025 -24.452216,-1.65535 -14.15467,-0.14534 -24.84464,0.116 -25.38405,0.62057 -2.71806,2.54248 0.94499,2.9344 25.13537,2.68931 21.170226,-0.21448 24.700896,-0.45098 24.700896,-1.65453 z"
       id="path456"
       inkscape:connector-curvature="0" />
    <path
       style="opacity:1;fill:#cca438;fill-opacity:1;stroke:#d4aa00;stroke-width:0.87312502"
       d="M 52.825378,95.542717 C 47.975194,95.41194 45.876446,95.154752 45.546169,94.65068 45.167015,94.072033 45.108175,85.474329 45.37391,69.482353 l 0.161441,-9.715664 h 26.006998 26.007007 v 17.744306 17.744306 l -0.785525,0.03161 c -0.432031,0.01738 -4.010289,0.05867 -7.95168,0.09171 -3.941391,0.033 -9.237462,0.08347 -11.769053,0.112065 -6.474414,0.07308 -22.183784,0.106853 -24.21772,0.05204 z m 31.481003,-1.015445 c 6.708298,-0.06898 12.214826,-0.143332 12.236733,-0.165248 0.03719,-0.0372 0.554819,-26.306025 0.561987,-28.517877 l 0.0035,-1.006019 H 71.554145 45.999697 l 0.02497,10.763028 c 0.0151,6.493867 0.04898,11.320587 0.08557,12.168696 0.192018,4.455478 0.360741,6.316387 0.587884,6.483922 0.413879,0.305262 8.031388,0.473409 19.265233,0.425256 3.380504,-0.01449 11.634976,-0.08277 18.343274,-0.151758 z M 68.057829,63.765202 c 13.8259,-0.05599 22.709877,-0.267195 25.798199,-0.613319 1.447781,-0.162259 2.347441,-0.414752 2.59381,-0.727958 0.155259,-0.19738 0.140827,-0.514181 -0.03283,-0.720551 -0.595961,-0.708262 -3.911522,-0.987947 -13.80636,-1.164637 -12.4878,-0.222992 -24.86392,-0.223102 -30.731817,-2.7e-4 -2.512741,0.09542 -4.403345,0.243041 -4.93045,0.384977 -0.210476,0.05667 -0.606787,0.425864 -0.852397,0.79407 -0.102854,0.154198 -0.143018,0.286612 -0.143018,0.471524 0,0.218408 0.02698,0.282746 0.179148,0.42736 0.257493,0.244687 0.542193,0.371147 1.198958,0.532563 1.043698,0.256515 2.60853,0.416473 5.236811,0.535308 1.393857,0.06302 7.262471,0.149873 8.268651,0.12237 0.288027,-0.0079 3.537606,-0.02652 7.221286,-0.04144 z"
       id="path816"
       inkscape:connector-curvature="0" />
    <path
       style="opacity:1;fill:#cca438;fill-opacity:1;stroke:#d4aa00;stroke-width:0.87312502"
       d="m 54.842855,81.486176 c -1.369261,-0.290668 -2.009715,-1.813751 -1.337138,-3.179936 0.496633,-1.008807 1.917033,-1.369499 3.09852,-0.786827 0.443591,0.218762 0.677396,0.417002 0.924037,0.783458 0.492005,0.731016 0.381372,1.665241 -0.282483,2.385439 -0.575136,0.623956 -1.607466,0.966728 -2.402936,0.797866 z m 1.176493,-0.743434 c 0.580628,-0.172427 1.012013,-0.749304 1.013078,-1.354746 0.0017,-0.940136 -0.986675,-1.631859 -1.936906,-1.35562 -0.640332,0.186148 -1.02999,0.643785 -1.080143,1.26858 -0.08216,1.023231 0.939151,1.758005 2.003971,1.441786 z"
       id="path818"
       inkscape:connector-curvature="0" />
    <path
       style="opacity:1;fill:#cca438;fill-opacity:1;stroke:#d4aa00;stroke-width:0.87312502"
       d="m 62.821018,78.612796 c -1.089521,-0.03445 -1.488355,-0.07811 -1.488355,-0.162966 0,-0.12816 1.001919,-0.266494 2.232537,-0.308245 1.457071,-0.04944 3.347159,0.153118 3.161481,0.3388 -0.117139,0.117135 -2.178316,0.187014 -3.905663,0.132411 z"
       id="path820"
       inkscape:connector-curvature="0" />
    <path
       style="opacity:1;fill:#cca438;fill-opacity:1;stroke:#d4aa00;stroke-width:0.87312502"
       d="m 61.507777,80.545053 c -0.252342,-0.02863 -0.510979,-0.07998 -0.574744,-0.114102 -0.115567,-0.06184 -0.115497,-0.06228 0.01903,-0.132762 0.405646,-0.21254 1.74171,-0.345594 2.51729,-0.250688 0.527166,0.06451 1.032968,0.216232 1.032968,0.309855 0,0.173689 -2.008424,0.299578 -2.99454,0.187697 z"
       id="path822"
       inkscape:connector-curvature="0" />
    <path
       style="opacity:1;fill:#cca438;fill-opacity:1;stroke:#d4aa00;stroke-width:0.87312502"
       d="m 82.567316,80.550571 c -0.502527,-0.05778 -0.673275,-0.100003 -0.673275,-0.16649 0,-0.177423 0.936007,-0.351183 1.901788,-0.353046 0.777291,-0.0015 1.291099,0.07126 1.591166,0.225328 0.189145,0.09712 0.140905,0.168025 -0.164968,0.242488 -0.294497,0.07169 -2.164198,0.108117 -2.654711,0.05172 z"
       id="path824"
       inkscape:connector-curvature="0" />
    <path
       style="opacity:1;fill:#cca438;fill-opacity:1;stroke:#d4aa00;stroke-width:0.87312502"
       d="m 83.251427,78.560486 c -0.600692,-0.05322 -0.7093,-0.129022 -0.302136,-0.210859 1.371732,-0.275705 4.53681,-0.274611 5.584874,0.0019 0.319512,0.08431 0.152081,0.151035 -0.534212,0.212916 -0.672761,0.06066 -4.050951,0.05783 -4.748526,-0.004 z"
       id="path826"
       inkscape:connector-curvature="0" />
    <path
       style="opacity:1;fill:#cca438;fill-opacity:1;stroke:#d4aa00;stroke-width:0.87312502"
       d="m 68.333458,71.997575 c -0.530572,-0.02474 -1.039098,-0.06683 -1.130051,-0.09354 -0.16007,-0.04702 -0.155643,-0.05056 0.137814,-0.110574 1.338535,-0.273733 6.048119,-0.273733 7.386655,0 0.292078,0.05973 0.297124,0.06373 0.137814,0.109065 -0.473417,0.134728 -4.442137,0.192477 -6.532232,0.09505 z"
       id="path828"
       inkscape:connector-curvature="0" />
    <path
       style="opacity:1;fill:#cca438;fill-opacity:1;stroke:#d4aa00;stroke-width:0.87312502"
       d="m 66.541919,70.07557 c -0.454776,-0.02284 -0.924849,-0.04472 -1.044607,-0.04864 -0.134558,-0.0044 -0.197737,-0.0266 -0.165379,-0.05814 0.122927,-0.119762 3.364989,-0.277563 5.702615,-0.277563 2.185642,0 5.537743,0.155359 5.704467,0.264384 0.03082,0.02015 -0.105212,0.05509 -0.302285,0.07766 -0.499462,0.05717 -8.884824,0.09302 -9.894811,0.0423 z"
       id="path830"
       inkscape:connector-curvature="0" />
    <path
       style="opacity:1;fill:#cca438;fill-opacity:1;stroke:#d4aa00;stroke-width:0.87312502"
       d="M 75.913056,81.649838 C 75.150364,81.496752 74.539019,81.045641 74.25493,80.4263 74.114514,80.120196 74.096336,80.019234 74.0983,79.556327 c 0.0017,-0.414459 0.0282,-0.586428 0.126673,-0.82453 0.183924,-0.444628 0.466337,-0.795656 0.84185,-1.046414 0.437226,-0.291971 0.782844,-0.389155 1.383973,-0.389155 1.756256,0 3.379326,1.639244 2.938171,2.967445 -0.278344,0.838004 -1.478157,1.453907 -2.798314,1.436464 -0.251407,-0.0033 -0.556329,-0.02596 -0.677597,-0.0503 z m 1.253083,-0.983874 c 0.564353,-0.273197 0.882939,-0.764936 0.879516,-1.357543 -0.0044,-0.807555 -0.503549,-1.296305 -1.155598,-1.132117 -0.89181,0.22456 -1.610934,0.984026 -1.610934,1.701305 0,0.4673 0.211794,0.732937 0.71626,0.898348 0.248814,0.08158 0.90172,0.02025 1.170756,-0.109993 z"
       id="path832"
       inkscape:connector-curvature="0" />
    <path
       style="opacity:1;fill:#cca438;fill-opacity:1;stroke:#d4aa00;stroke-width:0.87312502"
       d="m 75.802806,89.074152 c -0.791365,-0.263439 -1.240632,-0.747176 -1.489726,-1.60402 -0.142755,-0.491068 -0.09455,-1.23277 0.105404,-1.62168 0.405296,-0.788306 1.377416,-1.27581 2.544068,-1.27581 1.035841,0 1.925014,0.497356 2.315938,1.295422 0.138775,0.28331 0.161825,0.393994 0.160716,0.771741 -8.73e-4,0.36002 -0.02829,0.499222 -0.148361,0.758105 -0.284167,0.612776 -1.122298,1.321291 -1.87425,1.584398 -0.433062,0.151531 -1.288296,0.200199 -1.613789,0.09184 z m 1.720572,-0.925669 c 0.488784,-0.302093 0.688476,-1.314279 0.377801,-1.915044 -0.133405,-0.257981 -0.570936,-0.605742 -0.876137,-0.696376 -0.699845,-0.207834 -1.580557,0.02593 -1.892743,0.502387 -0.241009,0.367829 -0.03213,1.05006 0.477486,1.559697 0.650722,0.650714 1.401034,0.866114 1.913593,0.549336 z"
       id="path834"
       inkscape:connector-curvature="0" />
    <path
       style="opacity:1;fill:#cca438;fill-opacity:1;stroke:#d4aa00;stroke-width:0.87312502"
       d="m 83.339691,86.058516 c -0.926525,-0.07593 -0.892665,-0.157509 0.128149,-0.308732 0.933379,-0.138271 3.760768,-0.140235 4.597606,-0.0032 0.583544,0.09556 0.7616,0.165759 0.572604,0.225743 -0.406815,0.129117 -4.051056,0.188394 -5.298359,0.08618 z"
       id="path836"
       inkscape:connector-curvature="0" />
    <path
       style="opacity:1;fill:#cca438;fill-opacity:1;stroke:#d4aa00;stroke-width:0.87312502"
       d="m 82.748472,88.045847 c -0.800158,-0.06156 -1.004809,-0.136505 -0.747814,-0.274048 0.458068,-0.245152 2.342245,-0.338202 3.035472,-0.149907 0.197073,0.05352 0.393613,0.132506 0.436763,0.175498 0.06784,0.06758 0.05675,0.08644 -0.08146,0.138984 -0.36053,0.137072 -1.610479,0.188849 -2.642958,0.109473 z"
       id="path838"
       inkscape:connector-curvature="0" />
    <path
       style="opacity:1;fill:#cca438;fill-opacity:1;stroke:#d4aa00;stroke-width:0.87312502"
       d="m 54.889751,88.975568 c -0.388637,-0.06452 -0.905466,-0.34416 -1.137752,-0.615536 -0.802961,-0.938079 -0.632963,-2.572362 0.336991,-3.239709 0.778889,-0.535892 1.969543,-0.509638 2.826044,0.06231 0.916703,0.612147 1.164662,1.560856 0.664309,2.541637 -0.300513,0.589054 -1.115208,1.136363 -1.869361,1.255842 -0.402153,0.06374 -0.409531,0.06365 -0.820231,-0.0044 z m 1.306701,-0.814923 c 0.541687,-0.276344 0.835983,-0.725059 0.83476,-1.272781 -8.73e-4,-0.544115 -0.281172,-0.985772 -0.797547,-1.258153 -0.230523,-0.121595 -0.347792,-0.145561 -0.716618,-0.146452 -0.392391,-9.61e-4 -0.474412,0.01778 -0.744181,0.169946 -1.389928,0.783992 -0.73931,2.770845 0.865921,2.64432 0.188229,-0.01484 0.439182,-0.0764 0.557665,-0.13688 z"
       id="path840"
       inkscape:connector-curvature="0" />
    <path
       style="opacity:1;fill:#cca438;fill-opacity:1;stroke:#d4aa00;stroke-width:0.87312502"
       d="m 61.805765,86.055458 c -0.749997,-0.07905 -0.654896,-0.176145 0.3262,-0.333067 0.583256,-0.09329 3.153064,-0.0954 3.746737,-0.0031 1.596299,0.248237 0.849131,0.398824 -1.927634,0.3885 -0.939866,-0.0035 -1.905254,-0.02705 -2.145303,-0.05235 z"
       id="path842"
       inkscape:connector-curvature="0" />
    <path
       style="opacity:1;fill:#cca438;fill-opacity:1;stroke:#d4aa00;stroke-width:0.87312502"
       d="m 61.663411,88.045611 c -0.56403,-0.05108 -0.876844,-0.137631 -0.7945,-0.219835 0.138155,-0.137919 1.283092,-0.331544 1.960454,-0.331544 0.767721,0 1.770863,0.227432 1.676513,0.380107 -0.09669,0.156446 -1.843725,0.26171 -2.842467,0.171272 z"
       id="path844"
       inkscape:connector-curvature="0" />
  </g>
</svg>
