<?xml version="1.0" encoding="UTF-8" standalone="no"?>
<!-- Created with Inkscape (http://www.inkscape.org/) -->

<svg
   xmlns:dc="http://purl.org/dc/elements/1.1/"
   xmlns:cc="http://creativecommons.org/ns#"
   xmlns:rdf="http://www.w3.org/1999/02/22-rdf-syntax-ns#"
   xmlns:svg="http://www.w3.org/2000/svg"
   xmlns="http://www.w3.org/2000/svg"
   xmlns:sodipodi="http://sodipodi.sourceforge.net/DTD/sodipodi-0.dtd"
   xmlns:inkscape="http://www.inkscape.org/namespaces/inkscape"
   version="1.1"
   id="svg2"
   width="47"
   height="54"
   viewBox="0 0 47 54"
   sodipodi:docname="drawing5.svg"
   inkscape:version="0.92.4 (5da689c313, 2019-01-14)">
  <metadata
     id="metadata8">
    <rdf:RDF>
      <cc:Work
         rdf:about="">
        <dc:format>image/svg+xml</dc:format>
        <dc:type
           rdf:resource="http://purl.org/dc/dcmitype/StillImage" />
        <dc:title></dc:title>
      </cc:Work>
    </rdf:RDF>
  </metadata>
  <defs
     id="defs6" />
  <sodipodi:namedview
     pagecolor="#ffffff"
     bordercolor="#666666"
     borderopacity="1"
     objecttolerance="10"
     gridtolerance="10"
     guidetolerance="10"
     inkscape:pageopacity="0"
     inkscape:pageshadow="2"
     inkscape:window-width="1360"
     inkscape:window-height="705"
     id="namedview4"
     showgrid="false"
     inkscape:zoom="8"
     inkscape:cx="3.5882254"
     inkscape:cy="25.797571"
     inkscape:window-x="-8"
     inkscape:window-y="-8"
     inkscape:window-maximized="1"
     inkscape:current-layer="svg2" />
  <g
     id="g106"
     transform="translate(-0.06057917,0.79062348)">
    <path
       style="opacity:1;vector-effect:none;fill:#cca438;fill-opacity:1;stroke:#ddc480;stroke-width:1;stroke-linecap:butt;stroke-linejoin:miter;stroke-miterlimit:4;stroke-dasharray:none;stroke-dashoffset:0;stroke-opacity:0"
       d="M 11,46.585838 0.5,40.369759 V 26.466598 12.563437 l 11,-6.2746286 c 6.05,-3.4510455 11.502777,-6.27781878 12.117282,-6.28171832 0.614506,-0.00389955 6.014506,2.83677932 12,6.31261962 L 46.5,12.639419 v 13.898572 13.898572 l -11,6.274629 c -6.05,3.451045 -11.675,6.23325 -12.5,6.182676 -0.825,-0.05057 -6.225,-2.889187 -12,-6.30803 z M 33.25,45.570429 C 35.8625,44.052169 38,42.41309 38,41.928031 38,39.911563 33.034553,37.886285 28.831683,38.188511 L 24.5,38.5 l -0.30158,6.398806 -0.30158,6.398807 2.30158,-1.483356 C 27.464289,48.998411 30.6375,47.088688 33.25,45.570429 Z M 25,47 c 0,-0.55 0.701558,-1 1.559017,-1 0.857459,0 1.280902,0.45 0.940983,1 -0.339919,0.55 -1.041476,1 -1.559017,1 C 25.423442,48 25,47.55 25,47 Z m 0.15,-2.95 c 0.429712,-1.289135 1.801307,-1.520703 1.925,-0.325 0.04125,0.39875 -0.465,0.905 -1.125,1.125 -0.66,0.22 -1.02,-0.14 -0.8,-0.8 z M 22,44 V 38 H 17.69113 C 13.380064,38 10.378139,39.419337 9.8049567,41.728652 9.5404307,42.794412 19.191786,49.702444 21.25,49.920531 21.6625,49.964239 22,47.3 22,44 Z m -7.664167,-0.567217 c -0.83346,-2.171962 1.282435,-4.214515 2.79695,-2.7 C 18.412816,42.012816 17.619834,45 16,45 15.415477,45 14.666601,44.294752 14.335833,43.432783 Z M 8,41.155539 c 0,-1.547482 4.473287,-5.959364 6.397706,-6.309884 1.75085,-0.318906 1.69281,-0.588984 -0.75,-3.490011 -2.946853,-3.499616 -3.258372,-4.87295 -1.373699,-6.055954 0.700704,-0.439829 2.015845,-1.968157 2.922537,-3.396284 2.070637,-3.261451 6.932367,-5.338852 10.436338,-4.459411 1.469437,0.368806 3.982604,2.073878 5.584815,3.78905 l 2.913111,3.118496 -0.315404,-2.925771 C 33.591801,19.351573 33.936589,18.5 35,18.5 c 2.063916,0 1.498199,10.492851 -0.656034,12.168043 -1.786827,1.389486 -0.924752,3.428209 3.413294,8.072103 2.748888,2.942695 2.942153,2.99519 5.082696,1.380576 2.119119,-1.598455 2.211687,-2.266136 1.942598,-14.011692 L 44.5,13.775774 34.041926,7.7353913 23.583851,1.6950083 19.541926,3.9854562 C 17.318867,5.2452026 12.4625,8.0336753 8.75,10.182062 L 2,14.08822 v 12.333918 c 0,11.65902 0.1231174,12.4198 2.25,13.903438 C 6.8142349,42.114295 8,42.376733 8,41.155539 Z M 39.096921,22.616783 c -0.891633,-1.074352 -0.769988,-1.528261 0.544773,-2.032783 1.983516,-0.761146 3.883053,0.757924 2.912157,2.328868 -0.907171,1.467832 -2.076099,1.367714 -3.45693,-0.296085 z M 6.5048947,22.00792 C 6.1676681,21.462276 6.2874117,20.308841 6.7709916,19.444732 7.5559655,18.042061 7.7854161,18.036516 8.9112038,19.393007 10.176367,20.917436 9.6502669,23 8,23 7.5149187,23 6.8421213,22.553564 6.5048947,22.00792 Z M 27.993942,14.4927 c -1.106509,-1.333261 -1.063384,-1.851829 0.264419,-3.179633 2.144494,-2.1444935 4.971931,-0.953065 4.561776,1.922247 -0.390706,2.738962 -3.026644,3.425713 -4.826195,1.257386 z M 17.570027,12.113307 c -0.301403,-0.487681 0.06233,-1.39323 0.808305,-2.012331 1.018791,-0.8455218 1.63602,-0.7886089 2.480313,0.228702 0.618202,0.744887 0.827907,1.650436 0.466012,2.012331 -0.943338,0.943338 -3.111906,0.811246 -3.75463,-0.228702 z m 11.506896,20.963616 c 3.457686,-3.457686 3.703266,-6.060887 0.818089,-8.671935 C 25.39634,20.333745 15,23.00484 15,28.231911 15,31.086271 20.376701,36 23.5,36 c 1.599865,0 3.814753,-1.160907 5.576923,-2.923077 z M 26.25,31.858603 c -1.792967,-1.805307 -1.540359,-2.900154 0.5,-2.167089 1.325126,0.476095 1.161413,-0.0171 -0.674314,-2.031385 C 24.742313,26.197058 24.101372,25 24.651372,25 c 0.55,0 2.056883,1.125 3.348628,2.5 1.291745,1.375 1.853183,2.5 1.247638,2.5 -0.605544,0 -1.246486,0.701371 -1.424314,1.558603 -0.25965,1.25166 -0.569493,1.31074 -1.573324,0.3 z M 27,20 c -0.825,-0.533156 -2.4,-0.969374 -3.5,-0.969374 -1.1,0 -2.675,0.436218 -3.5,0.969374 -1.077885,0.696583 -0.09295,0.969374 3.5,0.969374 3.592949,0 4.577885,-0.272791 3.5,-0.969374 z"
       id="path114"
       inkscape:connector-curvature="0" />
    <path
       style="opacity:1;vector-effect:none;fill:#cca438;fill-opacity:1;stroke:#ddc480;stroke-width:1;stroke-linecap:butt;stroke-linejoin:miter;stroke-miterlimit:4;stroke-dasharray:none;stroke-dashoffset:0;stroke-opacity:0"
       d="M 12,46.841 C 6.225,43.464413 1.1693907,40.206357 0.76531277,39.600876 c -0.95768935,-1.435029 -0.95768935,-24.765133 0,-26.206991 C 2.3203731,11.05265 23.017719,-0.20717807 24.629396,0.41128025 27.650595,1.5706232 45.492316,12.302506 46.234687,13.406969 46.638765,14.008136 46.969374,19.9 46.969374,26.5 c 0,6.6 -0.330609,12.497752 -0.734687,13.106115 C 45.357914,40.926149 24.784567,53.004326 23.43705,52.990125 22.921673,52.984694 17.775,50.217588 12,46.841 Z M 31.75,46.58778 C 35.1875,44.534857 38,42.228607 38,41.46278 38,39.307815 34.62573,38 29.065741,38 H 24 v 6.559017 c 0,3.607459 0.3375,6.379542 0.75,6.160184 0.4125,-0.219358 3.5625,-2.078497 7,-4.131421 z M 25,47 c 0,-0.55 0.45,-1 1,-1 0.55,0 1,0.45 1,1 0,0.55 -0.45,1 -1,1 -0.55,0 -1,-0.45 -1,-1 z m 0,-2.881966 c 0,-0.55 0.45,-1.278115 1,-1.618034 0.55,-0.339919 1,-0.168034 1,0.381966 0,0.55 -0.45,1.278115 -1,1.618034 -0.55,0.339919 -1,0.168034 -1,-0.381966 z M 22,44 v -6 h -4.5 c -3.238095,0 -5.088889,0.588889 -6.6,2.1 -1.155,1.155 -1.7175,2.453954 -1.25,2.886565 1.43031,1.323566 10.801685,6.97421 11.6,6.994435 C 21.6625,49.99145 22,47.3 22,44 Z M 14,42.666667 C 14,40.78579 14.962331,40.048315 16.597766,40.67589 18.724825,41.492119 18.27384,44 16,44 14.9,44 14,43.4 14,42.666667 Z M 9.9270875,38.422845 C 11.611987,35.949048 12.91161,35.005129 14.177087,35.336058 16.674075,35.989035 16.462984,34.703676 13.493713,31.174897 11.226691,28.480695 10.918221,25 12.946474,25 c 0.402873,0 1.255734,-1.148382 1.895247,-2.551961 2.887657,-6.337715 12.999837,-6.420894 17.138262,-0.140971 L 34.084103,25.5 33.792052,22 C 33.577248,19.425755 33.896752,18.5 35,18.5 c 2.494086,0 1.321851,9.32879 -1.610077,12.813189 C 32.075465,32.875333 31,34.654933 31,35.267855 c 0,0.612922 0.660688,0.240896 1.468197,-0.826725 0.807508,-1.067622 1.482508,-1.410671 1.5,-0.762332 0.01749,0.648339 1.551557,2.790206 3.409033,4.759705 3.291785,3.490308 3.431894,3.536386 5.537776,1.821202 2.035525,-1.657879 2.143893,-2.48038 1.872769,-14.214101 L 44.5,13.591208 34.5,7.81915 C 29,4.644518 24.05,2.0365336 23.5,2.023629 22.95,2.0107244 18,4.6102719 12.5,7.8004012 L 2.5,13.600636 2.2122247,26.050318 C 1.9415856,37.758654 2.0523904,38.604208 4.0730086,40.25 6.9462865,42.590283 7.127086,42.533852 9.9270875,38.422845 Z M 39.47616,22.961426 c -1.007965,-1.630922 1.231018,-3.654248 2.566222,-2.319044 0.723175,0.723175 0.597324,1.411746 -0.410973,2.248558 -1.074219,0.891523 -1.636456,0.90991 -2.155249,0.07049 z M 6.660457,21.557548 C 5.96635,19.748735 7.7949098,18.39491 9.1295139,19.729514 9.7365131,20.336513 9.5650403,21.116095 8.6591647,21.867905 7.5401184,22.796631 7.1103281,22.729894 6.660457,21.557548 Z m 22.00621,-6.224215 c -1.049967,-1.049967 -0.778285,-4.146315 0.429294,-4.89264 0.602779,-0.372538 1.801623,0.02832 2.664098,0.890794 1.291825,1.291826 1.341443,1.841285 0.281594,3.118325 -1.394132,1.679826 -2.332921,1.925587 -3.374986,0.883521 z M 18.5,12 c -1.076859,-1.742395 0.519288,-3.2288821 2.078017,-1.935251 0.769979,0.639025 1.153359,1.560877 0.851956,2.048558 C 20.700494,13.293627 19.265202,13.238122 18.5,12 Z m 9.586657,22.718197 c 7.360488,-5.651203 2.775177,-13.931126 -6.849894,-12.369192 -6.637558,1.077127 -8.130651,5.910953 -3.313686,10.727918 3.126683,3.126683 7.342234,3.807434 10.16358,1.641274 z m -2.627776,-3.784728 c -1.07627,-1.741443 0.149522,-2.110241 1.521063,-0.457635 C 27.768693,31.426218 27.844555,32 27.181462,32 26.596576,32 25.821415,31.520061 25.458881,30.933469 Z M 26,27.5 C 24.708255,26.125 24.101372,25 24.651372,25 c 0.55,0 2.056883,1.125 3.348628,2.5 1.291745,1.375 1.898628,2.5 1.348628,2.5 C 28.798628,30 27.291745,28.875 26,27.5 Z M 27.5,20 c -0.339919,-0.55 -2.139919,-1 -4,-1 -1.860081,0 -3.660081,0.45 -4,1 -0.377944,0.611525 1.175955,1 4,1 2.824045,0 4.377944,-0.388475 4,-1 z"
       id="path112"
       inkscape:connector-curvature="0" />
    <path
       style="opacity:1;vector-effect:none;fill:#cca438;fill-opacity:1;stroke:#ddc480;stroke-width:1;stroke-linecap:butt;stroke-linejoin:miter;stroke-miterlimit:4;stroke-dasharray:none;stroke-dashoffset:0;stroke-opacity:0"
       d="M 19.485191,50.891432 C 13.084371,47.504753 3.6460913,41.807795 1.75,40.186449 0.26087871,38.913102 0,36.872815 0,26.5 0,16.136673 0.26224072,14.082001 1.75,12.788647 3.840281,10.971502 22.499813,0 23.5,0 24.500187,0 43.159719,10.971502 45.25,12.788647 46.737759,14.082001 47,16.136673 47,26.5 47,36.868936 46.738565,38.915099 45.25,40.19663 43.629016,41.592162 24.508789,53 23.790775,53 23.614559,53 21.677046,52.051144 19.485191,50.891432 Z M 22.807212,43.892788 22.5,38.5 17.446126,38.204542 c -4.076184,-0.2383 -5.416115,0.104814 -6.926371,1.773629 -2.219337,2.45234 -1.8826973,2.900181 5.62983,7.489528 2.942728,1.79769 5.71366,2.942131 6.157627,2.543203 0.443966,-0.398929 0.668966,-3.15208 0.5,-6.118114 z M 14,42.5 c 0,-1.029958 0.655397,-1.52043 1.75,-1.309629 2.107843,0.405933 1.974934,2.180682 -0.197179,2.632953 C 14.646837,44.011966 14,43.460727 14,42.5 Z m 17.027154,4.824255 c 3.393772,-2.02166 6.42414,-4.336733 6.73415,-5.144608 C 38.671438,39.807876 35.015399,38 29.30887,38 H 24 v 6.5 c 0,3.575 0.192748,6.5 0.428329,6.5 0.235581,0 3.205052,-1.654085 6.598825,-3.675745 z M 25.5,47 c 0.339919,-0.55 0.816476,-1 1.059017,-1 C 26.801558,46 27,46.45 27,47 27,47.55 26.523442,48 25.940983,48 25.358524,48 25.160081,47.55 25.5,47 Z M 25,44 c 0,-0.55 0.476558,-1 1.059017,-1 0.582459,0 0.780902,0.45 0.440983,1 -0.339919,0.55 -0.816476,1 -1.059017,1 C 25.198442,45 25,44.55 25,44 Z M 9.5,39 c 1.411325,-2.11293 2.809428,-2.995096 4.75,-2.997125 2.978596,-0.0031 3.30237,-0.432281 1.731463,-2.295081 -5.288389,-6.271036 -5.128677,-5.87424 -3.268366,-8.120123 C 18.572657,18.513648 19.312657,18 23.644459,18 c 3.687763,0 4.651224,0.479594 7.062909,3.515792 L 33.5,25.031585 34,21.97644 c 0.789213,-4.822322 2.431931,-3.456705 2.111422,1.755258 -0.217555,3.537759 -1.027898,5.54808 -3.262093,8.092688 -1.634949,1.862104 -2.683098,3.675179 -2.32922,4.029056 0.353877,0.353877 1.281621,-0.229387 2.061652,-1.296144 C 33.469006,33.343919 34,33.119484 34,33.957851 c 0,0.737061 1.54017,2.835905 3.4226,4.664098 3.303486,3.208305 3.496212,3.264023 5.537775,1.601019 1.97947,-1.612426 2.096713,-2.522588 1.8274,-14.186255 L 44.5,13.573426 35,7.8547397 C 29.775,4.709462 24.6,2.136053 23.5,2.136053 c -1.1,0 -6.275,2.573409 -11.5,5.7186867 L 2.5,13.573426 2.2122247,26.036713 C 1.9415601,37.758947 2.0522003,38.604053 4.0730086,40.25 6.9079259,42.559038 7.1618111,42.500561 9.5,39 Z m 30,-16 c -0.399154,-0.645846 3.406426,1.214274 3.956426,0.664274 C 44.123092,22.997608 41.016176,20.217157 41.5,21 c 0.399154,0.645846 0.275735,1.624265 -0.274265,2.174265 C 40.559069,23.840931 39.983824,23.782843 39.5,23 Z M 6.5427051,21.069098 C 5.8031641,19.872496 7.6843299,18.686871 9.0163119,19.510081 10.13467,20.201265 9.400479,22 8,22 7.5149187,22 6.859136,21.581094 6.5427051,21.069098 Z M 29.25,15.296769 C 27.183809,14.530732 27.751603,11 29.940983,11 c 1.067541,0 2.245787,0.493183 2.618324,1.095961 0.859324,1.390415 -1.648897,3.816402 -3.309307,3.200808 z M 18.5,12 C 18.100846,11.354154 18.224265,10.375735 18.774265,9.8257354 19.440931,9.1590688 20.016176,9.2171569 20.5,10 c 0.399154,0.645846 0.275735,1.624265 -0.274265,2.174265 C 19.559069,12.840931 18.983824,12.782843 18.5,12 Z M 29.545455,33.545455 C 34.71012,28.380789 31.368998,22 23.5,22 c -7.881188,0 -11.052492,5.95377 -6.047749,11.353977 3.286264,3.545938 8.653757,3.630924 12.093204,0.191478 z m -4.086574,-2.611986 c -1.07627,-1.741443 0.149522,-2.110241 1.521063,-0.457635 C 27.768693,31.426218 27.844555,32 27.181462,32 26.596576,32 25.821415,31.520061 25.458881,30.933469 Z m 0.537415,-3.437412 C 24.706588,26.123226 24.110069,25 24.670698,25 c 1.277323,0 4.824304,3.838331 4.160448,4.502188 -0.26946,0.269459 -1.545142,-0.6333 -2.83485,-2.006131 z M 28,20 c -0.825,-0.533156 -2.85,-0.969374 -4.5,-0.969374 -1.65,0 -3.675,0.436218 -4.5,0.969374 -1.059639,0.684791 0.261446,0.969374 4.5,0.969374 4.238554,0 5.559639,-0.284583 4.5,-0.969374 z"
       id="path110"
       inkscape:connector-curvature="0"
       sodipodi:nodetypes="ssssssssssscssscsssssssscsssssssssssssscsssscssscssssscssscssscscscsssssssscscscsssssssssscssssss" />
    <path
       style="opacity:1;vector-effect:none;fill:#cca438;fill-opacity:1;stroke:#ddc480;stroke-width:1;stroke-linecap:butt;stroke-linejoin:miter;stroke-miterlimit:4;stroke-dasharray:none;stroke-dashoffset:0;stroke-opacity:0"
       d="M 12.394305,46.712146 C -0.99891417,39.022875 0,40.649242 0,26.532543 0,16.129629 0.26053404,14.086843 1.75,12.811204 4.4161686,10.527788 22.146972,0.66666667 23.586503,0.66666667 25.01549,0.66666667 42.556618,10.498206 45.25,12.808732 46.738858,14.085953 47,16.129021 47,26.5 47,36.87192 46.738993,38.913562 45.25,40.188796 41.959552,43.00687 25.266011,52.000054 23.381326,51.969939 22.346597,51.953406 17.402437,49.587399 12.394305,46.712146 Z M 23,44.5 V 38 H 17.828741 C 12.734483,38 8.9729701,39.881173 9.0207153,42.404988 9.0398567,43.416802 20.555698,50.861642 22.25,50.957547 22.6625,50.980896 23,48.075 23,44.5 Z m -9,-2 c 0,-1.029958 0.655397,-1.52043 1.75,-1.309629 2.107843,0.405933 1.974934,2.180682 -0.197179,2.632953 C 14.646837,44.011966 14,43.460727 14,42.5 Z m 18.108374,4.366308 c 6.607115,-3.925215 6.887427,-4.240425 5.558035,-6.25 -1.127661,-1.704628 -2.593075,-2.174222 -7.533204,-2.414025 L 24,37.904565 v 6.547718 C 24,48.053527 24.258826,51 24.57517,51 c 0.316343,0 3.706285,-1.860161 7.533204,-4.133692 z M 9.8418789,39 C 11.265095,37.074997 12.944978,36 14.529937,36 17.651066,36 17.644183,34.98713 14.5,31.594501 13.125,30.110851 12,28.320016 12,27.614868 12,26.909719 13.730875,24.457904 15.84639,22.16639 19.056705,18.688993 20.318791,18 23.478313,18 c 3.045285,0 4.444148,0.698336 7.15361,3.571202 L 34,25.142404 V 22.071202 C 34,20.382041 34.388094,19 34.862431,19 c 0.474338,0 0.742682,2.222895 0.596321,4.939767 -0.199112,3.696068 -0.919794,5.644734 -2.862432,7.739781 C 29.636667,34.871402 29.350284,36 31.5,36 c 0.825,0 1.5,-0.465658 1.5,-1.034796 0,-0.77876 5.299122,4.713107 6.624851,6.865816 0.333387,0.541351 4.814218,-2.039176 5.609836,-3.230724 C 45.638765,37.995133 45.969374,32.55 45.969374,26.5 c 0,-6.05 -0.330609,-11.518499 -0.734687,-12.152219 C 44.161667,12.664949 25.389117,2 23.5,2 21.610883,2 2.8383334,12.664949 1.7653128,14.347781 c -0.404078,0.63372 -0.741578,6.197189 -0.75,12.363264 -0.014008,10.255891 0.1711472,11.384759 2.1732486,13.25 C 6.1261564,42.697831 7.2253401,42.539058 9.8418789,39 Z M 6.5427051,21.069098 C 5.8031641,19.872496 7.6843299,18.686871 9.0163119,19.510081 10.13467,20.201265 9.400479,22 8,22 7.5149187,22 6.859136,21.581094 6.5427051,21.069098 Z M 28.480369,13.968236 c -0.388357,-0.628375 -0.235562,-1.613043 0.339546,-2.188151 1.343899,-1.343899 4.477138,-0.171685 3.930377,1.470441 -0.556604,1.671686 -3.386371,2.147328 -4.269923,0.71771 z m -9.883813,-1.812005 c -0.346049,-0.559919 -0.1419,-1.31919 0.453663,-1.687268 1.537485,-0.9502179 2.529468,0.35135 1.245982,1.634836 -0.71818,0.71818 -1.277526,0.735435 -1.699645,0.05243 z m 10.948899,21.389224 c 3.171589,-3.17159 3.280353,-7.853629 0.232039,-9.988751 -2.85854,-2.002199 -9.696448,-2.002199 -12.554988,0 C 11.983826,27.226018 16.410195,36 23.5,36 c 2.479237,0 4.350786,-0.759877 6.045455,-2.454545 z M 26,31 C 25.098708,30.41754 24.975367,30.024514 25.690983,30.015313 26.346024,30.006891 27.160081,30.45 27.5,31 c 0.767305,1.241525 0.421123,1.241525 -1.5,0 z M 25.9963,27.496057 C 24.706588,26.123226 24.110069,25 24.670698,25 c 1.277323,0 4.824304,3.838331 4.160448,4.502188 -0.26946,0.269459 -1.545142,-0.6333 -2.83485,-2.006131 z M 28.328526,20.25 C 26.508378,18.920093 22.197641,18.603192 19.581787,19.606989 16.467126,20.802196 18.104048,21.5 24.022451,21.5 c 5.05924,0 5.744578,-0.198945 4.306075,-1.25 z"
       id="path108"
       inkscape:connector-curvature="0"
       sodipodi:nodetypes="sssssssssscssssssssssscsssssssssscssssssssssssssssssssssscssccssssssssscscccssss" />
    <rect
       style="opacity:1;fill:#ffffff;fill-opacity:0.99497483;stroke:#ddc4ff;stroke-opacity:0"
       id="rect234"
       width="6.0244522"
       height="4.4463835"
       x="37.992756"
       y="19.999498" />
    <ellipse
       style="opacity:1;fill:#ffffff;fill-opacity:0.99497483;stroke:#ddc4ff;stroke-opacity:0"
       id="path236"
       cx="41.069496"
       cy="21.478319"
       rx="1.597919"
       ry="1.3994198" />
    <ellipse
       style="opacity:1;vector-effect:none;fill:#ffffff;fill-opacity:0.99497483;fill-rule:evenodd;stroke:#ddc4ff;stroke-width:1;stroke-linecap:butt;stroke-linejoin:miter;stroke-miterlimit:4;stroke-dasharray:none;stroke-dashoffset:0;stroke-opacity:0"
       id="path244"
       cx="41.650108"
       cy="21.671856"
       rx="1.6326563"
       ry="1.5532566" />
    <ellipse
       style="opacity:1;vector-effect:none;fill:#ffffff;fill-opacity:0.99497483;fill-rule:evenodd;stroke:#ddc4ff;stroke-width:1;stroke-linecap:butt;stroke-linejoin:miter;stroke-miterlimit:4;stroke-dasharray:none;stroke-dashoffset:0;stroke-opacity:0"
       id="path246"
       cx="40.598061"
       cy="21.473356"
       rx="2.1785293"
       ry="1.8708555" />
    <path
       style="opacity:1;vector-effect:none;fill:#cca438;fill-opacity:1;stroke:#ddc480;stroke-width:1;stroke-linecap:butt;stroke-linejoin:miter;stroke-miterlimit:4;stroke-dasharray:none;stroke-dashoffset:0;stroke-opacity:0"
       id="path258"
       sodipodi:type="arc"
       sodipodi:cx="40.096878"
       sodipodi:cy="23.78091"
       sodipodi:rx="1.5086083"
       sodipodi:ry="1.5085803"
       sodipodi:start="0"
       sodipodi:end="6.2825395"
       d="m 41.605486,23.78091 a 1.5086083,1.5085803 0 0 1 -1.508364,1.508581 1.5086083,1.5085803 0 0 1 -1.508852,-1.508093 1.5086083,1.5085803 0 0 1 1.507877,-1.509068 1.5086083,1.5085803 0 0 1 1.509339,1.507606 l -1.508608,9.74e-4 z" />
    <path
       style="opacity:1;vector-effect:none;fill:#cca438;fill-opacity:1;stroke:#ddc480;stroke-width:1;stroke-linecap:butt;stroke-linejoin:miter;stroke-miterlimit:4;stroke-dasharray:none;stroke-dashoffset:0;stroke-opacity:0"
       d="m -24.747969,16.495494 c -0.530644,-0.32957 -0.754564,-0.729174 -0.75389,-1.34538 0.0014,-1.256941 1.569953,-1.87719 2.470325,-0.976819 0.945158,0.945159 0.291389,2.471389 -1.058224,2.470435 -0.271138,-1.91e-4 -0.504442,-0.05273 -0.658211,-0.148236 z"
       id="path262"
       inkscape:connector-curvature="0"
       transform="translate(64.154959,8.5751678)" />
    <path
       style="opacity:1;vector-effect:none;fill:#cca438;fill-opacity:1;stroke:#ddc480;stroke-width:1;stroke-linecap:butt;stroke-linejoin:miter;stroke-miterlimit:4;stroke-dasharray:none;stroke-dashoffset:0;stroke-opacity:0"
       d="m -45.412923,4.9575979 c -1.274313,-0.4019242 -1.853845,-1.7815275 -1.302588,-3.1008711 0.463373,-1.1090089 2.11316,-1.55154761 3.2348,-0.86770266 0.936976,0.57125876 1.260872,1.99955186 0.672329,2.96478986 -0.557845,0.9148923 -1.605829,1.3187825 -2.604541,1.0037839 z"
       id="path264"
       inkscape:connector-curvature="0"
       transform="translate(64.154959,8.5751678)" />
    <path
       style="opacity:1;vector-effect:none;fill:#cca438;fill-opacity:1;stroke:#ddc480;stroke-width:1;stroke-linecap:butt;stroke-linejoin:miter;stroke-miterlimit:4;stroke-dasharray:none;stroke-dashoffset:0;stroke-opacity:0"
       d="m -45.300066,5.0158657 c -0.415328,-0.1088042 -0.660443,-0.2537253 -1.004162,-0.5936975 -0.714642,-0.7068523 -0.874295,-1.6900056 -0.425621,-2.6209987 0.263252,-0.5462453 0.911377,-1.04108688 1.537376,-1.17378216 1.22521,-0.25971202 2.42604,0.52313356 2.683505,1.74942996 0.07904,0.3764548 0.07434,0.6249061 -0.0187,0.9886847 -0.109354,0.4275716 -0.292546,0.753538 -0.596059,1.0606109 -0.568331,0.5749972 -1.386425,0.7966879 -2.176339,0.5897528 z"
       id="path266"
       inkscape:connector-curvature="0"
       transform="translate(64.154959,8.5751678)" />
    <path
       style="opacity:1;vector-effect:none;fill:#cca438;fill-opacity:1;stroke:#ddc480;stroke-width:1;stroke-linecap:butt;stroke-linejoin:miter;stroke-miterlimit:4;stroke-dasharray:none;stroke-dashoffset:0;stroke-opacity:0"
       d="m -45.094586,5.0770716 c -0.0043,-9.154e-4 -0.03506,-0.00697 -0.06836,-0.01346 -0.269926,-0.052585 -0.539224,-0.1605554 -0.777344,-0.311663 -0.481102,-0.3053012 -0.835306,-0.7924812 -0.9783,-1.3455734 -0.07559,-0.2923921 -0.09222,-0.5995299 -0.04878,-0.900952 0.0243,-0.1686 0.07527,-0.357312 0.140559,-0.5203546 0.03246,-0.08106 0.112359,-0.2417553 0.156913,-0.3155829 l 0.03654,-0.060547 1.914099,-9.805e-4 1.9141,-9.805e-4 0.03693,0.061527 c 0.04561,0.075997 0.114762,0.2133434 0.147993,0.2939492 0.187891,0.4557591 0.224467,0.9511707 0.105357,1.4270087 -0.172903,0.6907319 -0.66411,1.2635274 -1.320561,1.5399051 -0.143634,0.060472 -0.281905,0.1027733 -0.440782,0.1348474 l -0.07617,0.015378 -0.367187,-4.288e-4 c -0.201954,-2.359e-4 -0.370704,-0.00118 -0.375,-0.00209 z"
       id="path268"
       inkscape:connector-curvature="0"
       transform="translate(64.154959,8.5751678)" />
    <path
       style="opacity:1;vector-effect:none;fill:#cca438;fill-opacity:1;stroke:#ddc480;stroke-width:1;stroke-linecap:butt;stroke-linejoin:miter;stroke-miterlimit:4;stroke-dasharray:none;stroke-dashoffset:0;stroke-opacity:0"
       d="m -46.632812,1.6074219 -0.002,0.00391 c -1e-6,2.5e-6 -0.002,-2.5e-6 -0.002,0 0,0.00113 -0.01109,0.018029 -0.01758,0.029297 -7.2e-4,9.419e-4 -0.0014,0.00326 -0.002,0.00391 -0.0038,0.004 -0.0063,0.010955 -0.0078,0.015625 -0.0018,0.00305 -0.0019,0.00268 -0.0039,0.00586 -10e-4,0.00122 -0.003,0.00391 -0.0039,0.00391 -0.002,0 -0.002,0.00279 -0.002,0.00586 0,0.00307 -0.0044,0.00834 -0.0078,0.011719 -0.0033,0.00338 -0.0038,0.00583 -0.002,0.00586 0,0 0,0.00195 0,0.00195 -0.0048,0.00351 -0.01645,0.02157 -0.02734,0.044922 -0.0044,0.00962 -0.0082,0.018411 -0.0098,0.019531 -0.0016,0.00109 -0.02609,0.052543 -0.04492,0.091797 -0.01102,0.022761 -0.03557,0.06547 -0.03711,0.072266 -1.24e-4,5.437e-4 -0.0027,0.00796 -0.0039,0.011719 -1.78e-4,5.717e-4 1.22e-4,0.00162 0,0.00195 -0.0033,0.00691 -0.0086,0.015454 -0.0098,0.017578 -0.0051,0.00918 -0.0179,0.051784 -0.0332,0.09375 -0.0079,0.020532 -0.01689,0.042676 -0.02148,0.056641 -0.0092,0.02793 -0.01743,0.051997 -0.01953,0.054687 -0.0021,0.00268 -0.0035,0.00586 -0.002,0.00586 0.0014,0 0.0017,0.00122 0,0.00391 -3.36e-4,0.00104 1.05e-4,0.00344 0,0.00391 -0.0012,0.0032 -0.0034,0.0066 -0.0039,0.00977 -0.0011,0.00285 -0.0025,0.00438 -0.0039,0.00781 -0.0013,0.00318 6.94e-4,0.00353 0,0.00586 -9.57e-4,0.00322 -0.0026,0.00781 -0.002,0.00781 0.0012,0 1.47e-4,0.0019 -0.002,0.00586 -8e-4,0.0043 -0.0025,0.010452 -0.0039,0.013672 -5.65e-4,0.0021 -0.0016,0.00397 -0.002,0.00586 -8e-4,0.00437 -0.0012,0.00416 -0.002,0.00781 -0.0025,0.00757 -0.0049,0.013589 -0.0078,0.027344 -2.23e-4,5.129e-4 2.07e-4,0.00356 0,0.00391 -3.39e-4,0.00137 -0.0016,0.00251 -0.002,0.00391 -8.07e-4,0.00247 -0.0016,0.00496 -0.002,0.00781 -4.75e-4,0.00136 -0.0015,0.00276 -0.002,0.00391 -0.0021,0.00543 -0.0028,0.00977 -0.002,0.00977 8e-4,0 1.46e-4,0.00474 -0.002,0.011719 -0.0046,0.015039 -0.0078,0.02644 -0.0098,0.037109 -0.0014,0.00791 -0.0035,0.022236 -0.0059,0.035156 -0.0012,0.00652 -0.0023,0.00962 -0.0039,0.017578 -0.0015,0.00794 -0.0029,0.017788 -0.0039,0.023437 -1.79e-4,8.694e-4 -0.0019,0.00342 -0.002,0.00391 -4.68e-4,0.00252 -0.0013,0.00826 -0.002,0.013672 -1.08e-4,5.735e-4 9.6e-5,0.00144 0,0.00195 -1.15e-4,7.696e-4 1.42e-4,0.00119 0,0.00195 -1.57e-4,8.32e-4 1.77e-4,0.00285 0,0.00391 -0.0032,0.017174 -0.008,0.034536 -0.0098,0.046875 -2.97e-4,0.00154 2.5e-4,0.00483 0,0.00586 -4.44e-4,0.00599 -0.0012,0.01273 -0.002,0.017578 -0.0014,0.00725 -0.0017,0.0091 -0.0059,0.041016 -0.0023,0.017358 -0.0025,0.034962 -0.0039,0.048828 -1.09e-4,0.0011 1.06e-4,0.0028 0,0.00391 -0.0015,0.00858 -0.005,0.016643 -0.0059,0.025391 -2.6e-4,0.00268 2.4e-4,0.010631 0,0.013672 -8.89e-4,0.00893 7.01e-4,0.017687 0,0.025391 -3.2e-4,0.00574 -0.0016,0.00711 -0.002,0.013672 -3.91e-4,0.00738 3.04e-4,0.023141 0,0.033203 -0.0022,0.038108 -0.0054,0.066146 -0.0039,0.1445313 0.0012,0.064881 0.0028,0.064615 0.0039,0.087891 4.04e-4,0.012908 -5.75e-4,0.042879 0,0.048828 10e-4,0.010743 0.0028,0.025282 0.0039,0.039063 0,0 0,0.00195 0,0.00195 2.69e-4,0.00298 -2.85e-4,0.011047 0,0.013672 7.51e-4,0.00691 0.0029,0.012938 0.0039,0.019531 2.04e-4,0.00128 -1.56e-4,0.00258 0,0.00391 0.0011,0.010828 7.55e-4,0.022858 0.002,0.029297 4.5e-4,0.00241 0.0014,0.0084 0.002,0.011719 7.7e-5,8.878e-4 -9.7e-5,0.00323 0,0.00391 10e-4,0.00644 0.0028,0.018754 0.0039,0.027344 0.0011,0.00859 0.0029,0.020894 0.0039,0.027344 10e-4,0.00644 0.0026,0.018754 0.0039,0.027344 6.63e-4,0.00438 0.0027,0.00747 0.0039,0.011719 1.36e-4,0.00121 -9.5e-5,0.00489 0,0.00586 5.04e-4,0.0018 0.0017,0.00463 0.002,0.00586 8.39e-4,0.00478 10e-4,0.010269 0.002,0.011719 1.88e-4,0.00204 -2.92e-4,0.00427 0,0.00586 0.0011,0.00408 0.0032,0.00869 0.0039,0.015625 0.0023,0.00995 0.0045,0.021436 0.0059,0.027344 0.0013,0.00537 0.0029,0.014161 0.0039,0.019531 0.0037,0.019269 0.0039,0.025503 0.0059,0.033203 0.0064,0.024465 0.0042,0.017164 0.0078,0.03125 5e-4,0.00439 0.0022,0.00898 0.0039,0.011719 0.0012,0.00458 0.0012,0.010522 0.002,0.013672 2.8e-4,6.278e-4 -4.5e-4,0.00137 0,0.00195 6.62e-4,8.532e-4 0.0031,0.00953 0.0039,0.011719 6.92e-4,0.00353 0.0063,0.025391 0.0059,0.025391 -0.0011,0 -3.47e-4,0.00117 0.002,0.00391 0.0013,0.00506 0.0024,0.00345 0.0039,0.00977 7.2e-4,0.00222 0.0016,0.00389 0.002,0.00586 0.0014,0.00546 0.002,0.010484 0.0039,0.015625 0.0014,0.00322 0.0031,0.00937 0.0039,0.013672 8e-4,0.00429 0.0025,0.010452 0.0039,0.013672 0.0015,0.00541 0.0054,0.0112 0.0059,0.013672 2.58e-4,7.23e-4 -2.64e-4,0.00121 0,0.00195 5.14e-4,0.00252 -1.23e-4,0.00546 0,0.00586 1.64e-4,5.4e-4 0.0018,0.0023 0.002,0.00391 2e-4,0.00162 2.54e-4,0.00566 0.002,0.00781 0.0013,0.0016 0.0036,0.00964 0.0059,0.015625 5.7e-4,0.00198 0.0013,0.00393 0.002,0.00586 0.0025,0.00753 0.0068,0.012279 0.0078,0.017578 2.67e-4,7.373e-4 -2.95e-4,0.00108 0,0.00195 4.31e-4,0.00126 0.0015,0.00261 0.002,0.00391 1.5e-4,4.102e-4 -1.02e-4,0.00183 0,0.00195 4e-4,5.4e-4 -4.48e-4,0.0023 0,0.00391 5e-4,0.00161 0.0034,0.00762 0.0059,0.013672 0.0025,0.00605 0.0059,0.014858 0.0059,0.017578 0,0.00272 3.53e-4,0.0062 0.002,0.00781 0.0016,0.00161 0.0037,0.00248 0.0039,0.00391 2e-4,0.00144 3.53e-4,0.00742 0.002,0.011719 0.0067,0.017584 0.0074,0.019614 0.0078,0.021484 3e-4,0.00107 0.0032,0.00494 0.0059,0.00977 0.0027,0.00483 0.0051,0.00977 0.0039,0.00977 -0.0012,0 4.06e-4,0.0044 0.0039,0.00977 6.14e-4,0.0015 0.0014,0.00447 0.002,0.00586 3.42e-4,0.00126 0.0026,0.00391 0.002,0.00391 -0.0015,0 -0.0022,0.00122 0,0.00391 0.0017,0.00211 0.01123,0.02221 0.01953,0.041016 3.93e-4,0.00102 0.0019,0.00753 0.002,0.00781 8.26e-4,0.00191 0.0011,0.00196 0.002,0.00391 0.0016,0.00357 0.0041,0.00854 0.0078,0.015625 0.0047,0.00887 0.0072,0.018191 0.0059,0.019531 l 0.002,0.00195 c 0.0025,0 0.0043,3.431e-4 0.0039,0.00195 -0.001,0.00386 0.04869,0.103165 0.05469,0.109375 0.0026,0.00265 0.008,0.013727 0.01172,0.023437 0.0037,0.00971 0.0081,0.017578 0.0098,0.017578 0.0011,0.00195 0.0027,0.00391 0.0039,0.00586 9.91e-4,0.00251 6.17e-4,0.00379 0.002,0.00781 0.0025,0.00752 0.006,0.013672 0.0078,0.013672 4.75e-4,0 0.0012,0.00143 0.002,0.00195 4.52e-4,9.13e-4 0.0017,0.00329 0.002,0.00391 1.98e-4,4.577e-4 0.0036,0.00331 0.0039,0.00391 0.0012,0.00207 0.0027,0.0038 0.0039,0.00586 10e-4,0.00186 0.0043,0.00909 0.0059,0.011719 6.14e-4,0.00218 0.002,0.00432 0.002,0.00586 0,0.00307 0.0019,0.00586 0.0039,0.00586 0.0012,0 0.0021,0.0038 0.0039,0.00586 0.0011,0.00123 0.0033,1.794e-4 0.0039,0.00195 0.0015,0.00473 0.0049,0.010732 0.0078,0.013672 0.0029,0.00293 0.0039,0.00865 0.0039,0.011719 0,0.00307 0.0018,0.00586 0.0039,0.00586 0.0021,0 0.0039,0.00264 0.0039,0.00586 0,0.00322 0.0018,0.00586 0.0039,0.00586 0.0021,0 0.0039,0.00282 0.0039,0.00586 0,0.00305 0.0021,0.00514 0.0039,0.00586 0.0025,0.00421 0.0066,0.00942 0.0078,0.011719 0.003,0.00587 0.0083,0.013778 0.01172,0.017578 0.0074,0.011744 0.01563,0.023112 0.01563,0.025391 0,0.00227 0.0018,0.00391 0.0039,0.00391 0.0021,0 0.0039,0.00187 0.0039,0.00391 0,0.00204 0.0044,0.00787 0.0098,0.013672 5.31e-4,0.00112 0.0039,0.00542 0.0039,0.00586 6.02e-4,8.735e-4 0.0015,0.00114 0.002,0.00195 5.28e-4,4.737e-4 -7.2e-4,0.00195 0,0.00195 1.45e-4,0 -1.88e-4,0.00187 0,0.00195 6.62e-4,0.0014 0.0039,0.00312 0.0039,0.00391 0,0.00268 0.0027,0.00657 0.0059,0.00781 4.13e-4,1.538e-4 0.0015,-2.2e-4 0.002,0 0.0031,0.00154 0.0059,0.00514 0.0059,0.00781 0,0.00306 0.0027,0.00462 0.0059,0.00586 0.0054,0.00765 0.0096,0.016225 0.01563,0.023437 0.0022,0.00259 0.0037,0.00324 0.0059,0.00586 9.83e-4,0.00203 1.79e-4,0.00397 0.002,0.00586 0.0038,0.00404 0.01,0.010535 0.01367,0.015625 3.04e-4,4.057e-4 0.0017,0.00164 0.002,0.00195 3.24e-4,4.328e-4 0.0016,0.00151 0.002,0.00195 0.02029,0.027461 0.09576,0.1157911 0.130859,0.1523438 0.01434,0.014939 0.02235,0.020547 0.03906,0.037109 0.0027,0.00328 0.0046,0.00657 0.0078,0.00977 0.0051,0.00508 0.01042,0.00806 0.01563,0.011719 0.02821,0.027346 0.04845,0.046615 0.06641,0.0625 0.0071,0.00787 0.01591,0.01861 0.02148,0.023437 0.01182,0.010233 0.02545,0.024047 0.03125,0.029297 0.0057,0.00525 0.01147,0.00977 0.01367,0.00977 0.0021,0 0.0066,0.00325 0.0098,0.00781 0.0032,0.00457 0.0095,0.011252 0.01367,0.013672 0.0018,0.00106 0.01823,0.013104 0.02734,0.019531 7.39e-4,5.213e-4 0.0012,0.0014 0.002,0.00195 0.0037,0.00355 0.02062,0.015908 0.04102,0.03125 0.04054,0.030489 0.07888,0.052645 0.121093,0.080078 0.01522,0.00976 0.03014,0.020067 0.04492,0.029297 0.0071,0.00439 0.01228,0.011264 0.01953,0.015625 0.0038,0.00231 0.0079,0.00358 0.01172,0.00586 0.0235,0.014064 0.04206,0.02495 0.04492,0.027344 1.47e-4,1.225e-4 0.0019,0.00188 0.002,0.00195 0.0011,0.0014 0.0089,0.00703 0.01953,0.011719 0.0087,0.00382 0.0143,0.00597 0.01758,0.00781 7.44e-4,4.175e-4 0.0037,0.00166 0.0039,0.00195 0.003,0.00408 0.107981,0.056641 0.113281,0.056641 7.06e-4,2.833e-4 0.0057,0.00391 0.0059,0.00391 0,0.00227 0.0018,0.00328 0.0039,0.00195 0.0021,-0.00133 0.0039,-6.769e-4 0.0039,0.00195 l 0.002,0.00195 c 0.0014,-0.00142 0.01023,0.00235 0.01953,0.00781 0.006,0.00278 0.0065,0.00247 0.01367,0.00586 7.65e-4,1.825e-4 0.0039,0.00223 0.0039,0.00195 0,-0.00122 0.0034,5.862e-4 0.0098,0.00391 0.01353,0.00622 0.03041,0.013672 0.03125,0.013672 0.0012,0 0.01035,0.00469 0.02148,0.00977 0.01114,0.00507 0.02585,0.010209 0.03125,0.011719 0.0011,3.001e-4 0.0027,-3.806e-4 0.0039,0 0.0035,0.00143 0.0087,0.00363 0.0098,0.00391 0.0022,5.5e-4 0.0092,0.00314 0.01563,0.00586 0.0053,0.00206 0.01067,0.00483 0.01367,0.00586 0.0011,3.801e-4 0.0046,6.432e-4 0.0078,0.00195 0.0032,0.00122 0.0208,0.00782 0.03906,0.013672 0.01826,0.00585 0.03586,0.010569 0.03906,0.011719 9.41e-4,2.561e-4 0.0032,0.00176 0.0039,0.00195 0.0014,7.748e-4 0.0031,0.00173 0.0039,0.00195 2.32e-4,4.89e-5 0.0018,-3.43e-5 0.002,0 0.0015,4.723e-4 0.0031,0.00158 0.0039,0.00195 0.0026,6.64e-4 0.004,0.00123 0.0059,0.00195 0.0022,5.4e-4 0.0034,0.00151 0.0039,0.00195 3.89e-4,3.168e-4 0.0054,0.0014 0.0098,0.00195 0.0017,2.14e-4 0.0021,-2.912e-4 0.0039,0 0.003,7.68e-4 0.0023,0.00236 0.0098,0.00391 0.0018,8.255e-4 0.0049,0.00111 0.0059,0.00195 0.0028,0.00227 0.0059,0.00323 0.0059,0.00195 0.0035,0.00106 0.0071,9.226e-4 0.0098,0.00195 0.006,0.00231 0.01438,0.00505 0.01758,0.00586 0.0011,2.462e-4 0.003,-1.608e-4 0.0039,0 0.0053,0.00137 0.02038,0.00685 0.03906,0.011719 0.02041,0.00532 0.04243,0.010409 0.04883,0.011719 0.0064,0.0013 0.01353,0.00334 0.01563,0.00391 0.0078,0.00206 0.02325,0.00321 0.03711,0.00586 0.003,5.682e-4 0.0049,0.00142 0.0078,0.00195 0.0013,5.101e-4 0.0025,0.00165 0.0039,0.00195 0.004,7.139e-4 0.0077,0.00131 0.01172,0.00195 6.03e-4,9.47e-5 0.0014,-8.93e-5 0.002,0 l 0.05859,0.013672 0.380859,-0.00195 c 0.0029,-6.2e-6 9.33e-4,6.5e-6 0.0039,0 h 0.375 l 0.01563,-0.00391 0.02148,-0.00586 c 0.0027,-1.277e-4 0.02015,-0.00414 0.0293,-0.00586 0.03652,-0.00804 0.06982,-0.015056 0.07422,-0.015625 6.63e-4,-8.55e-5 0.0013,1.468e-4 0.002,0 0.0032,-8.3e-4 0.01374,-0.00347 0.02344,-0.00586 0.0147,-0.00363 0.01635,-0.00436 0.02148,-0.00586 0.0089,-0.00183 0.02369,-0.00508 0.02539,-0.00586 0.0011,-4.9e-4 0.0038,-0.00145 0.0059,-0.00195 8.8e-4,-2.001e-4 0.0011,-0.00165 0.002,-0.00195 4.04e-4,8.46e-5 0.003,1.632e-4 0.0039,0 0.0011,-4.2e-4 0.0055,-9.644e-4 0.0098,-0.00195 0.01281,-0.00294 0.02048,-0.00502 0.02148,-0.00586 3e-4,-2.58e-4 10e-4,-0.00151 0.002,-0.00195 6.09e-4,-2.982e-4 0.0013,1.817e-4 0.002,0 5.73e-4,-1.096e-4 0.0013,-0.00181 0.002,-0.00195 0.0016,-8.471e-4 0.0036,-9.731e-4 0.0059,-0.00195 0.0032,-0.00141 0.01022,-0.00297 0.01563,-0.00391 0.0029,-9.863e-4 0.0052,-9.441e-4 0.0078,-0.00195 0.0011,-1.786e-4 0.0037,1.389e-4 0.0039,0 0.0084,-0.00296 0.01562,-0.00683 0.01562,-0.00586 9.38e-4,-2.697e-4 0.0037,-0.00106 0.0059,-0.00195 0.0018,-0.0012 0.0025,-0.00131 0.0039,-0.00195 0.0011,-4.801e-4 0.0025,-0.0015 0.0039,-0.00195 0.0016,-5.404e-4 0.0036,-10e-4 0.0059,-0.00195 0.0013,-2.972e-4 0.0029,1.966e-4 0.0039,0 0.0039,-7.4e-4 0.0073,-0.00152 0.0078,-0.00195 6e-4,-4.3e-4 0.0018,-0.00142 0.0039,-0.00195 0.0022,-5.3e-4 0.0067,-0.00142 0.0078,-0.00195 0.0011,-5.3e-4 0.0038,-0.00142 0.0059,-0.00195 0.0022,-5.3e-4 0.0048,-0.00142 0.0059,-0.00195 0.0011,-5.4e-4 0.0023,-0.0015 0.0039,-0.00195 0.0016,-4.502e-4 0.0092,-0.00314 0.01563,-0.00586 0.0052,-0.00183 0.0069,-0.00224 0.01172,-0.00391 7.12e-4,-2.722e-4 0.0013,-0.00175 0.002,-0.00195 0.0054,-0.00186 0.0095,-0.00251 0.01367,-0.00391 2.98e-4,-8.14e-5 0.0031,-0.00159 0.0039,-0.00195 0.0048,-0.00158 0.01646,-0.00562 0.01758,-0.00586 0.0038,-8.199e-4 0.01444,-0.00556 0.02344,-0.00977 0.0081,-0.00376 0.0087,-0.00277 0.01563,-0.00586 10e-4,-1.8e-4 0.005,-0.00317 0.0098,-0.00586 0.003,-0.00165 0.004,-0.00185 0.0059,-0.00195 0.0011,-4.557e-4 0.0029,4.038e-4 0.0039,0 0,0.0012 0.0028,-6.263e-4 0.0078,-0.00391 0.005,-0.00328 0.01032,-0.00535 0.01172,-0.00391 1.81e-4,-3.47e-5 0.0018,-0.00195 0.002,-0.00195 8.9e-5,0 0.0018,-0.00193 0.002,-0.00195 10e-4,-1.855e-4 0.01377,-0.00621 0.01758,-0.00781 7e-4,-2.947e-4 0.0031,3.441e-4 0.0039,0 0.0047,-0.00193 0.0097,-0.00514 0.0098,-0.00391 h 0.002 c 0.0032,-0.00433 0.03743,-0.021123 0.04687,-0.023437 0.0011,-2.706e-4 0.0056,-0.00218 0.0059,-0.00195 8e-4,8.6e-4 0.004,-0.00208 0.0078,-0.00586 0.0038,-0.00378 0.0097,-0.00513 0.01172,-0.00391 0.002,0.00122 0.0039,6.769e-4 0.0039,-0.00195 0,-0.00158 0.0015,-0.00124 0.002,-0.00195 3.12e-4,-4.768e-4 -5.2e-4,-0.00249 0,-0.00195 0.0013,0.00133 0.0047,0.00119 0.0078,-0.00195 0.0031,-0.00314 0.0078,-0.00513 0.0098,-0.00391 l 0.002,-0.00195 c 0,-0.00378 0.01068,-0.00839 0.01758,-0.00781 0.0015,1.231e-4 0.0025,-0.00243 0.0039,-0.00391 0.01934,-0.0092 0.03601,-0.017881 0.03711,-0.019531 0.0014,-4.429e-4 0.0053,-0.00209 0.0059,-0.00195 l 0.002,-0.00195 c 0,-0.00227 0.0018,-0.00328 0.0039,-0.00195 0.0021,0.00132 0.0039,-2.32e-5 0.0039,-0.00195 0,-0.0031 0.01035,-0.00823 0.02148,-0.011719 7.51e-4,-2.322e-4 0.0028,-0.0013 0.0039,-0.00195 0.0016,-9.21e-4 0.0027,-0.00248 0.0039,-0.00391 7.74e-4,-4.898e-4 0.0011,-0.00145 0.002,-0.00195 9.94e-4,-9.94e-4 0.0026,-0.00116 0.0039,-0.00195 0.0024,-0.00147 0.0058,-0.00195 0.0078,-0.00195 0.0031,0 0.0059,-0.00225 0.0059,-0.00391 0,-0.00166 0.0074,-0.00639 0.01758,-0.011719 0.0011,-0.00135 0.0081,-0.00597 0.01563,-0.00977 0.0063,-0.0032 0.01802,-0.011144 0.02734,-0.017578 0.0029,-7.211e-4 0.004,-0.00123 0.0059,-0.00195 0.0017,-0.00124 0.0022,-8.17e-4 0.0039,-0.00195 0,-0.00191 9.07e-4,-0.00391 0.0039,-0.00391 0.0024,0 0.0043,-0.00245 0.0059,-0.00391 4.36e-4,-2.268e-4 0.0016,1.891e-4 0.002,0 1.59e-4,-3.952e-4 0.0049,-0.003 0.0059,-0.00391 0.0024,0 0.0039,-0.00229 0.0039,-0.00391 0,-0.00163 0.0057,-0.00514 0.01172,-0.00781 0.006,-0.00267 0.01493,-0.00742 0.01953,-0.011719 0.0046,-0.0043 0.0095,-0.00781 0.01172,-0.00781 0.0023,0 0.0059,-0.0021 0.0059,-0.00391 0,-7.599e-4 0.004,-0.00237 0.0059,-0.00391 0.0021,0 0.0051,-0.00217 0.0059,-0.00391 6.8e-5,-1.668e-4 0.0017,-0.00167 0.002,-0.00195 0.0022,-0.00258 0.01007,-0.00848 0.01953,-0.015625 0.0038,-0.00122 0.01579,-0.00905 0.02539,-0.017578 0.0085,-0.0076 0.0145,-0.012315 0.01758,-0.013672 9.36e-4,-8.582e-4 10e-4,-0.00114 0.002,-0.00195 0.0017,-5.41e-5 0.01038,-0.00583 0.01758,-0.011719 0.0011,0 9.88e-4,-0.00145 0.002,-0.00195 0.0011,-9.73e-4 0.0027,-9.314e-4 0.0039,-0.00195 0,-0.00148 0.0092,-0.00933 0.01953,-0.017578 5.39e-4,-3.968e-4 0.0014,-0.00155 0.002,-0.00195 0.02756,-0.021526 0.0809,-0.066903 0.101562,-0.085937 0.01093,-0.010076 0.03191,-0.030309 0.05273,-0.050781 0.01364,-0.01309 0.02575,-0.027578 0.03906,-0.041016 0.03301,-0.033074 0.07168,-0.068445 0.08008,-0.078125 0.01074,-0.012387 0.02485,-0.029999 0.03125,-0.037109 5.59e-4,-6.167e-4 0.0014,-0.0013 0.002,-0.00195 0.0041,-0.0048 0.01271,-0.013278 0.01953,-0.021484 0.0054,-0.0067 0.01278,-0.016674 0.01758,-0.021484 0.0048,-0.00481 0.0098,-0.011312 0.0098,-0.013672 0.0029,-0.0035 0.0051,-0.00451 0.0078,-0.00781 0.0043,-0.00229 0.0078,-0.0071 0.0078,-0.00977 9.26e-4,-0.00113 0.0011,-0.00284 0.002,-0.00391 9.45e-4,-0.00202 0.0016,-0.00378 0.0039,-0.00586 0.0048,-0.00587 0.01592,-0.017408 0.01758,-0.019531 0.0028,-0.00362 0.01146,-0.018817 0.01758,-0.027344 0.0018,-0.00257 0.0035,-0.00518 0.0059,-0.00781 0.0017,-0.00239 0.0041,-0.0033 0.0059,-0.00586 0.0011,-0.00116 0.0013,-0.00236 0.002,-0.00391 0.0032,-0.00455 0.0044,-0.00689 0.0078,-0.011719 0.0023,-0.00206 0.0032,-0.00333 0.0059,-0.00586 0.0054,-0.00504 0.0098,-0.012775 0.0098,-0.015625 0,-0.00285 0.0018,-0.00391 0.0039,-0.00391 0.0021,0 0.0039,-0.00214 0.0039,-0.00391 0,-0.0021 0.01509,-0.025419 0.0293,-0.046875 0.0021,-0.00332 0.01173,-0.01653 0.02148,-0.03125 2.1e-4,-1.608e-4 -1.95e-4,-0.0016 0,-0.00195 7.41e-4,-0.00112 0.0012,-8.528e-4 0.002,-0.00195 0.0042,-0.00643 0.0049,-0.00897 0.0078,-0.013672 4.92e-4,-8.035e-4 0.0015,-0.00123 0.002,-0.00195 0.002,0 0.002,-0.00264 0.002,-0.00586 0,-0.00322 0.0018,-0.00586 0.0039,-0.00586 0.0011,0 0.0012,-0.00118 0.002,-0.00195 0,-1.361e-4 0.0018,-0.00163 0.002,-0.00195 -1.8e-4,-5.53e-4 0.0061,-0.00812 0.0078,-0.011719 5.34e-4,-0.00111 0.0013,-0.00258 0.002,-0.00391 0.0011,-0.00178 0.0028,-0.00591 0.0039,-0.00781 0.01098,-0.020411 0.02414,-0.044622 0.02734,-0.046875 8.65e-4,-6.098e-4 0.01295,-0.02627 0.01953,-0.039063 0.006,-0.010915 0.0147,-0.0267 0.01563,-0.027344 0.0016,-0.00111 0.01063,-0.017814 0.01953,-0.037109 0.0089,-0.019295 0.02029,-0.043945 0.02539,-0.054688 0.0061,-0.012931 0.005,-0.014834 0.0098,-0.025391 5.78e-4,-0.00276 0.01189,-0.026818 0.01758,-0.041016 0.0017,-0.00416 0.0039,-0.00696 0.0059,-0.011719 5.57e-4,-0.00135 0.0015,-0.00254 0.002,-0.00391 1.07e-4,-5.417e-4 -1.69e-4,-0.00136 0,-0.00195 0.0011,-0.00385 0.0037,-0.00717 0.0059,-0.00977 0.0025,-0.003 0.0036,-0.00586 0.002,-0.00586 -0.0016,0 -0.0015,-0.0044 0.002,-0.00977 0.0022,-0.00332 0.0033,-0.00409 0.0039,-0.00586 6.41e-4,-0.00149 0.0012,-0.00219 0.002,-0.00391 -2.31e-4,0 5.9e-5,-0.00168 0,-0.00195 5.69e-4,-0.00129 -5.37e-4,-0.00255 0,-0.00391 5.37e-4,-0.0015 8.1e-4,-0.00186 0.002,-0.00391 0.0027,-0.00483 0.0038,-0.010289 0.0039,-0.011719 2.79e-4,-0.00109 0.0018,-0.00317 0.002,-0.00391 3.58e-4,-4.822e-4 0.0016,4.025e-4 0.002,0 0.0016,-0.00161 0.0039,-0.00669 0.0039,-0.00977 0,-0.00105 0.0014,-0.0039 0.002,-0.00586 1.62e-4,-6.084e-4 -2.01e-4,-0.00129 0,-0.00195 0.0033,-0.00491 0.005,-0.00781 0.0039,-0.00781 -0.0011,0 0.0013,-0.011083 0.0059,-0.023437 0.0046,-0.012353 0.01012,-0.024997 0.01172,-0.029297 0.0015,-0.0043 0.0014,-0.00957 0.002,-0.011719 7.46e-4,-0.00301 10e-4,-0.00462 0.002,-0.00781 0.0048,-0.014893 0.01284,-0.032474 0.01367,-0.037109 3.02e-4,-0.00171 0.0015,-0.00218 0.002,-0.00391 0.0022,-0.00268 0.0035,-0.00391 0.002,-0.00391 -0.0014,0 -0.0017,-0.00317 0,-0.00586 0.0014,-0.0023 0.0033,-0.00708 0.0039,-0.00977 2.7e-4,-0.00119 -2.51e-4,-8.704e-4 0,-0.00195 5.99e-4,-0.00429 0.0025,-0.010452 0.0039,-0.013672 1.15e-4,-2.337e-4 0.0019,-0.00195 0.002,-0.00195 3.58e-4,0 8.31e-4,-0.00733 0.002,-0.011719 2.42e-4,-0.0013 0.0016,-0.0024 0.002,-0.00391 5.35e-4,-0.00224 -7.31e-4,-7.796e-4 0,-0.00391 3.03e-4,-0.0013 0.0014,-0.004 0.002,-0.00586 0.0014,-0.00323 0.0015,-0.00762 0.002,-0.00977 3.5e-4,-0.0015 0.0015,-0.00263 0.002,-0.00391 3.95e-4,-0.00102 -3.18e-4,-0.00102 0,-0.00195 0.0015,-0.00449 0.0047,-0.00781 0.0039,-0.00781 -10e-4,0 -1.47e-4,-0.00434 0.002,-0.00977 0.0021,-0.00543 0.0029,-0.014751 0.0039,-0.019531 6.83e-4,-0.00205 0.0014,-0.00433 0.002,-0.00586 1.83e-4,-8.463e-4 -1.73e-4,-0.00116 0,-0.00195 0.0029,-0.00907 0.0044,-0.016332 0.0059,-0.025391 9.1e-5,-3.291e-4 -1.08e-4,-0.00154 0,-0.00195 7e-4,-0.00429 0.0015,-0.00781 0.002,-0.00781 7.94e-4,-0.00367 0.0033,-0.00599 0.0039,-0.00977 0.0012,-0.00734 0.0012,-0.014325 0.002,-0.015625 1.54e-4,-2.5e-4 -2.12e-4,-0.00314 0,-0.00391 5.36e-4,-0.00321 9.59e-4,-0.00624 0.002,-0.00977 4.53e-4,-0.00263 0.0015,-0.0029 0.002,-0.00586 3.31e-4,-0.00227 0.0016,-0.00357 0.002,-0.00586 0.0015,-0.00461 0.0032,-0.011325 0.0039,-0.015625 1.56e-4,-10e-4 -1.55e-4,-0.00283 0,-0.00391 0.0013,-0.00454 0.0038,-0.024802 0.0059,-0.035156 0.0013,-0.00644 0.0029,-0.016987 0.0039,-0.023437 10e-4,-0.00645 0.0028,-0.016987 0.0039,-0.023438 3.76e-4,-0.00212 0.0016,-0.00571 0.002,-0.00781 0.0026,-0.016647 0.0038,-0.025625 0.0059,-0.041016 0.0013,-0.0098 0.0029,-0.021247 0.0039,-0.029297 2.68e-4,-0.00212 -2.52e-4,-0.00577 0,-0.00781 0.0013,-0.010742 0.0048,-0.027439 0.0059,-0.037109 0.0013,-0.011062 0.0011,-0.030493 0.002,-0.042969 0.0019,-0.024401 0.0047,-0.033463 0.0078,-0.082031 7.21e-4,-0.011296 -0.0044,-0.025467 -0.0039,-0.037109 1.8e-4,-0.013455 0.0018,-0.020733 0.002,-0.035156 4.32e-4,-0.028022 6.15e-4,-0.055954 0,-0.083984 -7.53e-4,-0.080902 -0.0037,-0.1309587 -0.01367,-0.2226563 -0.0024,-0.022446 -0.0079,-0.063779 -0.01172,-0.085937 -9e-4,-0.00537 -9.8e-4,-0.015034 -0.002,-0.021484 -0.0028,-0.018621 -0.0072,-0.040623 -0.01172,-0.0625 0,0 0,-0.00195 0,-0.00195 -0.0011,-0.00537 -0.0029,-0.014161 -0.0039,-0.019531 -0.0011,-0.00537 -0.0028,-0.014701 -0.0039,-0.019531 -0.0041,-0.017876 -0.0061,-0.025583 -0.0078,-0.033203 -8.83e-4,-0.00395 -0.0021,-0.011926 -0.0039,-0.017578 -0.0011,-0.00707 -0.0066,-0.019956 -0.0098,-0.03125 -6.94e-4,-0.00271 -0.0016,-0.00625 -0.002,-0.00977 -1.78e-4,-0.00206 3.51e-4,-0.00427 0,-0.00586 -7.65e-4,-0.00366 -0.0028,-0.00738 -0.0039,-0.00977 -1.95e-4,-4.208e-4 1.66e-4,-0.00169 0,-0.00195 -7.44e-4,-0.003 -0.002,-0.00893 -0.002,-0.00977 0,-0.00164 -0.0076,-0.019539 -0.0098,-0.027344 -4e-4,0 -0.001,-0.00405 -0.002,-0.00781 -1.26e-4,-5.267e-4 10e-5,-0.00135 0,-0.00195 -6.18e-4,-0.00373 -0.0012,-0.00849 -0.002,-0.011719 -9.01e-4,-0.00376 -0.0035,-0.00728 -0.0039,-0.00781 -5e-4,-5.3e-4 -0.0014,-0.00176 -0.002,-0.00391 -6e-4,-0.00215 4.33e-4,-0.00532 0,-0.00586 -4e-4,-5.4e-4 -0.0032,-0.00264 -0.0039,-0.00586 -0.002,-0.00653 -0.0037,-0.007 -0.0059,-0.013672 -0.003,-0.00942 -0.0051,-0.020156 -0.01172,-0.039063 -0.0027,-0.0078 -0.0018,-0.00885 -0.0039,-0.015625 -0.0037,-0.010302 -0.01064,-0.031844 -0.01172,-0.033203 -0.0011,-0.00134 1.18e-4,-0.00107 0,-0.00195 -5.5e-5,-2.356e-4 1.04e-4,-0.00161 0,-0.00195 0.0017,0 6.47e-4,-0.00328 -0.002,-0.00586 -0.0022,-0.00214 -0.0033,-0.00497 -0.0039,-0.00781 -2.5e-4,-5.98e-4 2.76e-4,-0.00133 0,-0.00195 0,-0.00301 -0.0044,-0.011691 -0.0078,-0.019531 1.12e-4,-0.00148 8.2e-5,-0.00364 0,-0.00391 -1.6e-4,-5.4e-4 -1.84e-4,-0.00254 0,-0.00391 2e-4,-0.00137 -0.0018,-0.0026 -0.0039,-0.00391 -0.0021,-0.00131 -0.0051,-0.00547 -0.0059,-0.00977 -1.38e-4,-7.414e-4 1.95e-4,-0.00122 0,-0.00195 -8.13e-4,-0.00199 -0.0027,-0.00517 -0.0039,-0.00781 -1.47e-4,-1.356e-4 -0.0015,-0.00275 -0.002,-0.00391 -0.0015,-0.00325 -0.0026,-0.00723 -0.0039,-0.00977 -3.62e-4,-6.878e-4 3.41e-4,-0.00125 0,-0.00195 -0.0017,-0.00382 -0.0017,-0.0066 -0.0039,-0.011719 -0.0011,-0.00274 -0.0046,-0.00681 -0.0059,-0.00977 -0.006,-0.014543 -0.01132,-0.028662 -0.01172,-0.03125 -2.28e-4,-0.0015 -0.01064,-0.020591 -0.01367,-0.027344 -0.0019,-0.00424 -0.0051,-0.011783 -0.0078,-0.017578 -0.0021,-0.0109 -0.05454,-0.1124073 -0.08008,-0.15625 -0.004,-0.00513 -0.0078,-0.010742 -0.0078,-0.013672 0,-0.00293 -0.0016,-0.00586 -0.0039,-0.00586 -0.0022,0 -0.0032,-0.00195 -0.002,-0.00391 0.0013,-0.00196 0.0017,-0.00514 0,-0.00586 -6.07e-4,-2.603e-4 -0.0037,-0.00872 -0.0059,-0.011719 -4.48e-4,-6.177e-4 -0.0015,-0.00124 -0.002,-0.00195 0,-0.00147 -0.0013,-9.869e-4 -0.002,-0.00195 -5.43e-4,-7.898e-4 -0.0014,-0.00109 -0.002,-0.00195 -0.008,-0.01182 -0.01169,-0.017902 -0.01953,-0.03125 -3.53e-4,-6.008e-4 3.38e-4,-0.00137 0,-0.00195 0,-0.00307 -0.0021,-0.00586 -0.0039,-0.00586 -0.0029,-0.0052 -0.01039,-0.015625 -0.0098,-0.015625 9.23e-4,0 -0.002,-0.00172 -0.0039,-0.00391 v -0.00195 h -0.002 l -0.002,-0.00586 h -0.0039 -1.910156 -0.0078 z"
       transform="translate(64.154959,8.5751678)"
       id="path270"
       inkscape:connector-curvature="0" />
    <path
       style="opacity:1;vector-effect:none;fill:#cca438;fill-opacity:1;stroke:#ddc480;stroke-width:1;stroke-linecap:butt;stroke-linejoin:miter;stroke-miterlimit:4;stroke-dasharray:none;stroke-dashoffset:0;stroke-opacity:0"
       d="m -45.425505,4.9120388 c -0.958382,-0.3417101 -1.456899,-1.0601063 -1.456899,-2.0994888 0,-1.690614 1.668889,-2.74241236 3.151795,-1.98638363 0.567702,0.28943083 0.729488,0.45914773 1.004455,1.05369443 0.284681,0.6155496 0.277799,1.3587735 -0.01795,1.9382389 -0.302108,0.5919272 -0.626359,0.8821028 -1.223777,1.0951687 -0.599198,0.213701 -0.855424,0.2134849 -1.457626,-0.00122 z"
       id="path278"
       inkscape:connector-curvature="0"
       transform="translate(64.154959,8.5751678)" />
    <path
       style="opacity:1;vector-effect:none;fill:#cca438;fill-opacity:1;stroke:#ddc480;stroke-width:1;stroke-linecap:butt;stroke-linejoin:miter;stroke-miterlimit:4;stroke-dasharray:none;stroke-dashoffset:0;stroke-opacity:0"
       d="m -45.425505,4.9120388 c -0.958451,-0.3417349 -1.459351,-1.0634298 -1.452469,-2.0927114 0.0047,-0.6964192 0.107382,-0.953066 0.623283,-1.5571913 0.333406,-0.39042248 0.622127,-0.55107161 1.104812,-0.61473589 0.162263,-0.0214019 0.322036,-0.0659246 0.355051,-0.0989393 0.03302,-0.0330147 0.279941,0.0175637 0.548726,0.1123963 0.268784,0.0948326 0.488698,0.14635925 0.488698,0.11450357 0,-0.0318557 0.174537,0.097202 0.387859,0.28679492 0.833019,0.7403574 1.08576,1.8540321 0.625443,2.755944 -0.302108,0.5919272 -0.626359,0.8821028 -1.223777,1.0951687 -0.599198,0.213701 -0.855424,0.2134849 -1.457626,-0.00122 z"
       id="path280"
       inkscape:connector-curvature="0"
       transform="translate(64.154959,8.5751678)" />
    <path
       style="opacity:1;vector-effect:none;fill:#cca438;fill-opacity:1;stroke:#ddc480;stroke-width:1;stroke-linecap:butt;stroke-linejoin:miter;stroke-miterlimit:4;stroke-dasharray:none;stroke-dashoffset:0;stroke-opacity:0"
       d="m -45.425505,4.9120388 c -0.956379,-0.3409961 -1.457159,-1.0605553 -1.456431,-2.0927114 7.64e-4,-1.0839706 0.618306,-1.89136227 1.624222,-2.12355562 1.84631,-0.42617945 3.363092,1.45791842 2.513612,3.12232792 -0.302108,0.5919272 -0.626359,0.8821028 -1.223777,1.0951687 -0.599198,0.213701 -0.855424,0.2134849 -1.457626,-0.00122 z"
       id="path282"
       inkscape:connector-curvature="0"
       transform="translate(64.154959,8.5751678)" />
  </g>
  <path
     style="opacity:1;vector-effect:none;fill:#cca438;fill-opacity:1;stroke:#ddc480;stroke-width:1;stroke-linecap:butt;stroke-linejoin:miter;stroke-miterlimit:4;stroke-dasharray:none;stroke-dashoffset:0;stroke-opacity:0"
     d="m 21.948715,52.030755 c -0.99687,-0.346643 -2.223044,-0.898539 -4.327284,-1.947693 -2.408242,-1.200726 -3.855288,-1.990916 -8.2972692,-4.530898 -5.249169,-3.001542 -6.516549,-3.829298 -7.678916,-5.015283 -1.186081,-1.210181 -1.65133397,-2.199234 -1.94541397,-4.135633 -0.129202,-0.850748 -0.1418,-1.658713 -0.141459,-9.072391 3.82e-4,-8.27852 0.03334,-9.44257 0.31809,-11.235058 0.228632,-1.439221 0.59733597,-2.269927 1.28743097,-2.900634 1.08982,-0.996034 6.601545,-4.3465089 12.3314382,-7.496051 l 1.533064,-0.8426769 1.055957,0.022002 1.055955,0.022002 -1.760513,0.9527964 C 9.671565,8.9405515 2.9824018,13.01698 1.6523318,14.216861 c -0.521685,0.470622 -0.568658,0.605728 -0.741592,2.133043 -0.313567,2.769357 -0.47442,8.081337 -0.413002,13.638843 0.07024,6.355552 0.25348,7.787737 1.172483,9.163955 0.582393,0.872141 2.349462,2.385837 3.252073,2.785772 0.634404,0.281096 1.330153,0.270045 1.87376,-0.02976 0.554809,-0.305984 1.398962,-1.158073 2.330394,-2.352301 1.8524232,-2.375067 3.2478402,-3.255387 5.1601952,-3.255387 1.388017,0 2.064393,-0.324515 2.064393,-0.990463 0,-0.464205 -0.762376,-1.616533 -1.944974,-2.939823 -1.090675,-1.220429 -1.43638,-1.644531 -1.909315,-2.342291 -0.617747,-0.911413 -0.989373,-1.702021 -0.987976,-2.101852 0.003,-0.853906 2.015824,-3.597746 4.560163,-6.216263 1.447801,-1.490011 2.28211,-2.189159 3.137147,-2.628918 1.164445,-0.598893 1.87865,-0.736226 3.80348,-0.731368 1.680646,0.0042 2.520992,0.152626 3.515472,0.620737 1.267026,0.596401 2.16379,1.392677 5.116734,4.543379 l 1.819904,1.941783 0.04435,-2.219682 c 0.04766,-2.385509 0.145965,-3.101171 0.497177,-3.619437 0.21124,-0.311716 0.315082,-0.352488 0.479358,-0.18821 0.295867,0.295866 0.442407,1.419432 0.44529,3.414158 0.0047,3.283476 -0.42405,5.464741 -1.414382,7.194914 -0.344696,0.602205 -0.896746,1.301269 -2.263475,2.86625 -0.917803,1.050936 -1.499422,1.905351 -1.640837,2.410434 -0.09201,0.328631 -0.08682,0.380976 0.05704,0.574853 0.480502,0.647586 2.317647,0.484835 2.691674,-0.238452 0.06122,-0.118393 0.111315,-0.270629 0.111315,-0.338303 0,-0.178349 0.09223,-0.153839 0.484335,0.128704 1.276796,0.920045 4.755577,4.654612 5.806543,6.233483 l 0.338997,0.509277 0.373677,-0.03138 c 0.792774,-0.06657 3.573625,-1.662513 4.727372,-2.713063 0.406951,-0.370551 0.516345,-0.525127 0.610073,-0.862045 0.381488,-1.371316 0.600915,-5.702249 0.600081,-11.844089 C 45.409402,20.403537 45.148494,15.716998 44.743006,14.7478 44.618206,14.449502 44.051791,13.965624 42.910242,13.182102 40.419557,11.472578 35.050828,8.2792808 30.920887,6.0508857 28.451611,4.7185367 28.572454,4.861656 29.915429,4.8600779 l 1.138336,-0.00134 1.164256,0.6478192 c 5.866698,3.2643666 11.004209,6.3893699 12.425744,7.5582309 1.040182,0.855293 1.408391,2.040447 1.656447,5.331599 0.142347,1.888631 0.142446,14.942123 1.59e-4,16.832737 -0.230913,3.067523 -0.550886,4.211644 -1.41643,5.064686 -2.494887,2.458855 -20.077024,11.996789 -22.050975,11.962184 -0.136991,-0.0024 -0.534887,-0.10376 -0.884245,-0.225243 z m 3.566102,-1.426987 c 2.381779,-1.235588 7.644191,-4.313283 9.852447,-5.762154 1.698299,-1.114281 2.414525,-1.860085 2.419948,-2.519887 0.0033,-0.396065 -0.631893,-1.497362 -1.187993,-2.059887 -0.985107,-0.99649 -2.264472,-1.423048 -4.963741,-1.654981 -1.140826,-0.09802 -5.508069,-0.307093 -7.066573,-0.338291 l -1.111596,-0.02225 0.01254,4.605183 c 0.01631,5.991254 0.189443,8.456068 0.59396,8.456068 0.05188,0 0.704835,-0.316709 1.451009,-0.703799 z m -3.567693,0.362554 c 0.152817,-0.365741 0.339903,-1.704801 0.434882,-3.112642 0.04419,-0.655047 0.0809,-3.075746 0.08158,-5.37933 l 0.0012,-4.188334 h -2.933464 c -4.074749,0 -5.462891,0.137231 -7.23027,0.714784 -2.170534,0.709297 -3.6489112,2.028994 -3.7885432,3.381899 l -0.04534,0.439268 0.512232,0.499792 c 1.7364502,1.694279 8.7639432,6.253534 11.6591882,7.564178 0.937597,0.42444 1.159065,0.438045 1.308505,0.08038 z m 2.67093,-14.781839 c 1.647463,-0.288523 2.939656,-0.953138 4.206639,-2.163606 1.743803,-1.66602 2.634017,-3.597555 2.626819,-5.699523 -0.0083,-2.415977 -1.235099,-4.23207 -3.460979,-5.123356 -0.657846,-0.263414 -1.852473,-0.574306 -2.786431,-0.725146 -1.055687,-0.170498 -3.774289,-0.125723 -4.914714,0.08095 -2.850422,0.516559 -4.564456,1.609511 -5.402341,3.444798 -0.378942,0.830028 -0.478393,1.325868 -0.465879,2.322756 0.01778,1.416462 0.429486,2.677049 1.31165,4.016111 1.301822,1.976075 3.471556,3.430419 5.739498,3.847109 0.764222,0.140412 2.34373,0.140366 3.145738,-7.9e-5 z m 2.76954,-14.49497 c 1.168181,-0.149994 1.306037,-0.323489 0.705235,-0.887552 -1.563204,-1.467614 -5.920602,-1.957715 -8.773046,-0.986755 -1.217237,0.414342 -1.947635,0.923644 -1.77832,1.240012 0.144732,0.270436 1.01144,0.499567 2.382559,0.629879 0.966869,0.09189 6.755625,0.09532 7.463572,0.0044 z"
     id="path116"
     inkscape:connector-curvature="0" />
  <path
     style="opacity:1;vector-effect:none;fill:#cca438;fill-opacity:1;stroke:#ddc480;stroke-width:1;stroke-linecap:butt;stroke-linejoin:miter;stroke-miterlimit:4;stroke-dasharray:none;stroke-dashoffset:0;stroke-opacity:0"
     d="m 10.042729,7.4908969 c 0.111818,-0.099966 3.445883,-2.0539465 5.673109,-3.3248135 4.332488,-2.4721413 6.912039,-3.83293212 7.266057,-3.83306492 0.203371,-7.63e-5 2.02906,0.89247442 3.572002,1.74629602 2.953756,1.6345264 7.52581,4.2919507 7.473767,4.343993 C 34.007104,6.4438685 33.317531,6.0871787 32.49528,5.6306632 28.754638,3.5538484 24.845899,1.5540642 23.71238,1.1371659 23.110412,0.91576758 22.974812,0.92260268 22.223869,1.2121969 20.6624,1.8143631 14.422489,5.0745344 10.475458,7.3503993 10.125514,7.5521772 9.887881,7.6293313 10.042729,7.4908969 Z"
     id="path118"
     inkscape:connector-curvature="0" />
  <path
     style="opacity:1;vector-effect:none;fill:#cca438;fill-opacity:1;stroke:#ddc480;stroke-width:1;stroke-linecap:butt;stroke-linejoin:miter;stroke-miterlimit:4;stroke-dasharray:none;stroke-dashoffset:0;stroke-opacity:0"
     d="M 21.869315,51.992543 C 19.801191,51.28018 15.794596,49.239682 10.157859,46.028077 4.0139968,42.527531 2.7668778,41.714309 1.5348168,40.405155 0.27329283,39.064698 -0.18902717,37.883441 -0.39775217,35.467327 c -0.105819,-1.224917 -0.108531,-13.683032 -0.0035,-16.07844 0.166276,-3.792223 0.532832,-5.252245 1.55263697,-6.18429 0.791007,-0.722935 4.344898,-2.964912 8.19093,-5.1672592 C 10.0859,7.6115403 10.609283,7.2645591 10.579836,7.2169126 c -0.0313,-0.050642 -3.18e-4,-0.063104 0.08014,-0.03223 0.07573,0.02906 0.123185,0.013788 0.112275,-0.036132 -0.01039,-0.047557 0.03074,-0.1045012 0.09141,-0.1265428 0.07189,-0.02612 0.08929,-0.00608 0.04997,0.057546 -0.04704,0.076111 -0.02274,0.077503 0.110272,0.00632 0.09383,-0.050218 0.151809,-0.121718 0.128835,-0.1588894 -0.0877,-0.1419068 8.644236,-5.097743 10.842834,-6.15388032 0.918183,-0.4410662 0.920974,-0.4418025 1.243552,-0.3279903 1.161799,0.4099063 9.613374,5.11645612 9.504367,5.29283292 -0.0244,0.039476 0.01695,0.048247 0.09189,0.019492 0.08457,-0.032454 0.1169,-0.020978 0.08524,0.030257 -0.02967,0.048009 0.78597,0.5574797 1.949639,1.2177929 5.463105,3.0999914 9.515888,5.6696654 10.197063,6.4654644 1.122583,1.311486 1.372589,3.741582 1.372589,13.341809 0,8.575895 -0.204196,11.252953 -0.967686,12.686585 -0.138522,0.260109 -0.462068,0.662593 -0.746611,0.928769 -2.614433,2.445673 -19.291455,11.501249 -21.725772,11.797032 -0.253666,0.03082 -0.532012,-0.02645 -1.130518,-0.232602 z m 3.078181,-1.092106 c 1.519384,-0.761426 4.534887,-2.471864 7.720178,-4.378997 4.287607,-2.567125 5.350726,-3.509842 5.056454,-4.483788 -0.292739,-0.968871 -1.308698,-2.137838 -2.249032,-2.587746 -1.358791,-0.650121 -2.963286,-0.857767 -8.365401,-1.082612 -1.048076,-0.04362 -2.289689,-0.09954 -2.759139,-0.124262 l -0.853547,-0.04495 0.0016,4.589598 c 0.0016,4.473996 0.06209,6.358275 0.242774,7.562409 0.101645,0.677375 0.192586,0.957474 0.310866,0.957474 0.04554,0 0.448389,-0.183208 0.895212,-0.40713 z m -2.974336,-0.02957 c 0.349324,-1.068366 0.490056,-3.520802 0.490943,-8.555318 l 7.1e-4,-4.029535 -2.79884,1.59e-4 c -4.174622,3.18e-4 -5.713814,0.159015 -7.479237,0.771287 -0.959894,0.332904 -1.440432,0.569119 -2.079777,1.02234 -0.9373872,0.664498 -1.5062812,1.507239 -1.5894652,2.354579 l -0.04095,0.417084 0.423807,0.408253 c 2.3377442,2.251987 11.6710222,8.061521 12.7704602,7.949055 0.154265,-0.01578 0.22164,-0.09108 0.302344,-0.337904 z M 6.7121078,41.941485 c 0.481014,-0.210565 1.369889,-1.088471 2.382988,-2.353578 1.9811242,-2.473928 3.0529282,-3.152024 5.1956762,-3.287139 1.173606,-0.074 1.643875,-0.206407 1.902951,-0.535768 0.428132,-0.544283 -0.04823,-1.395867 -2.096906,-3.748563 -1.209335,-1.388801 -1.780889,-2.170479 -2.241383,-3.065402 -0.406586,-0.790158 -0.432603,-1.079353 -0.151434,-1.683291 0.810632,-1.741205 4.540763,-6.066371 6.51265,-7.551557 0.64971,-0.489348 1.628581,-0.986563 2.30287,-1.169736 0.63268,-0.17187 3.278056,-0.24535 4.164835,-0.115686 1.133428,0.165729 2.095524,0.569063 3.098643,1.299026 0.479555,0.348968 2.718601,2.564802 4.549644,4.502476 l 1.16297,1.230695 0.0029,-1.867975 c 0.0016,-1.027387 0.04003,-2.164273 0.08544,-2.526412 0.171773,-1.369911 0.705602,-2.159342 1.009365,-1.492655 0.242506,0.532243 0.297524,1.163626 0.295048,3.385952 -0.0019,1.723235 -0.0351,2.480647 -0.139153,3.175988 -0.274035,1.831332 -0.726561,3.131067 -1.488354,4.274822 -0.464998,0.698148 -0.543691,0.795817 -1.934606,2.401113 -1.295692,1.495396 -1.916722,2.561082 -1.730568,2.969647 0.306832,0.673423 2.035295,0.672733 2.626883,-10e-4 0.135646,-0.154492 0.246629,-0.35111 0.246629,-0.436931 0,-0.220461 0.09342,-0.196542 0.529865,0.135662 1.390982,1.058757 4.699814,4.612456 5.761013,6.18735 0.278631,0.413509 0.378334,0.503544 0.559907,0.505611 1.011441,0.01151 4.972417,-2.445956 5.400806,-3.350769 0.419118,-0.88523 0.688343,-5.595679 0.688732,-12.050259 3.97e-4,-6.435129 -0.27092,-11.167812 -0.691081,-12.055209 C 44.440588,14.131066 42.133255,12.555159 37.585005,9.8457653 32.486386,6.8085171 26.541365,3.6124353 24.251324,2.6774931 23.190164,2.2442593 22.823119,2.2311692 21.903496,2.5937611 17.341256,4.3925745 2.2477898,13.189657 1.2960308,14.604625 c -0.216242,0.321484 -0.318544,0.90142 -0.467885,2.652376 -0.421883,4.946391 -0.46749297,15.984701 -0.07858,19.015947 0.276681,2.156458 0.79621,3.084545 2.538113,4.534082 1.571776,1.307965 2.400785,1.582611 3.424442,1.134503 z M 25.244714,36.039051 c 1.372598,-0.355637 2.429049,-0.946192 3.527086,-1.971637 1.738927,-1.623966 2.665179,-3.618334 2.665179,-5.738552 0,-2.162557 -1.018814,-3.906155 -2.818689,-4.823907 -0.835968,-0.426257 -1.199901,-0.551661 -2.381992,-0.820785 -1.209052,-0.275262 -2.810707,-0.379607 -4.333357,-0.282311 -3.435145,0.219505 -5.655216,1.242286 -6.768641,3.118301 -0.491888,0.828784 -0.688857,1.584027 -0.688857,2.6413 0,1.036583 0.135778,1.783245 0.481102,2.645654 0.870212,2.173249 2.775988,4.050906 4.997477,4.923741 0.509205,0.200069 1.145459,0.367605 1.984993,0.522681 0.109174,0.02017 0.734447,0.02418 1.389495,0.0089 0.943102,-0.02196 1.348184,-0.06847 1.946204,-0.223412 z m 2.036957,-14.347612 c 1.217069,-0.128242 1.401975,-0.329349 0.815646,-0.88711 -1.601884,-1.523836 -6.257973,-1.965475 -9.105454,-0.863671 -1.296709,0.501748 -1.778708,1.020874 -1.21738,1.311148 0.333679,0.172552 1.261823,0.355006 2.198572,0.432193 1.12618,0.0928 6.447141,0.09821 7.308616,0.0074 z M 11.904652,6.5617572 c 0,-0.021835 -0.107189,0.01573 -0.238199,0.083478 -0.131009,0.067748 -0.238199,0.1410424 -0.238199,0.1628773 0,0.021835 0.10719,-0.01573 0.238199,-0.083478 0.13101,-0.067748 0.238199,-0.1410425 0.238199,-0.1628773 z m 0.714598,-0.396148 c 0,-0.021835 -0.14292,0.033212 -0.317599,0.122327 -0.17468,0.089115 -0.317599,0.1798918 -0.317599,0.2017267 0,0.021835 0.142919,-0.033212 0.317599,-0.122327 0.174679,-0.089115 0.317599,-0.1798918 0.317599,-0.2017267 z m 0.555797,-0.3184493 c 0,-0.021835 -0.107189,0.01573 -0.238199,0.083478 -0.131009,0.067748 -0.238199,0.1410425 -0.238199,0.1628774 0,0.021835 0.10719,-0.01573 0.238199,-0.083478 0.13101,-0.067748 0.238199,-0.1410424 0.238199,-0.1628774 z m 0.873397,-0.4763982 c 0,-0.021835 -0.107189,0.01573 -0.238199,0.083478 -0.131009,0.067748 -0.238199,0.1410425 -0.238199,0.1628774 0,0.021835 0.10719,-0.01573 0.238199,-0.083478 0.13101,-0.067748 0.238199,-0.1410424 0.238199,-0.1628774 z m 18.420731,0.2450706 c 0,-0.020298 -0.08039,-0.075864 -0.178649,-0.1234797 -0.171554,-0.083135 -0.172527,-0.081669 -0.02452,0.036906 0.161996,0.1297858 0.203173,0.1473317 0.203173,0.086573 z M 31.754578,5.2188338 c 0,-0.020298 -0.08039,-0.075864 -0.17865,-0.1234797 -0.171553,-0.083135 -0.172526,-0.081669 -0.02452,0.036906 0.161996,0.1297858 0.203174,0.1473317 0.203174,0.086573 z m -16.5554,-0.4385825 c 0.02782,-0.045008 -0.0041,-0.05832 -0.07471,-0.031205 -0.137553,0.052784 -0.162721,0.1096952 -0.04851,0.1096952 0.04109,0 0.09654,-0.035321 0.123224,-0.07849 z m 15.682003,-0.039272 c 0,-0.021099 -0.178649,-0.1288908 -0.396998,-0.2395367 -0.21835,-0.1106459 -0.396999,-0.1833923 -0.396999,-0.1616588 0,0.021734 0.169717,0.1278614 0.377149,0.2358397 0.423992,0.2207084 0.416848,0.2178747 0.416848,0.1653558 z M 16.271636,4.181169 c 0,-0.021835 -0.178649,0.050829 -0.396999,0.1614745 -0.218349,0.1106459 -0.396998,0.2190393 -0.396998,0.2408742 0,0.021835 0.178649,-0.050829 0.396998,-0.1614745 0.21835,-0.1106459 0.396999,-0.2190393 0.396999,-0.2408742 z m 13.577349,0.00382 c 0,-0.021206 -0.214379,-0.1467751 -0.476398,-0.2790419 -0.262019,-0.1322668 -0.476398,-0.2226786 -0.476398,-0.2009152 0,0.021764 0.205446,0.1456138 0.456548,0.2752229 0.510971,0.2637439 0.496248,0.2576697 0.496248,0.2047342 z M 17.621431,3.466021 c 0,-0.021835 -0.14292,0.033212 -0.317599,0.122327 -0.174679,0.089115 -0.317599,0.1798918 -0.317599,0.2017267 0,0.021835 0.14292,-0.033212 0.317599,-0.122327 0.174679,-0.089115 0.317599,-0.1798917 0.317599,-0.2017267 z m 10.877759,0.00411 c 0,-0.021348 -0.285839,-0.1825307 -0.635198,-0.3581849 -0.349358,-0.1756541 -0.635197,-0.3015398 -0.635197,-0.279746 0,0.03055 1.160168,0.654704 1.250545,0.6727754 0.01092,0.00218 0.01985,-0.013497 0.01985,-0.034845 z M 24.926203,1.6430516 C 24.729689,1.5378237 24.533175,1.4517281 24.489505,1.4517281 c -0.04367,0 0.08138,0.086096 0.277899,0.1913235 0.196514,0.105228 0.393029,0.1913235 0.436698,0.1913235 0.04367,0 -0.08138,-0.086095 -0.277899,-0.1913235 z m -3.414187,-0.0794 c 0.109175,-0.06241 0.16277,-0.1134724 0.1191,-0.1134724 -0.04367,0 -0.168725,0.051063 -0.277899,0.1134724 -0.109175,0.06241 -0.16277,0.1134724 -0.1191,0.1134724 0.04367,0 0.168725,-0.051063 0.277899,-0.1134724 z m 0.635198,-0.2778989 c 0.06551,-0.042332 0.08337,-0.076968 0.0397,-0.076968 -0.04367,0 -0.132995,0.034636 -0.1985,0.076968 -0.0655,0.042332 -0.08337,0.076968 -0.0397,0.076968 0.04367,0 0.132994,-0.034636 0.1985,-0.076968 z m 1.984992,0 c -0.0655,-0.042332 -0.154829,-0.076968 -0.198499,-0.076968 -0.04367,0 -0.0258,0.034636 0.0397,0.076968 0.06551,0.042332 0.154829,0.076968 0.198499,0.076968 0.04367,0 0.0258,-0.034636 -0.0397,-0.076968 z M 23.735208,1.1269533 c -0.06551,-0.042332 -0.15483,-0.076968 -0.198499,-0.076968 -0.04367,0 -0.02581,0.034636 0.0397,0.076968 0.06551,0.042332 0.15483,0.076968 0.1985,0.076968 0.04367,0 0.0258,-0.034636 -0.0397,-0.076968 z M 23.396105,0.99958288 c -0.02638,-0.026384 -0.09487,-0.029205 -0.152183,-0.00627 -0.06334,0.025347 -0.04453,0.044161 0.04797,0.047971 0.0837,0.00345 0.130596,-0.015318 0.104212,-0.041702 z"
     id="path120"
     inkscape:connector-curvature="0" />
  <path
     style="opacity:1;vector-effect:none;fill:#cca438;fill-opacity:1;stroke:#ddc480;stroke-width:1;stroke-linecap:butt;stroke-linejoin:miter;stroke-miterlimit:4;stroke-dasharray:none;stroke-dashoffset:0;stroke-opacity:0"
     d="m 28.517252,15.489057 c -0.878571,-0.434884 -1.26963,-1.60522 -0.924596,-2.767075 0.179831,-0.605554 0.794535,-1.211311 1.36907,-1.349139 0.423584,-0.101617 1.145009,-0.06071 1.475784,0.08368 0.112952,0.04931 0.03463,0.05748 -0.245799,0.02565 -0.929708,-0.105516 -1.817525,0.294446 -2.195617,0.989126 -0.544998,1.001341 -0.260709,1.995474 0.698351,2.44207 0.513716,0.239218 1.387291,0.25314 2.027088,0.03231 0.239718,-0.08274 0.447511,-0.138778 0.461764,-0.124526 0.05253,0.05253 -0.514794,0.434458 -0.93789,0.631396 -0.565432,0.263189 -1.241355,0.277468 -1.728155,0.03651 z"
     id="path122"
     inkscape:connector-curvature="0" />
  <path
     style="opacity:1;vector-effect:none;fill:#cca438;fill-opacity:1;stroke:#ddc480;stroke-width:1;stroke-linecap:butt;stroke-linejoin:miter;stroke-miterlimit:4;stroke-dasharray:none;stroke-dashoffset:0;stroke-opacity:0"
     d="m 28.826539,15.577536 c -1.313606,-0.310141 -1.787202,-2.457002 -0.782468,-3.54701 0.490218,-0.531824 0.803555,-0.663462 1.543702,-0.648535 0.580231,0.0117 0.59394,0.01584 0.221512,0.06693 l -0.396998,0.05445 0.448184,0.01247 c 0.953303,0.02653 1.93902,0.519982 2.253488,1.128096 0.193759,0.374689 0.148826,0.867523 -0.117363,1.28726 -0.248948,0.39255 -0.775673,0.823995 -1.107704,0.907329 -0.179776,0.04512 -0.184706,0.05582 -0.04786,0.103819 0.12874,0.04516 0.09407,0.08779 -0.222036,0.273045 -0.670213,0.392771 -1.205056,0.50083 -1.792457,0.362144 z M 28.41979,14.758859 c 0,-0.01366 -0.116122,-0.129786 -0.258049,-0.258049 l -0.258049,-0.233204 0.233204,0.258049 c 0.217379,0.240538 0.282894,0.294546 0.282894,0.233204 z M 27.762063,13.21556 c -0.01819,-0.120092 -0.03308,-0.02183 -0.03308,0.218349 0,0.240184 0.01488,0.338442 0.03308,0.21835 0.01819,-0.120093 0.01819,-0.316607 0,-0.436699 z m 1.58902,-1.655814 c -0.02638,-0.02638 -0.09487,-0.02921 -0.152183,-0.0063 -0.06334,0.02535 -0.04453,0.04416 0.04797,0.04797 0.0837,0.0034 0.130595,-0.01532 0.104212,-0.0417 z"
     id="path124"
     inkscape:connector-curvature="0" />
  <path
     style="opacity:1;vector-effect:none;fill:#cca438;fill-opacity:1;stroke:#ddc480;stroke-width:1;stroke-linecap:butt;stroke-linejoin:miter;stroke-miterlimit:4;stroke-dasharray:none;stroke-dashoffset:0;stroke-opacity:0"
     d="m 28.707596,15.545193 c -0.730878,-0.271777 -1.187137,-1.017879 -1.193992,-1.952484 -0.0055,-0.743391 0.123498,-1.120674 0.535973,-1.568156 0.483854,-0.52492 0.799959,-0.657217 1.538196,-0.643769 0.512878,0.0093 0.56427,0.02098 0.300912,0.06813 l -0.317599,0.05687 0.368785,0.01127 c 0.878445,0.02684 1.871371,0.5415 2.174088,1.12689 0.191537,0.370393 0.148776,0.868115 -0.109167,1.270674 -0.268908,0.419668 -0.410976,0.551593 -0.885412,0.82219 -0.196514,0.112084 -0.308261,0.204218 -0.248327,0.204744 0.20941,0.0018 -0.05811,0.21246 -0.550539,0.43345 -0.584212,0.262178 -1.192843,0.326402 -1.612918,0.170197 z"
     id="path126"
     inkscape:connector-curvature="0" />
  <path
     style="opacity:1;vector-effect:none;fill:#cca438;fill-opacity:1;stroke:#ddc480;stroke-width:1;stroke-linecap:butt;stroke-linejoin:miter;stroke-miterlimit:4;stroke-dasharray:none;stroke-dashoffset:0;stroke-opacity:0"
     d="m 42.85448,40.132059 c 0.88722,-0.871165 1.151309,-1.477816 1.379536,-3.168999 0.153347,-1.136317 0.117746,-8.145177 -0.08239,-16.220401 -0.09032,-3.644244 -0.151291,-6.638823 -0.135493,-6.65462 0.07324,-0.07324 0.597711,0.49185 0.704721,0.759296 0.464548,1.161018 0.753548,8.521919 0.610062,15.538411 -0.100562,4.917546 -0.326672,7.784628 -0.665619,8.440078 -0.06642,0.128446 -0.309247,0.402999 -0.539611,0.610115 -0.450788,0.405297 -1.714088,1.311468 -1.828328,1.311468 -0.03826,0 0.212443,-0.276907 0.557122,-0.615348 z"
     id="path128"
     inkscape:connector-curvature="0" />
  <path
     style="opacity:1;vector-effect:none;fill:#cca438;fill-opacity:1;stroke:#ddc480;stroke-width:1;stroke-linecap:butt;stroke-linejoin:miter;stroke-miterlimit:4;stroke-dasharray:none;stroke-dashoffset:0;stroke-opacity:0"
     d="m 21.948715,52.029264 c -0.886579,-0.310374 -1.455973,-0.556656 -3.079899,-1.332161 -2.675714,-1.277788 -4.672844,-2.356252 -9.8364852,-5.311769 -5.13899,-2.941407 -6.311943,-3.720449 -7.496133,-4.978719 -1.28250597,-1.362737 -1.72871697,-2.522524 -1.94266597,-5.049368 -0.116805,-1.379531 -0.05476,-16.27709 0.07345,-17.635754 0.2435,-2.580417 0.623557,-3.730134 1.49690897,-4.528328 0.771604,-0.705203 3.902688,-2.692033 7.743419,-4.9135889 C 9.68245,7.8312198 10.316655,7.4354557 10.316655,7.4001004 c 0,-0.1060296 0.56122,-0.4035879 0.653561,-0.3465178 0.04706,0.029088 0.06459,0.018937 0.03895,-0.022556 -0.05517,-0.089266 0.329448,-0.3252729 3.475978,-2.1329104 4.590978,-2.6374525 8.177802,-4.56515742 8.494256,-4.56515742 0.463312,0 10.204373,5.39366092 10.204373,5.65019822 0,0.041774 0.03199,0.056184 0.07108,0.032023 0.03909,-0.024161 0.09244,0.011724 0.118538,0.079746 0.0261,0.068022 0.08039,0.1033238 0.120638,0.078449 0.04025,-0.024875 0.08516,-0.012925 0.09981,0.026555 0.01465,0.03948 1.044933,0.6597024 2.289523,1.3782725 4.577723,2.6429695 7.660929,4.5720425 8.73182,5.4632475 1.037064,0.863054 1.419413,2.013154 1.674658,5.037343 0.128174,1.518623 0.188307,12.474044 0.08389,15.284443 -0.172736,4.649441 -0.479798,5.971961 -1.63815,7.055542 -2.73932,2.5625 -19.962035,11.871035 -21.901307,11.837221 -0.137701,-0.0024 -0.536204,-0.104432 -0.885562,-0.226734 z m 3.531446,-1.416681 c 1.475257,-0.769539 4.491496,-2.490293 7.015075,-4.002076 3.592106,-2.151897 4.873462,-3.118188 5.172209,-3.900444 0.128875,-0.337457 0.12957,-0.388818 0.01013,-0.748433 -0.248349,-0.747708 -1.039835,-1.754711 -1.77876,-2.263104 -0.445656,-0.30662 -1.404352,-0.654027 -2.244787,-0.813455 -1.03674,-0.196666 -2.881448,-0.345218 -5.909131,-0.475854 -1.528444,-0.06595 -3.109491,-0.139233 -3.513437,-0.162856 l -0.734447,-0.04295 7.14e-4,4.269337 c 8.98e-4,5.338022 0.110871,7.661541 0.40608,8.579845 0.105832,0.329209 0.09696,0.331684 1.576353,-0.44001 z m -3.610236,0.427297 c 0.149207,-0.227718 0.321025,-1.1326 0.439152,-2.312803 0.04808,-0.480368 0.107365,-3.026121 0.131742,-5.657229 l 0.04432,-4.783832 -2.570805,3.97e-4 c -4.135967,5.56e-4 -5.850399,0.164374 -7.557064,0.721932 -1.47319,0.481283 -2.616738,1.190562 -3.2226122,1.998806 -0.375256,0.500598 -0.543067,0.888109 -0.61305,1.415664 -0.06317,0.476197 -0.04209,0.503571 1.1201502,1.454666 2.714336,2.221221 9.026512,6.191746 11.393857,7.167036 0.554622,0.228491 0.682036,0.227787 0.834307,-0.0046 z m 18.469683,-9.185206 c 0.718955,-0.315551 2.152655,-1.13369 2.154414,-1.229413 7.94e-4,-0.042 0.220688,-0.313202 0.488704,-0.602684 1.372347,-1.482262 1.47043,-2.377101 1.321725,-12.058522 -0.05064,-3.297073 -0.124709,-7.209493 -0.164592,-8.694267 -0.03988,-1.484775 -0.07382,-3.250699 -0.07542,-3.924276 l -0.0029,-1.224686 0.209062,0.19249 c 0.114984,0.105869 0.275635,0.299679 0.357002,0.430688 0.08137,0.13101 0.148073,0.186142 0.148236,0.122516 5.56e-4,-0.223022 -1.003267,-1.087343 -2.190855,-1.886362 C 38.720185,10.379893 31.174637,6.0521193 26.407514,3.7015166 24.238495,2.6320032 23.286152,2.2720762 22.798409,2.3374964 20.800921,2.6054157 5.9189078,10.924275 2.0106698,13.957584 c -0.718193,0.557412 -0.855208,0.775649 -0.980884,1.562352 -0.339753,2.126772 -0.510611,6.375269 -0.50684,12.602918 0.0055,9.099495 0.186516,10.18912 1.987197,11.962675 0.762604,0.751115 1.736886,1.50594 2.295471,1.778417 0.57767,0.281786 1.410264,0.310683 1.91523,0.06647 0.488621,-0.236306 1.45032,-1.196342 2.457655,-2.453407 1.8559992,-2.316123 2.9898212,-3.030268 5.0441462,-3.177089 1.189621,-0.08502 1.567879,-0.172342 1.869082,-0.431484 0.181621,-0.156257 0.218346,-0.249923 0.212278,-0.541393 -0.01256,-0.60339 -0.552552,-1.40027 -2.331269,-3.440319 -1.489545,-1.708391 -2.465075,-3.259592 -2.465075,-3.919742 0,-0.907868 2.036392,-3.678322 4.720981,-6.422763 1.762413,-1.801704 2.753658,-2.51019 4.132086,-2.95338 0.486068,-0.156279 0.769968,-0.183065 2.262891,-0.2135 1.483101,-0.03023 1.807422,-0.01412 2.471714,0.122789 0.958044,0.197457 1.895692,0.632571 2.728967,1.266374 0.629557,0.478852 2.495312,2.326773 4.589028,4.545164 l 1.086593,1.151295 0.0023,-1.945292 c 0.0023,-1.989244 0.06702,-2.771957 0.283342,-3.429545 0.142357,-0.432744 0.39101,-0.77864 0.559738,-0.77864 0.642126,0 0.807553,4.770318 0.265055,7.643242 -0.398962,2.112794 -1.047752,3.329233 -2.889707,5.418009 -1.447669,1.641656 -2.104236,2.619918 -2.124758,3.165816 -0.01234,0.328257 0.03999,0.413636 0.357384,0.583057 0.360448,0.192403 1.424595,0.186583 1.801308,-0.0099 0.40256,-0.209912 0.619998,-0.432171 0.677088,-0.692102 0.02757,-0.125525 0.07909,-0.228228 0.114484,-0.228228 0.179709,0 1.173412,0.850072 2.212251,1.89249 1.412922,1.41779 2.811786,2.998508 3.725303,4.209596 l 0.679926,0.901405 0.318813,-0.05098 c 0.175348,-0.02804 0.561072,-0.157308 0.857165,-0.287265 z m 3.581137,-2.200369 c 0.514945,-0.415056 0.925789,-0.927352 0.824741,-1.0284 -0.02682,-0.02682 -0.04876,-0.0049 -0.04876,0.04863 0,0.156117 -0.790113,0.949316 -1.329945,1.335139 -0.272936,0.195071 -0.496248,0.371836 -0.496248,0.392811 0,0.05656 0.445968,-0.26115 1.050209,-0.748179 z m 0.907969,-1.388139 c -0.02203,-0.05459 -0.04005,-0.0099 -0.04005,0.09925 0,0.109174 0.01802,0.153837 0.04005,0.09925 0.02203,-0.05459 0.02203,-0.143912 0,-0.1985 z m 0.08184,-0.435187 c -0.02013,-0.07725 -0.03793,-0.03327 -0.03954,0.09774 -0.0016,0.131009 0.01485,0.194216 0.0366,0.14046 0.02175,-0.05376 0.02307,-0.160946 0.0029,-0.238199 z m 0.07911,-0.557309 c -0.01997,-0.07642 -0.03631,-0.01389 -0.03631,0.138949 0,0.152845 0.01634,0.215372 0.03631,0.13895 0.01997,-0.07642 0.01997,-0.201477 0,-0.277899 z m 0.08164,-0.792905 c -0.01825,-0.120693 -0.03367,-0.04079 -0.03427,0.177557 -6.35e-4,0.218349 0.01434,0.317098 0.03318,0.219441 0.01885,-0.09766 0.01934,-0.276306 0.0011,-0.396998 z M 24.13189,36.218875 c 1.881337,-0.198111 3.409632,-0.947523 4.845243,-2.375902 1.935003,-1.925256 2.801442,-4.422589 2.33696,-6.735812 -0.399273,-1.988473 -1.724477,-3.384083 -3.886799,-4.093303 -1.308515,-0.429179 -2.099474,-0.547568 -3.930191,-0.588261 -2.70181,-0.06006 -4.391977,0.226966 -6.029961,1.024 -0.716558,0.348672 -0.921855,0.496635 -1.511422,1.089322 -0.767797,0.771861 -1.170775,1.473837 -1.396487,2.43264 -0.175227,0.744345 -0.115363,2.301859 0.119019,3.096588 0.36909,1.251489 1.077108,2.446264 2.058149,3.473107 0.763852,0.799515 1.443256,1.310091 2.402585,1.805558 1.559935,0.805661 3.088364,1.072617 4.992904,0.872063 z m 21.019381,-0.809676 c -0.01767,-0.142709 -0.03249,-0.04509 -0.03294,0.216927 -4.76e-4,0.262019 0.01401,0.378781 0.03213,0.259471 0.01812,-0.11931 0.01848,-0.333689 8.1e-4,-0.476398 z m 0.08022,-1.549716 c -0.01636,-0.207432 -0.02974,-0.03772 -0.02974,0.377148 0,0.414864 0.01338,0.584581 0.02974,0.377149 0.01636,-0.207432 0.01636,-0.546865 0,-0.754297 z m 0.08006,-2.302592 c -0.01488,-0.338441 -0.02706,-0.06153 -0.02706,0.615348 0,0.676883 0.01218,0.953789 0.02706,0.615348 0.01488,-0.338441 0.01488,-0.892254 0,-1.230696 z m 0.07988,-6.664064 c -0.01248,-1.083859 -0.02271,-0.21989 -0.02273,1.919932 -1.4e-5,2.139822 0.0102,3.026616 0.0227,1.970653 0.0125,-1.055963 0.01251,-2.806726 2.7e-5,-3.890585 z m -0.07994,-4.094595 c -0.01507,-0.316607 -0.0274,-0.05757 -0.0274,0.575648 0,0.633212 0.01233,0.892254 0.0274,0.575647 0.01507,-0.316606 0.01507,-0.834689 0,-1.151295 z m -18.334846,0.892954 c 1.470007,-0.114304 1.708299,-0.298368 1.122395,-0.866968 -1.843895,-1.789439 -7.548291,-2.009923 -10.097032,-0.390266 -1.029296,0.654091 -0.195707,1.106014 2.319022,1.257234 1.410945,0.08484 5.564463,0.08485 6.655615,0 z M 45.231765,18.9747 c -0.01609,-0.230731 -0.02942,-0.06221 -0.02963,0.374487 -2.39e-4,0.436699 0.01296,0.625478 0.02925,0.41951 0.0163,-0.205967 0.01647,-0.563266 3.97e-4,-0.793997 z m -0.08059,-1.273057 c -0.01761,-0.141927 -0.03203,-0.02581 -0.03203,0.258049 0,0.283854 0.01441,0.399976 0.03203,0.258049 0.01761,-0.141927 0.01761,-0.374171 0,-0.516098 z m -0.07986,-0.912004 c -0.01825,-0.120693 -0.03367,-0.04079 -0.03427,0.177557 -6.35e-4,0.218349 0.01434,0.317098 0.03318,0.219441 0.01885,-0.09766 0.01934,-0.276306 0.0011,-0.396998 z m -0.08022,-0.754464 c -0.01899,-0.09877 -0.03525,-0.03666 -0.03613,0.138024 -8.81e-4,0.174679 0.01466,0.255488 0.03453,0.179575 0.01987,-0.07591 0.02059,-0.218833 0.0016,-0.317599 z m -0.08053,-0.515512 c -0.02013,-0.07725 -0.03793,-0.03327 -0.03954,0.09774 -0.0016,0.131009 0.01485,0.194216 0.0366,0.14046 0.02175,-0.05376 0.02307,-0.160946 0.0029,-0.238199 z m -0.08184,-0.43821 c -0.02203,-0.05459 -0.04005,-0.0099 -0.04005,0.09925 0,0.109175 0.01802,0.153837 0.04005,0.09925 0.02203,-0.05459 0.02203,-0.143912 0,-0.1985 z M 12.460461,6.2426492 c 0,-0.021835 -0.07146,-0.00146 -0.158799,0.045287 -0.08734,0.046743 -0.1588,0.1028518 -0.1588,0.1246868 0,0.021835 0.07146,0.00146 0.1588,-0.045287 0.08734,-0.046743 0.158799,-0.1028518 0.158799,-0.1246868 z m 18.103132,-1.659013 c 0,-0.020298 -0.08039,-0.075864 -0.178649,-0.1234797 -0.171553,-0.083135 -0.172527,-0.081669 -0.02452,0.036906 0.161996,0.1297858 0.203173,0.1473317 0.203173,0.086574 z M 29.690197,4.1064834 c 0,-0.020714 -0.10719,-0.093091 -0.2382,-0.1608384 -0.298612,-0.1544188 -0.316681,-0.087349 -0.01985,0.073685 0.249517,0.1353656 0.258049,0.1382469 0.258049,0.087154 z M 28.181602,3.313241 c 0,-0.020298 -0.08039,-0.075864 -0.178649,-0.1234797 -0.171554,-0.083135 -0.172527,-0.081669 -0.02452,0.036906 0.161996,0.1297858 0.203173,0.1473317 0.203173,0.086574 z"
     id="path130"
     inkscape:connector-curvature="0" />
  <path
     style="opacity:1;vector-effect:none;fill:#cca438;fill-opacity:1;stroke:#ddc480;stroke-width:1;stroke-linecap:butt;stroke-linejoin:miter;stroke-miterlimit:4;stroke-dasharray:none;stroke-dashoffset:0;stroke-opacity:0"
     d="m 30.105469,10.527344 c -0.109618,-0.0014 -0.218373,0.0062 -0.326172,0.02148 -0.123516,0.01715 -0.386232,0.04222 -0.583985,0.05664 -0.164858,0.01202 -0.294142,0.03735 -0.410156,0.07031 -6.09e-4,1.73e-4 -0.0013,-1.74e-4 -0.002,0 -0.01866,0.0058 -0.05237,0.0037 -0.07031,0.01172 -0.0063,0.0028 -0.01179,0.0076 -0.01758,0.01172 -0.0027,0.0012 -0.009,6.93e-4 -0.01172,0.002 -0.01161,0.0053 -0.02039,0.0135 -0.03125,0.01953 -7.96e-4,4.42e-4 -0.0011,0.0015 -0.002,0.0019 -0.08521,0.03716 -0.162931,0.08406 -0.236329,0.146485 -0.06499,0.05528 -0.13152,0.124917 -0.197265,0.205078 -0.0073,0.0079 -0.01409,0.01417 -0.02148,0.02344 -0.0033,0.0043 -0.0064,0.0073 -0.0098,0.01172 -0.0041,0.0052 -0.0076,0.0084 -0.01172,0.01367 -0.07092,0.09105 -0.275179,0.318063 -0.46875,0.521484 -0.0155,0.01653 -0.02179,0.02678 -0.03711,0.04297 -0.246416,0.260417 -0.41587,0.459832 -0.556641,0.640625 -5.99e-4,7.69e-4 -0.0014,0.0012 -0.002,0.002 l -0.002,0.002 c -0.0021,0.0027 -0.0058,0.0071 -0.0078,0.0098 -0.0083,0.0113 -0.01739,0.0242 -0.02539,0.03516 -7.93e-4,0.0011 -0.0012,0.0028 -0.002,0.0039 v 0.002 c -0.0017,0.0022 -0.0042,0.0036 -0.0059,0.0059 l -0.002,0.002 c -0.0026,0.0034 -0.0033,0.0064 -0.0059,0.0098 -0.06755,0.09127 -0.135233,0.184057 -0.179688,0.263671 -9.95e-4,0.0018 -0.0029,0.0041 -0.0039,0.0059 v 0.002 c -0.06031,0.102344 -0.106305,0.198681 -0.132812,0.289062 -0.01902,0.06896 -0.02582,0.141379 -0.03125,0.265625 -4.59e-4,0.01048 3.74e-4,0.01363 0,0.02344 -4.35e-4,0.0145 -0.0059,0.02833 -0.0059,0.04297 3.8e-5,0.01394 0.0054,0.02721 0.0059,0.04101 -4e-6,0.0014 0,0.0025 0,0.0039 6.9e-5,0.0013 -8.3e-5,0.0026 0,0.0039 0.0011,0.0192 0.0055,0.0369 0.0098,0.05469 6.14e-4,0.0026 0.0014,0.0052 0.002,0.0078 0.001,0.0044 0.001,0.0092 0.002,0.01367 2.64e-4,0.0012 -2.59e-4,0.0027 0,0.0039 0.0076,0.07568 0.01637,0.153233 0.03906,0.230469 0.0031,0.01258 0.0012,0.02166 0.0059,0.03516 5.15e-4,0.0015 -5.22e-4,0.0024 0,0.0039 0.007,0.02016 0.02031,0.04188 0.0293,0.06445 0.0046,0.01205 0.0048,0.02741 0.0098,0.03906 0.0093,0.02187 0.03333,0.05628 0.04492,0.08008 0.0023,0.0049 0.0036,0.0087 0.0059,0.01367 0.0013,0.0026 0.0027,0.0052 0.0039,0.0078 0.01598,0.033 0.0279,0.06518 0.04687,0.09961 0.0082,0.01744 0.01758,0.04175 0.02539,0.05469 0.0056,0.0093 0.02287,0.02885 0.0293,0.03906 0.0026,0.0042 0.0032,0.0075 0.0059,0.01172 0.0096,0.01532 0.02664,0.03634 0.04102,0.05469 0.0032,0.0041 0.007,0.008 0.0098,0.01172 0.106829,0.166389 0.246286,0.355635 0.425782,0.574218 9.56e-4,0.0012 9.95e-4,0.0027 0.002,0.0039 4.97e-4,0.0014 9.92e-4,0.0027 0.002,0.0039 l 0.002,0.002 c 0.0031,0.0038 0.0046,0.0059 0.0078,0.0098 0.003,0.0035 0.0048,0.0062 0.0078,0.0098 0.21745,0.258562 0.301762,0.367174 0.582031,0.738282 0.002,0.0027 0.005,0.0052 0.0078,0.0078 0.0014,0.0013 0.0028,0.0026 0.0039,0.0039 0.03902,0.04684 0.08965,0.103339 0.136719,0.148438 l 0.002,0.002 0.002,0.002 0.002,0.002 0.002,0.002 c 0.0041,0.0041 0.0095,0.0076 0.01367,0.01172 0.05603,0.05231 0.106859,0.101284 0.1875,0.166016 0.02543,0.02041 0.05079,0.03195 0.07617,0.05078 0.0202,0.01468 0.03582,0.03284 0.05664,0.04687 0.0033,0.0023 0.0065,0.0055 0.0098,0.0078 0.0045,0.0039 0.0085,0.0082 0.01367,0.01172 0.02064,0.01402 0.03706,0.02182 0.05469,0.03125 0.0305,0.01904 0.06113,0.03635 0.0918,0.05469 0.0028,0.0016 0.005,0.0042 0.0078,0.0059 0.0033,0.0018 0.0064,0.0041 0.0098,0.0059 0.0013,6.97e-4 0.0026,0.0013 0.0039,0.002 0.0077,0.0042 0.01571,0.0077 0.02344,0.01172 7.96e-4,4.17e-4 0.0012,0.0015 0.002,0.002 0.0091,0.0049 0.01816,0.0112 0.02734,0.01563 0.005,0.0024 0.01225,0.0035 0.01758,0.0059 0.04392,0.01952 0.09499,0.03833 0.142578,0.05469 0.04178,0.01581 0.08608,0.03893 0.125,0.04883 5.58e-4,1.44e-4 0.0014,-1.42e-4 0.002,0 0.09617,0.02452 0.21389,0.02908 0.335937,0.02149 0.0092,-5.65e-4 0.01609,0.0027 0.02539,0.002 0.131873,-0.01052 0.271128,-0.03978 0.402344,-0.08398 0.122767,-0.04136 0.342824,-0.105536 0.488281,-0.142579 0.190369,-0.04848 0.354644,-0.115201 0.509765,-0.193359 0.0096,-0.0048 0.0198,-0.0087 0.0293,-0.01367 0.008,-0.0039 0.01599,-0.0076 0.02344,-0.01172 0.157627,-0.08502 0.302961,-0.191269 0.443359,-0.320312 0.0015,-0.0012 0.0024,-0.0029 0.0039,-0.0039 0.0012,-8.18e-4 0.0027,-0.0012 0.0039,-0.002 0.0059,-0.0035 0.01193,-0.0065 0.01758,-0.01172 0.01091,-0.01014 0.01987,-0.02187 0.0293,-0.0332 l 0.002,-0.002 0.002,-0.002 0.002,-0.002 c 0.01627,-0.01589 0.03261,-0.03029 0.04883,-0.04687 l 0.002,-0.002 0.002,-0.002 c 3.39e-4,-3.48e-4 0.0016,3.48e-4 0.002,0 0.0067,-0.0045 0.01332,-0.0091 0.01953,-0.01563 0.0034,-0.0036 0.0066,-0.0078 0.0098,-0.01172 0.0066,-0.007 0.01293,-0.01244 0.01953,-0.01953 0.07754,-0.08329 0.138946,-0.190811 0.207031,-0.289062 0.0051,-0.0073 0.01025,-0.01444 0.01563,-0.02149 l 0.002,-0.002 c 0.0015,-0.0023 0.0043,-0.0036 0.0059,-0.0059 v -0.002 c 0.0042,-0.0062 0.0095,-0.01129 0.01367,-0.01758 0.02526,-0.03214 0.0507,-0.06392 0.07227,-0.09961 0.0032,-0.0053 0.0066,-0.01036 0.0098,-0.01563 v -0.002 c 0.05977,-0.10141 0.106438,-0.212845 0.15625,-0.324219 0.01,-0.02196 0.01888,-0.04504 0.0293,-0.06641 0.0049,-0.01004 0.0087,-0.02128 0.01367,-0.03125 3.29e-4,-7.99e-4 0.0016,-0.0012 0.002,-0.002 5.57e-4,-0.0014 0.0014,-0.0025 0.002,-0.0039 0.0019,-0.0046 0.004,-0.009 0.0059,-0.01367 v -0.002 c 0.02642,-0.05241 0.05382,-0.103717 0.07422,-0.164063 0.0022,-0.0064 0.0038,-0.01309 0.0059,-0.01953 v -0.002 c 0.0188,-0.05548 0.03054,-0.113106 0.04687,-0.169922 v -0.002 l 0.002,-0.002 v -0.002 c 7.32e-4,-0.0026 0.0012,-0.0052 0.002,-0.0078 0.02718,-0.09569 0.05733,-0.185122 0.08008,-0.289063 0.0054,-0.02447 0.0031,-0.06515 0.0078,-0.0918 7.96e-4,-0.0045 0.0012,-0.0091 0.002,-0.01367 2.19e-4,-0.0013 -2.17e-4,-0.0026 0,-0.0039 -1.1e-4,-0.0013 -2.18e-4,-0.0026 0,-0.0039 0.03199,-0.186256 0.04488,-0.371749 0.04883,-0.560547 6.4e-5,-0.0036 -2.17e-4,-0.0065 0,-0.0098 3.6e-5,-0.0019 -3.98e-4,-0.004 0,-0.0059 1.1e-5,-6.79e-4 0.0019,-0.0013 0.002,-0.002 v -0.002 -0.002 c 3.9e-5,-0.0026 -3.3e-5,-0.0052 0,-0.0078 3.39e-4,-0.0281 0.0042,-0.05592 0.0039,-0.08398 -6.42e-4,-0.05368 0.0089,-0.106559 0.0059,-0.160156 -0.0055,-0.09772 -0.03287,-0.183912 -0.04687,-0.277344 -0.01008,-0.08125 -0.0079,-0.191853 -0.02344,-0.253906 -0.0081,-0.03246 -0.02596,-0.05808 -0.03516,-0.08984 -3.89e-4,-0.0014 -0.001,-0.0028 -0.002,-0.0039 l -0.002,-0.002 v -0.002 -0.002 c -0.02132,-0.07613 -0.05472,-0.142771 -0.08203,-0.214843 -2.15e-4,-5.66e-4 2.14e-4,-0.0014 0,-0.002 -0.0053,-0.0129 -0.01044,-0.02603 -0.01563,-0.03906 -0.03943,-0.0955 -0.07348,-0.193933 -0.123047,-0.28125 -0.0021,-0.0037 -0.0052,-0.0065 -0.0078,-0.0098 l -0.002,-0.002 c -0.06303,-0.112023 -0.141529,-0.207527 -0.220703,-0.304687 -0.0015,-0.0018 -0.0026,-0.0039 -0.0039,-0.0059 -0.0045,-0.0066 -0.0086,-0.01349 -0.01367,-0.01953 -0.03685,-0.04357 -0.06755,-0.09251 -0.107422,-0.132812 -0.004,-0.004 -0.0093,-0.0063 -0.01367,-0.0098 l -0.002,-0.002 c -0.08132,-0.08083 -0.173837,-0.144868 -0.267578,-0.210938 -0.01415,-0.01015 -0.02906,-0.01893 -0.04297,-0.0293 -0.0038,-0.0028 -0.008,-0.005 -0.01172,-0.0078 -0.003,-0.0023 -0.0067,-0.0036 -0.0098,-0.0059 l -0.002,-0.002 c -0.0015,-9.85e-4 -0.0024,-0.0029 -0.0039,-0.0039 -0.0012,-7.85e-4 -0.0027,-0.0012 -0.0039,-0.002 -0.0047,-0.003 -0.0089,-0.0068 -0.01367,-0.0098 -0.04263,-0.03278 -0.08489,-0.0659 -0.132812,-0.0918 -0.01823,-0.0096 -0.03218,-0.02412 -0.05078,-0.0332 -0.0037,-0.0018 -0.0078,-0.0027 -0.01172,-0.0039 -5e-4,-2.38e-4 -0.0015,2.38e-4 -0.002,0 -0.0052,-0.0024 -0.0085,-0.0073 -0.01367,-0.0098 -0.04719,-0.02196 -0.09998,-0.02623 -0.148438,-0.04492 -0.0019,-8.22e-4 -0.004,-0.0011 -0.0059,-0.002 -0.0013,-5.16e-4 -0.0026,-0.0014 -0.0039,-0.0019 -0.0864,-0.03847 -0.169193,-0.0833 -0.263672,-0.107422 -0.02801,-0.0071 -0.08543,-0.006 -0.121094,-0.01172 -0.0033,-6.4e-4 -0.0065,-0.0013 -0.0098,-0.0019 -0.0012,-2.31e-4 -0.0027,2.28e-4 -0.0039,0 -0.05662,-0.01062 -0.111027,-0.01516 -0.167969,-0.02148 -0.0026,-2.92e-4 -0.0052,-0.0017 -0.0078,-0.0019 -0.06818,-0.0099 -0.13624,-0.02449 -0.205078,-0.02539 z"
     id="path181"
     inkscape:connector-curvature="0" />
  <ellipse
     style="opacity:1;fill:#e3dbdb;fill-opacity:0.99497483;stroke:#ddc4ff;stroke-width:1;stroke-opacity:0"
     id="path218"
     cx="29.784164"
     cy="13.380561"
     rx="3.2703919"
     ry="2.9054554" />
  <ellipse
     style="opacity:1;fill:#e3dbdb;fill-opacity:0.99497483;stroke:#ddc4ff;stroke-opacity:0"
     id="path222"
     cx="29.742054"
     cy="12.777013"
     rx="1.1228814"
     ry="1.0948093" />
  <path
     style="opacity:1;vector-effect:none;fill:#cca438;fill-opacity:1;stroke:#ddc480;stroke-width:1;stroke-linecap:butt;stroke-linejoin:miter;stroke-miterlimit:4;stroke-dasharray:none;stroke-dashoffset:0;stroke-opacity:0"
     d="m 29.203448,16.23341 c -0.06948,-0.0199 -0.159841,-0.0372 -0.200806,-0.03844 -0.120211,-0.0036 -0.63625,-0.193024 -0.886483,-0.325325 -1.221678,-0.645914 -1.834669,-1.937991 -1.504823,-3.171902 0.06276,-0.234795 0.265777,-0.660558 0.412957,-0.866065 0.476663,-0.665563 1.26592,-1.142785 2.142943,-1.295725 0.279938,-0.04882 0.891214,-0.05487 1.206188,-0.01193 0.428848,0.05845 0.991178,0.283772 1.398615,0.560413 0.587569,0.398946 1.025245,1.004461 1.196565,1.65542 0.08136,0.309136 0.08982,0.921999 0.01676,1.213759 -0.128623,0.513634 -0.392448,0.979193 -0.764192,1.348534 -0.507564,0.504282 -1.21429,0.845123 -1.960035,0.945289 -0.292057,0.03923 -0.899912,0.03117 -1.057688,-0.01402 z"
     id="path224"
     inkscape:connector-curvature="0" />
  <circle
     style="opacity:1;vector-effect:none;fill:#cca438;fill-opacity:1;stroke:#ddc480;stroke-width:1;stroke-linecap:butt;stroke-linejoin:miter;stroke-miterlimit:4;stroke-dasharray:none;stroke-dashoffset:0;stroke-opacity:0"
     id="path232"
     cx="7.4528618"
     cy="20.917902"
     r="2.6106992" />
  <rect
     style="opacity:1;fill:#ffffff;fill-opacity:0.99497483;stroke:#ddc4ff;stroke-opacity:0"
     id="rect284"
     width="1.0625"
     height="28.25"
     x="-0.62500018"
     y="12.6875" />
  <rect
     style="opacity:1;fill:#ffffff;fill-opacity:0.99497483;stroke:#ddc4ff;stroke-opacity:0"
     id="rect288"
     width="9"
     height="32.125"
     x="46.4375"
     y="10.4375" />
</svg>
