<?xml version="1.0" encoding="UTF-8" standalone="no"?>
<!-- Created with Inkscape (http://www.inkscape.org/) -->

<svg
   xmlns:dc="http://purl.org/dc/elements/1.1/"
   xmlns:cc="http://creativecommons.org/ns#"
   xmlns:rdf="http://www.w3.org/1999/02/22-rdf-syntax-ns#"
   xmlns:svg="http://www.w3.org/2000/svg"
   xmlns="http://www.w3.org/2000/svg"
   xmlns:sodipodi="http://sodipodi.sourceforge.net/DTD/sodipodi-0.dtd"
   xmlns:inkscape="http://www.inkscape.org/namespaces/inkscape"
   version="1.1"
   id="svg2"
   width="44.5"
   height="48"
   viewBox="0 0 44.5 48"
   sodipodi:docname="drawing6.svg"
   inkscape:version="0.92.4 (5da689c313, 2019-01-14)">
  <metadata
     id="metadata8">
    <rdf:RDF>
      <cc:Work
         rdf:about="">
        <dc:format>image/svg+xml</dc:format>
        <dc:type
           rdf:resource="http://purl.org/dc/dcmitype/StillImage" />
        <dc:title></dc:title>
      </cc:Work>
    </rdf:RDF>
  </metadata>
  <defs
     id="defs6" />
  <sodipodi:namedview
     pagecolor="#ffffff"
     bordercolor="#666666"
     borderopacity="1"
     objecttolerance="10"
     gridtolerance="10"
     guidetolerance="10"
     inkscape:pageopacity="0"
     inkscape:pageshadow="2"
     inkscape:window-width="1360"
     inkscape:window-height="705"
     id="namedview4"
     showgrid="false"
     showguides="true"
     inkscape:guide-bbox="true"
     inkscape:zoom="9.44"
     inkscape:cx="31.481309"
     inkscape:cy="23.944101"
     inkscape:window-x="-8"
     inkscape:window-y="-8"
     inkscape:window-maximized="1"
     inkscape:current-layer="svg2">
    <sodipodi:guide
       position="-64.088983,21.716102"
       orientation="1,0"
       id="guide44"
       inkscape:locked="false" />
  </sodipodi:namedview>
  <path
     style="opacity:1;vector-effect:none;fill:#cca438;fill-opacity:1;stroke:#ddc480;stroke-width:1;stroke-linecap:butt;stroke-linejoin:miter;stroke-miterlimit:4;stroke-dasharray:none;stroke-dashoffset:0;stroke-opacity:0"
     d="m 0.30630193,30.541148 v -17.5 H 4.3063019 c 3.921147,0 4,-0.07051 4,-3.576923 0,-4.8911881 4.4663081,-9.4230781 9.2867131,-9.4230781 4.893939,0 8.713287,4.0047976 8.713287,9.1363651 v 3.863636 h 4.999999 c 4.83659,0 5,-0.09364 5,-2.865141 0,-4.4119528 -3.465581,-8.1348601 -7.572579,-8.1348601 -1.885081,0 -3.42742,-0.45 -3.42742,-1 0,-0.55 1.595455,-1 3.545455,-1 4.608244,0 8.001676,3.3600203 8.927434,8.8395391 0.636472,3.767247 0.978135,4.160462 3.615008,4.160462 h 2.912102 v 17.5 17.5 H 22.306302 0.30630193 Z m 33.99999907,0 v -16.5 h -3.45031 c -2.245079,0 -3.793486,0.611294 -4.432749,1.75 -0.935658,1.666667 -1.014547,1.666667 -1.656679,0 -0.550374,-1.428507 -1.920902,-1.75 -7.460261,-1.75 -5.539359,0 -6.909887,0.321493 -7.4602608,1.75 -0.6421323,1.666667 -0.7210223,1.666667 -1.6566793,0 -0.540343,-0.9625 -2.08508,-1.75 -3.432751,-1.75 h -2.450309 v 16.5 16.5 H 18.306302 34.306301 Z m 4,5 c 0,-7 0.391304,-11.5 1,-11.5 0.609113,0 1,4.527778 1,11.583333 0,8.822223 0.297962,11.484013 1.25,11.166667 0.929825,-0.309942 1.25,-4.472222 1.25,-16.25 0,-11.777778 -0.320175,-15.940058 -1.25,-16.25 -0.842365,-0.280788 -1.25,0.732641 -1.25,3.10765 0,1.938374 -0.45,3.802431 -1,4.14235 -0.603931,0.37325 -1,-0.989616 -1,-3.440983 0,-2.232459 -0.45,-4.059017 -1,-4.059017 -0.626263,0 -1,6.166667 -1,16.5 0,10.333333 0.373737,16.5 1,16.5 0.608696,0 1,-4.5 1,-11.5 z m -19.61599,-26.5 c 0.834748,-5.2202278 2.589345,-5.2202278 1.889165,0 -0.480645,3.583482 -0.314542,4 1.595157,4 1.769526,0 2.131669,-0.594604 2.131669,-3.5 0,-4.3664428 -2.924654,-7.5000011 -7,-7.5000011 -4.075346,0 -7,3.1335583 -7,7.5000011 0,3.397413 0.113496,3.5 3.872192,3.5 3.744286,0 3.89332,-0.132127 4.511817,-4 z"
     id="path120"
     inkscape:connector-curvature="0" />
  <path
     style="fill:#000000"
     d=""
     id="path12"
     inkscape:connector-curvature="0" />
  <rect
     style="opacity:1;fill:#ffffff;fill-opacity:0.99497483;stroke:#ddc4ff;stroke-opacity:0"
     id="rect132"
     width="2.9661016"
     height="22.245762"
     x="37.806305"
     y="24.358944" />
  <rect
     style="opacity:1;fill:#ffffff;fill-opacity:0.99497483;stroke:#ddc4ff;stroke-opacity:0"
     id="rect136"
     width="4.6441336"
     height="11.610333"
     x="37.478397"
     y="15.390457" />
  <rect
     style="opacity:1;vector-effect:none;fill:#cca438;fill-opacity:1;stroke:#ddc480;stroke-width:1;stroke-linecap:butt;stroke-linejoin:miter;stroke-miterlimit:4;stroke-dasharray:none;stroke-dashoffset:0;stroke-opacity:0"
     id="rect140"
     width="0.9737699"
     height="5.9175248"
     x="38.751789"
     y="15.090836" />
  <rect
     style="opacity:1;fill:#000000;fill-opacity:0.99497483;stroke:#ddc4ff;stroke-opacity:0"
     id="rect142"
     width="0"
     height="0"
     x="0"
     y="-2" />
  <rect
     style="opacity:1;vector-effect:none;fill:#cca438;fill-opacity:1;stroke:#ddc480;stroke-width:1;stroke-linecap:butt;stroke-linejoin:miter;stroke-miterlimit:4;stroke-dasharray:none;stroke-dashoffset:0;stroke-opacity:0"
     id="rect144"
     width="0.9737699"
     height="22.621424"
     x="38.676884"
     y="24.004576" />
  <rect
     style="opacity:1;fill:#ffffff;fill-opacity:0.99497483;stroke:#ddc4ff;stroke-opacity:0"
     id="rect146"
     width="1.0486753"
     height="1.3482969"
     x="40.474613"
     y="45.052986" />
  <rect
     style="opacity:1;fill:#ffffff;fill-opacity:0.99497483;stroke:#ddc4ff;stroke-opacity:0"
     id="rect148"
     width="1.348297"
     height="1.5730125"
     x="37.328587"
     y="45.052986" />
  <rect
     style="opacity:1;fill:#ffffff;fill-opacity:0.99497483;stroke:#ddc4ff;stroke-opacity:0"
     id="rect150"
     width="1.0486751"
     height="1.3482971"
     x="40.474613"
     y="45.052986" />
  <rect
     style="opacity:1;fill:#ffffff;fill-opacity:0.99497483;stroke:#ddc4ff;stroke-opacity:0"
     id="rect154"
     width="1.0486753"
     height="0.63669574"
     x="40.362255"
     y="45.970577" />
  <rect
     style="opacity:1;fill:#ffffff;fill-opacity:0.99497483;stroke:#ddc4ff;stroke-opacity:0"
     id="rect156"
     width="1.2172124"
     height="2.4344249"
     x="37.534576"
     y="14.45414" />
  <rect
     style="opacity:1;fill:#ffffff;fill-opacity:0.99497483;stroke:#ddc4ff;stroke-opacity:0"
     id="rect158"
     width="1.629192"
     height="2.4156985"
     x="39.725559"
     y="14.472866" />
  <rect
     style="opacity:1;vector-effect:none;fill:#cca438;fill-opacity:1;stroke:#ddc480;stroke-width:1;stroke-linecap:butt;stroke-linejoin:miter;stroke-miterlimit:4;stroke-dasharray:none;stroke-dashoffset:0;stroke-opacity:0"
     id="rect160"
     width="9.1631355"
     height="1.4036016"
     x="34.840202"
     y="46.498775" />
  <rect
     style="opacity:1;vector-effect:none;fill:#cca438;fill-opacity:1;stroke:#ddc480;stroke-width:1;stroke-linecap:butt;stroke-linejoin:miter;stroke-miterlimit:4;stroke-dasharray:none;stroke-dashoffset:0;stroke-opacity:0"
     id="rect162"
     width="7.9184322"
     height="1.4036016"
     x="36.005459"
     y="13.077164" />
  <path
     style="opacity:1;vector-effect:none;fill:#cca438;fill-opacity:1;stroke:#ddc480;stroke-width:0.99999994;stroke-linecap:butt;stroke-linejoin:miter;stroke-miterlimit:4;stroke-dasharray:none;stroke-dashoffset:0;stroke-opacity:0"
     d="M 0.44231293,30.605609 V 13.25804 L 3.7791779,13.16851 c 3.407187,-0.09141 4.153973,-0.257276 4.381157,-0.973071 0.06578,-0.207255 0.204641,-1.434747 0.30858,-2.727761 0.158354,-1.9699584 0.298406,-2.5802188 0.864235,-3.7658078 1.3086591,-2.7420466 4.1356451,-4.9166598 7.0518081,-5.4244876 3.072455,-0.5350448 6.301946,0.8799353 8.140633,3.5667624 1.241962,1.81485 1.557108,3.0120438 1.704176,6.473889 l 0.124765,2.936897 4.257872,-0.09638 c 2.341833,-0.05301 4.508359,-0.1999 4.814503,-0.326429 1.016917,-0.420287 1.309324,-2.2859 0.715567,-4.565479 C 35.706898,6.5943519 35.106464,5.4895208 33.976974,4.2820047 32.623549,2.8350822 31.159788,2.1979337 28.64739,1.9621319 26.48561,1.7592373 25.376862,1.4373184 25.502938,1.0491575 c 0.30825,-0.9490228 4.25906,-1.171398 6.3556,-0.3577309 2.900655,1.1257444 5.000337,4.1546654 5.88575,8.4905564 0.508595,2.490614 0.831104,3.259281 1.52437,3.633187 0.260977,0.140754 1.499397,0.298835 2.752045,0.351291 l 2.277542,0.09537 V 30.60751 47.953177 H 22.370279 0.44231293 Z M 34.340618,30.474364 V 13.843008 l -1.536016,0.0065 c -2.246795,0.0096 -4.573511,0.35801 -5.326272,0.797646 -0.362167,0.211517 -0.927061,0.784477 -1.255322,1.273245 -0.32826,0.488767 -0.669555,0.888668 -0.75843,0.888668 -0.08888,0 -0.344756,-0.401737 -0.568623,-0.892749 -0.637216,-1.397615 -1.316803,-1.670547 -4.633476,-1.860866 -3.778091,-0.216796 -8.490697,0.03875 -9.401634,0.509815 -0.427688,0.221166 -0.860414,0.711916 -1.1459228,1.299579 -0.2523063,0.519322 -0.5167273,0.944221 -0.5876013,0.944221 -0.07088,0 -0.428032,-0.424434 -0.793684,-0.943188 -0.97007,-1.376249 -2.042049,-1.849606 -4.272747,-1.88673 l -1.817729,-0.03025 -0.05426,16.57839 -0.05426,16.57839 H 18.237627 34.340613 Z m 4.449153,4.872881 c 0,-11.193502 0.0053,-11.334746 0.423729,-11.334746 0.418453,0 0.423728,0.141244 0.423728,11.345818 v 11.345818 l 1.110522,-0.06404 c 1.436122,-0.08281 1.547091,-0.314672 1.863536,-3.89364 0.348375,-3.9401 0.152764,-25.129114 -0.248248,-26.890737 l -0.289369,-1.271187 -1.21822,-0.06354 -1.218221,-0.06354 v 3.188539 c 0,3.047296 -0.01877,3.188539 -0.423728,3.188539 -0.404897,0 -0.423729,-0.141243 -0.423729,-3.177966 v -3.177962 h -0.929812 c -0.885722,0 -0.936082,0.03343 -1.062067,0.704987 -0.725757,3.868615 -0.725757,26.924801 0,30.793415 0.125985,0.67156 0.176345,0.704988 1.062067,0.704988 h 0.929812 z M 17.499355,12.695954 c 0.584981,-0.383295 0.808199,-1.020194 1.354851,-3.865755 0.540754,-2.8148579 1.278821,-4.2911329 1.615313,-3.2309378 0.07835,0.2468661 0.07463,1.8962193 -0.0083,3.6652298 -0.176886,3.774239 -0.145065,3.844379 1.735643,3.825681 0.884032,-0.0088 1.242695,-0.116433 1.608909,-0.482873 0.431513,-0.431781 0.471023,-0.672111 0.468362,-2.848859 C 24.271533,7.5935896 24.216963,7.2631068 23.664066,6.0603138 22.887981,4.3720106 21.485186,3.041857 19.817172,2.4126265 18.794435,2.0268163 18.251466,1.9541594 16.938338,2.0273979 12.544359,2.2724682 9.8828842,5.7125356 10.238793,10.686838 c 0.122027,1.705483 0.372224,2.075179 1.576827,2.329948 1.2794,0.270588 5.111204,0.05429 5.683716,-0.320832 z"
     id="path164"
     inkscape:connector-curvature="0" />
</svg>
