<?xml version="1.0" encoding="UTF-8" standalone="no"?>
<!-- Created with Inkscape (http://www.inkscape.org/) -->

<svg
   xmlns:dc="http://purl.org/dc/elements/1.1/"
   xmlns:cc="http://creativecommons.org/ns#"
   xmlns:rdf="http://www.w3.org/1999/02/22-rdf-syntax-ns#"
   xmlns:svg="http://www.w3.org/2000/svg"
   xmlns="http://www.w3.org/2000/svg"
   xmlns:sodipodi="http://sodipodi.sourceforge.net/DTD/sodipodi-0.dtd"
   xmlns:inkscape="http://www.inkscape.org/namespaces/inkscape"
   version="1.1"
   id="svg125"
   width="42.27961"
   height="50.976479"
   viewBox="0 0 51.279609 58.976479"
   sodipodi:docname="drawing8.svg"
   inkscape:version="0.92.4 (5da689c313, 2019-01-14)">
  <metadata
     id="metadata131">
    <rdf:RDF>
      <cc:Work
         rdf:about="">
        <dc:format>image/svg+xml</dc:format>
        <dc:type
           rdf:resource="http://purl.org/dc/dcmitype/StillImage" />
        <dc:title></dc:title>
      </cc:Work>
    </rdf:RDF>
  </metadata>
  <defs
     id="defs129" />
  <sodipodi:namedview
     pagecolor="#ffffff"
     bordercolor="#666666"
     borderopacity="1"
     objecttolerance="10"
     gridtolerance="10"
     guidetolerance="10"
     inkscape:pageopacity="0"
     inkscape:pageshadow="2"
     inkscape:window-width="1360"
     inkscape:window-height="705"
     id="namedview127"
     showgrid="false"
     fit-margin-top="0"
     fit-margin-left="0"
     fit-margin-right="0"
     fit-margin-bottom="0"
     inkscape:zoom="2.6074563"
     inkscape:cx="137.98531"
     inkscape:cy="18.256352"
     inkscape:window-x="-8"
     inkscape:window-y="-8"
     inkscape:window-maximized="1"
     inkscape:current-layer="svg125" />
  <path
     style="font-variant-east_asian:normal;opacity:1;vector-effect:none;fill:#cca438;fill-opacity:1;stroke:#ddc480;stroke-width:1;stroke-linecap:butt;stroke-linejoin:miter;stroke-miterlimit:4;stroke-dasharray:none;stroke-dashoffset:0;stroke-opacity:0"
     d="M 5.8361515,58.810936 C 5.1452407,58.477922 5.1194496,58.361125 5.0778508,55.377048 l -0.03812,-2.732754 H 2.8717276 0.70373114 L 0.35186694,52.300723 2.7500584e-6,51.95715 V 42.363814 C 2.7500584e-6,31.623498 -0.00800382,31.74159 0.84001299,30.017136 1.8894837,27.883108 4.0320858,26.33816 6.9269376,25.628102 8.5321001,25.234385 9.8845806,25.141116 13.993549,25.14077 l 3.942268,-3.31e-4 4.81e-4,-0.793379 c 6.02e-4,-1.041101 0.264572,-1.490995 0.987154,-1.682395 0.366305,-0.09702 1.640251,-0.119869 4.369068,-0.07834 3.431299,0.05224 3.957153,0.08599 4.814984,0.309166 1.9067,0.496063 3.564421,1.443252 4.882552,2.789791 1.303052,1.331131 2.120779,2.71523 2.594648,4.391745 0.341213,1.207187 0.314693,3.993663 -0.04975,5.222414 -0.995267,3.356048 -3.595746,5.915598 -7.070855,6.959551 l -1.078889,0.324109 -4.360566,0.0055 -4.360572,0.0055 -0.33172,-0.32364 c -0.291401,-0.284309 -0.337257,-0.430732 -0.37729,-1.204772 L 17.9095,40.184638 h -2.574899 -2.574894 v 5.885931 5.885938 l -0.351871,0.343572 -0.351858,0.343574 H 9.8799828 7.7039793 v 2.597449 c 0,2.91911 -0.069083,3.234877 -0.7798334,3.564205 -0.4901938,0.227126 -0.6258592,0.227749 -1.0880156,0.0047 z M 10.231869,38.894616 V 27.613231 l -0.5717837,0.06553 C 5.628441,28.140864 3.3557994,29.65941 2.7134241,32.320419 2.5598749,32.956471 2.5311718,34.410024 2.5296696,41.625108 l -0.00212,8.550879 h 3.8519859 3.8519915 z m 17.385752,1.003311 c 3.975619,-1.120524 6.377282,-4.940983 5.545681,-8.821826 -0.588002,-2.744046 -2.946342,-5.116735 -5.717871,-5.752661 -0.593982,-0.136288 -1.529,-0.179943 -3.882076,-0.181265 l -3.09965,-0.0013 v 7.533694 7.533695 l 3.220024,-0.05438 c 2.555316,-0.0431 3.367382,-0.09587 3.933892,-0.255548 z m -9.681783,-7.293836 v -4.995357 h -2.588052 -2.58805 v 4.995357 4.995363 h 2.58805 2.588052 z M 44.659001,58.913517 C 44.177912,58.761892 43.931899,58.572298 43.761634,58.221945 43.597138,57.883458 43.575626,56.234014 43.575626,43.958112 V 30.077029 h -2.176002 -2.176003 l -0.351864,-0.343572 -0.351864,-0.343573 v -5.885931 -5.885938 h -2.574894 -2.574901 l -0.04556,0.881131 c -0.04003,0.774034 -0.08588,0.920456 -0.377286,1.204758 l -0.331729,0.32364 -4.360564,-0.0055 -4.360573,-0.0055 -1.07889,-0.32411 C 19.364975,18.655864 16.736281,16.083895 15.766076,12.79513 15.395335,11.538385 15.311819,9.3972938 15.58257,8.0904327 16.361204,4.3320888 19.287395,1.339621 23.172144,0.32893363 c 0.857822,-0.2231766 1.383678,-0.25693882 4.814977,-0.30916649 2.728817,-0.04151095 4.002763,-0.01867992 4.369075,0.07833805 0.72001,0.19072197 0.986558,0.64211186 0.987146,1.67174201 l 4.82e-4,0.7827371 4.604328,0.053065 c 4.184682,0.048223 4.714037,0.07672 5.808075,0.3126328 3.278202,0.7069102 5.564694,2.2574751 6.683398,4.5322944 0.848016,1.7244539 0.839982,1.6063624 0.839982,12.3466855 v 9.593385 l -0.351865,0.343572 -0.351865,0.343571 h -2.176002 -2.176001 v 13.881082 c 0,12.275904 -0.02153,13.925348 -0.186007,14.263834 -0.237738,0.489186 -0.9259,0.834335 -1.378859,0.691573 z M 48.749955,19.057856 C 48.747829,9.7753193 48.743578,9.710757 48.076064,8.4238346 47.670335,7.6420385 46.71078,6.729421 45.797763,6.2569782 44.613441,5.6441524 43.614519,5.3727123 41.559351,5.1052644 L 41.04776,5.0387081 V 16.323731 27.608755 h 3.851991 3.851983 l -0.0022,-8.550878 z M 30.815924,10.095597 V 2.5731736 l -3.099651,0.00207 c -3.507433,0.00207 -4.089794,0.085022 -5.567327,0.7940002 -1.321808,0.6342525 -2.686525,1.9837798 -3.355456,3.3180863 -0.861926,1.7192786 -1.063953,3.3978709 -0.616654,5.1234799 0.79727,3.075737 3.332577,5.287717 6.560168,5.723553 0.198621,0.02684 1.647627,0.05666 3.220019,0.06634 l 2.858901,0.01757 z m 7.703969,-0.05873 V 5.0415035 H 35.931841 33.34379 v 4.9953555 4.995364 h 2.588051 2.588052 z"
     id="path135"
     inkscape:connector-curvature="0" />
</svg>
